<svg width="78" height="81" viewBox="0 0 78 81" fill="none" xmlns="http://www.w3.org/2000/svg">
<g clip-path="url(#clip0_581_673)">
<path d="M49.607 33.8214C51.1158 34.408 52.3843 35.0216 53.7181 35.3959C58.033 36.6019 62.3459 37.8329 66.7127 38.8266C69.2209 39.3978 71.8271 39.5309 74.391 39.8493C75.0791 39.9342 75.7748 39.9747 76.4648 40.048C77.6373 40.1715 78.1831 40.9703 77.9467 42.1532C76.6724 48.5303 74.3526 54.5234 71.3062 60.2368C68.8096 64.9236 65.6364 69.1165 61.6482 72.6225C57.6774 76.113 53.1031 78.5056 47.881 79.4704C45.9975 79.8197 44.0621 79.9123 42.1458 80.0493C41.7172 80.0802 41.1868 79.9046 40.8389 79.6422C34.6155 74.9437 30.6927 68.8001 29.2147 61.08C28.5824 57.7766 28.3171 54.4501 28.5036 51.1139C28.7669 46.4444 29.5741 41.8464 30.8907 37.3505C30.933 37.2058 30.9426 37.0495 30.9772 36.8411C29.4703 37.5396 28.0634 38.2999 26.5816 38.8614C20.881 41.0167 15.6897 40.1213 11.0442 36.1176C6.75629 32.4225 4.21542 27.5871 2.23001 22.4198C1.37665 20.2008 0.773142 17.8815 0.0869922 15.5989C-0.180164 14.7074 0.204233 13.9163 0.930745 13.6848C1.85522 13.3895 2.60287 13.7889 2.96997 14.7634C3.66381 16.6041 4.54408 18.3349 5.89524 19.7937C8.04018 22.1091 10.9059 22.1554 13.4313 20.5848C15.9184 19.0373 18.3516 17.4049 21.2461 16.6813C24.0215 15.9886 26.7853 15.8999 29.5549 16.7276C32.5474 17.6229 35.2151 16.9476 37.5138 14.8791C39.6684 12.9419 42.1939 11.817 45.0096 11.3847C47.5582 10.993 50.1009 11.159 52.6726 11.4967C54.9617 11.7977 57.3315 11.7957 59.0324 9.66938C60.1971 8.21258 60.5104 6.48758 60.668 4.72205C60.7622 3.67238 60.718 2.60535 60.6719 1.54796C60.6315 0.62178 61.1754 0.183775 61.9269 0.0352003C62.7053 -0.119163 63.3434 0.324631 63.5299 1.06364C63.8681 2.40081 64.191 3.76307 64.2929 5.13304C64.5082 7.99261 64.7446 10.8676 64.6658 13.7272C64.5408 18.3465 63.7182 22.8481 61.2158 26.8558C58.894 30.574 55.5517 32.8007 51.2176 33.5011C50.766 33.5744 50.3181 33.6825 49.607 33.8272V33.8214ZM74.6793 42.9829C73.5031 42.8806 72.4556 42.8613 71.435 42.6896C68.6827 42.2265 65.9439 41.6843 63.1974 41.2C58.8037 40.4243 54.5638 39.091 50.4315 37.4586C47.4582 36.2835 44.5541 34.9077 41.7019 33.4606C39.7414 32.4669 37.879 32.6425 35.9839 33.4046C35.5823 33.5667 35.1594 34.0298 35.023 34.4466C33.7256 38.3925 32.5859 42.3751 32.0804 46.5274C31.6825 49.7903 31.4173 53.0261 31.6883 56.3256C31.9459 59.4669 32.534 62.5021 33.6583 65.4292C35.3036 69.7185 37.929 73.3036 41.4347 76.2655C42.2708 76.9717 43.153 77.1164 44.1543 76.9832C44.4022 76.9504 44.6425 76.8385 44.8904 76.8173C47.5063 76.6089 50.0087 75.922 52.4035 74.8839C57.3372 72.744 61.3042 69.3519 64.5408 65.0973C69.5342 58.533 72.617 51.0734 74.6832 42.9848L74.6793 42.9829ZM6.13741 23.8611C8.06901 27.9402 10.187 31.6237 13.6581 34.3115C16.4296 36.4572 19.4875 37.3718 23.0182 36.6656C26.326 36.0037 29.159 34.4331 31.7556 32.3897C34.7769 30.0106 38.0866 29.1789 41.846 30.0279C44.3715 30.5991 46.8989 30.9445 49.532 30.6435C54.2371 30.1051 57.5544 27.7993 59.5533 23.4907C60.6296 21.1694 61.1235 18.7112 61.4311 16.2105C61.6136 14.7132 61.6136 13.1927 61.7117 11.4098C61.3138 11.7899 61.1312 11.952 60.9621 12.1276C59.3169 13.8372 57.3065 14.6939 54.9463 14.6148C52.4438 14.5299 49.9453 14.3215 47.4428 14.252C44.3446 14.1652 41.6615 15.3133 39.3301 17.3007C36.278 19.9037 32.855 20.7797 28.9668 19.703C28.3037 19.5197 27.631 19.3229 26.9525 19.2573C23.0586 18.8887 19.6278 20.1236 16.4623 22.3272C13.3525 24.4902 10.0467 25.6247 6.13741 23.8592V23.8611Z" fill="#FF008C"/>
<path d="M50.614 68.182C45.0729 68.0875 41.3846 66.0325 38.5151 62.3684C38.3979 62.2179 38.246 62.0944 38.123 61.9496C37.4811 61.1971 37.4849 59.9429 38.1845 59.4818C38.8399 59.0476 39.824 59.038 40.5505 60.0066C42.0631 62.021 43.8947 63.6496 46.3376 64.5005C48.8669 65.3804 51.3559 65.0871 53.8756 64.4812C54.433 64.3481 55.1768 64.3326 55.6246 64.6085C55.9956 64.8343 56.3146 65.6447 56.1935 66.0576C56.0455 66.5593 55.4766 67.1633 54.9769 67.2945C53.2817 67.744 51.5385 68.0045 50.6121 68.182H50.614Z" fill="#FF008C"/>
<path d="M58.0503 49.2166C60.2317 49.4616 62.1191 50.1543 63.3338 52.0974C63.7797 52.8074 63.4549 53.3612 62.9283 53.8474C62.3728 54.3626 61.754 54.4398 61.1216 54.0153C60.8622 53.8397 60.6507 53.587 60.4316 53.3554C59.511 52.3849 58.3636 52.1803 57.1181 52.4234C56.1341 52.6145 55.3211 52.2208 55.1308 51.3815C54.929 50.4939 55.4537 49.6854 56.3993 49.4828C56.9471 49.3651 57.5083 49.3034 58.0484 49.2185L58.0503 49.2166Z" fill="#FF008C"/>
<path d="M41.7346 44.0571C43.9219 44.0861 45.5344 44.8617 46.8106 46.2742C47.7274 47.291 47.3449 48.6803 46.0918 48.9369C45.6843 49.0199 45.0462 48.8501 44.7695 48.5549C43.6009 47.3026 42.2747 46.8434 40.6084 47.3084C40.0029 47.4763 39.14 46.7701 39.0227 46.1179C38.8709 45.2785 39.361 44.4257 40.1144 44.2867C40.7294 44.1729 41.356 44.1092 41.7346 44.0571Z" fill="#FF008C"/>
<path d="M45.2496 27.9087C43.2795 27.9994 41.4633 27.5363 40.041 26.122C38.0152 24.1075 38.3054 21.7786 39.9084 19.8355C41.6132 17.769 43.9119 16.8004 46.5758 16.536C48.5439 16.3392 50.3851 16.5206 52.063 17.6243C54.8826 19.4805 55.0267 22.4018 52.8376 24.9006C51.4711 26.4635 48.4305 28.1229 45.2515 27.9106L45.2496 27.9087ZM45.2861 24.9642C47.283 24.8697 49.0436 24.3294 50.4601 22.8765C51.7248 21.5798 51.4691 20.3854 49.7144 19.8432C47.0716 19.027 44.6595 19.6426 42.578 21.3888C41.2057 22.5407 41.4844 23.8528 43.1796 24.5108C43.8408 24.7674 44.5807 24.8195 45.2861 24.9642Z" fill="#FF008C"/>
<path d="M22.1167 33.105C20.3888 33.188 18.8512 32.7384 17.3963 31.7447C15.2609 30.286 15.1725 27.2547 16.3834 25.5104C17.9536 23.2451 20.235 22.2514 22.8201 21.7536C24.942 21.3464 26.9562 21.6089 28.8302 22.7145C31.4902 24.2832 31.8957 27.602 29.8411 29.9271C28.3074 31.6637 24.9785 33.3076 22.1167 33.1031V33.105ZM22.0513 30.2185C24.2039 30.0332 25.4167 29.6859 27.0446 28.2986C27.554 27.8644 28.0364 27.0347 27.9941 26.425C27.9595 25.931 27.1984 25.3155 26.6256 25.0608C24.2847 24.0227 20.5829 25.0897 19.0665 27.0482C18.3688 27.9493 18.5264 28.9951 19.5777 29.4679C20.358 29.819 21.2249 29.9753 22.0532 30.2185H22.0513Z" fill="#FF008C"/>
</g>
<defs>
<clipPath id="clip0_581_673">
<rect width="78" height="80.0527" fill="white"/>
</clipPath>
</defs>
</svg>
