<svg width="17" height="19" viewBox="0 0 17 19" fill="none" xmlns="http://www.w3.org/2000/svg">
<path fill-rule="evenodd" clip-rule="evenodd" d="M7.03498 9.88106C6.97591 9.82688 6.9239 9.78098 6.87709 9.73968L6.87708 9.73967C6.80908 9.67966 6.75207 9.62936 6.70038 9.57742C6.68954 9.56648 6.67893 9.55546 6.6685 9.54429C6.15415 8.99547 5.64081 8.44597 5.12747 7.89647C4.61413 7.34697 4.10079 6.79747 3.58644 6.24864C3.56132 6.22184 3.53596 6.19535 3.5103 6.16939C3.24718 5.90259 2.95215 5.68922 2.53895 5.74596C2.14558 5.80003 1.8955 6.05281 1.75762 6.40833C1.59 6.8409 1.76573 7.20859 2.05231 7.51544C3.76096 9.34441 5.47502 11.1693 7.19719 12.9861C7.22627 13.0168 7.25528 13.0459 7.2842 13.0736C7.84351 13.6081 8.37698 13.5711 8.93004 12.9846C10.6225 11.1867 12.3149 9.38748 14.0019 7.5842C14.1303 7.44767 14.2398 7.28546 14.3277 7.11919C14.5162 6.7643 14.4247 6.2894 14.1397 6.01427C14.1279 6.00289 14.1158 5.99185 14.1034 5.98117C13.7493 5.67567 13.3059 5.64863 12.9301 5.92169C12.7949 6.01902 12.6692 6.13392 12.5543 6.25558C12.044 6.79295 11.535 7.33134 11.026 7.86973C10.5171 8.40804 10.0082 8.94635 9.49792 9.48364C9.42042 9.56565 9.33571 9.64044 9.251 9.71524C9.20864 9.75264 9.16629 9.79004 9.12483 9.82834C9.09552 9.81502 9.0662 9.80169 9.03818 9.78837V9.33206V1.27949L9.03831 1.21709V1.21707C9.03866 1.10273 9.03901 0.988532 9.02872 0.875305C9.00612 0.634976 8.90653 0.430023 8.74998 0.278888C8.59734 0.130978 8.39029 0.0343803 8.14749 0.00628841C7.69735 -0.0450793 7.24721 0.222574 7.12284 0.651089C7.07122 0.831752 7.07135 1.03213 7.07146 1.22399V1.22399L7.07147 1.25128C7.06985 2.87504 7.06969 4.49879 7.06953 6.12284V6.12294C7.06942 7.20561 7.06931 8.28842 7.06877 9.37144C7.06877 9.46261 7.06081 9.55379 7.05079 9.66856C7.04536 9.73076 7.03933 9.79989 7.03362 9.87971L7.03498 9.88106ZM14.7416 18.8358C14.714 18.8364 14.6865 18.8368 14.659 18.837C13.0013 18.841 11.3429 18.8405 9.68422 18.84C9.13144 18.8398 8.57864 18.8397 8.02584 18.8397C7.58838 18.8397 7.15092 18.8397 6.71346 18.8398C4.96238 18.84 3.2113 18.8402 1.46023 18.837C1.22637 18.837 0.989805 18.8126 0.75865 18.7748C0.301748 18.7004 0.0111143 18.349 0.000300062 17.8813C0.000108574 17.8732 9.4858e-06 17.8652 1.01824e-06 17.8572C-0.000615903 17.4137 0.279155 17.0126 0.681598 16.9117C0.854627 16.8684 1.03441 16.8373 1.2115 16.8373C2.89619 16.8358 4.58069 16.8351 6.26515 16.8347C8.6099 16.834 10.9546 16.8341 13.2995 16.8346L14.8807 16.8346C14.9486 16.8348 15.0129 16.837 15.074 16.8414C15.5957 16.8784 15.8737 17.0779 16.0251 17.5156C16.0422 17.5649 16.0576 17.6173 16.0716 17.6727C16.1974 18.1675 15.8932 18.6731 15.3944 18.7677C15.2857 18.7883 15.1757 18.8043 15.0652 18.8157" fill="white"/>
</svg>
