<svg width="72" height="72" viewBox="0 0 72 72" fill="none" xmlns="http://www.w3.org/2000/svg">
<path d="M34.0445 0C33.9501 0.170483 33.8571 0.209934 33.7627 0H34.0445Z" fill="#FF008C"/>
<path d="M38.2603 0C38.1659 0.209934 38.0729 0.170483 37.9785 0H38.2603Z" fill="#FF008C"/>
<path d="M71.9967 34.0179C71.8219 33.9235 71.7853 33.8305 71.9967 33.7361V34.0179Z" fill="#ED1E7A"/>
<path d="M71.9967 38.2349C71.7853 38.1405 71.8219 38.0475 71.9967 37.9531V38.2349Z" fill="#ED1E7A"/>
<path d="M71.9972 33.1738C71.8577 32.4637 71.9239 31.7352 71.8323 31.0237C71.3293 27.1068 70.1585 23.3844 68.4044 19.8578C66.1416 15.3083 63.001 11.4308 59.1137 8.16911C54.6149 4.39593 49.4709 1.92181 43.7421 0.638255C42.0724 0.263474 40.3789 0.135259 38.6825 0H38.2612C38.1668 0.088764 38.0738 0.088764 37.9794 0H34.0442C33.9498 0.088764 33.8568 0.088764 33.7624 0H33.2003C33.165 0.156394 33.0368 0.131033 32.9255 0.139486C30.6472 0.321241 28.4084 0.725611 26.2105 1.35259C19.1488 3.3674 13.2565 7.20538 8.50978 12.7961C3.68271 18.484 0.957793 25.0779 0.187096 32.4778C-0.214455 36.3411 0.0321114 40.1875 0.909889 43.9678C2.71758 51.7536 6.64292 58.301 12.7803 63.4268C21.6933 70.8717 31.966 73.4417 43.3081 71.2085C52.5043 69.3965 59.821 64.4427 65.3159 56.8555C68.7031 52.1777 70.7841 46.9519 71.6111 41.2245C71.721 40.4623 71.6562 39.662 72 38.9378V38.2347C71.9112 38.1403 71.9112 38.0474 72 37.953V34.0177C71.9112 33.9233 71.9112 33.8304 72 33.736V33.1738H71.9972ZM35.8928 69.8629C17.2523 69.8404 2.12018 54.6335 2.13427 35.9367C2.14836 17.2019 17.3411 2.08384 36.1309 2.10779C54.777 2.13175 69.9035 17.3343 69.8894 36.0354C69.8753 54.7646 54.6797 69.884 35.8928 69.8615V69.8629Z" fill="#FF008C"/>
<path d="M27.0424 38.2374C26.4817 38.2261 26.0308 37.7682 26.0322 37.2117C26.0322 36.6467 26.5437 36.1437 27.1016 36.1578C27.6004 36.1704 28.1245 36.7044 28.133 37.2074C28.1428 37.7626 27.6272 38.2486 27.0424 38.236V38.2374Z" fill="#FF008C"/>
<path d="M19.9211 26.8605C19.3688 26.8535 18.8855 26.397 18.8686 25.8672C18.8503 25.3346 19.3942 24.7964 19.9394 24.8063C20.527 24.8161 20.9933 25.3051 20.9722 25.887C20.951 26.4364 20.4861 26.8676 19.9225 26.8605H19.9211Z" fill="#ED1E7A"/>
<path d="M29.425 12.9357C28.8403 12.9385 28.4134 12.5201 28.4063 11.9368C28.3993 11.3309 28.8783 10.8322 29.4461 10.8519C29.9745 10.8702 30.4465 11.3802 30.4394 11.9241C30.431 12.5116 30.0083 12.9329 29.425 12.9357Z" fill="#FF008C"/>
<path d="M27.0283 21.6899C27.0269 22.2492 26.5831 22.7311 26.0491 22.7537C25.5151 22.7776 24.9825 22.2436 24.9854 21.6899C24.9896 21.084 25.4433 20.6445 26.0491 20.6614C26.624 20.6783 27.0312 21.1052 27.0283 21.6899Z" fill="#ED1E7A"/>
<path d="M25.7784 30.8844C25.2205 30.8957 24.7725 30.4603 24.7527 29.8855C24.7316 29.2669 25.1458 28.8189 25.7446 28.8119C26.373 28.8048 26.783 29.2148 26.7802 29.846C26.7774 30.3983 26.3195 30.8717 25.7784 30.883V30.8844Z" fill="#ED1E7A"/>
<path d="M23.0627 15.0785C23.5995 15.063 24.0842 15.5167 24.1123 16.0634C24.1447 16.6734 23.7221 17.1384 23.1218 17.1525C22.5385 17.1666 22.1046 16.7664 22.082 16.1916C22.0581 15.5731 22.4779 15.0954 23.0627 15.0785Z" fill="#ED1E7A"/>
<path d="M62.5668 24.3822C62.7514 20.1638 61.217 16.6794 57.9483 14.0038C56.0124 12.4202 53.775 11.5128 51.26 11.3578C50.3329 11.3 49.589 11.6988 49.3959 12.4779C49.2677 12.995 49.1367 12.9358 48.7675 12.7301C47.2276 11.8693 45.6213 11.1479 43.9151 10.6843C43.3572 10.5322 43.1557 10.311 43.174 9.69524C43.2247 8.00309 42.1271 6.64063 40.4533 6.30812C38.9316 6.0066 37.4382 6.36307 35.9686 6.71953C35.1895 6.90833 34.4667 7.12249 33.7721 6.51383C33.6283 6.38843 33.386 6.37293 33.1873 6.31798C31.9432 5.97842 30.7005 6.24753 29.5142 6.50819C22.2426 8.10031 17.3113 12.3793 14.9217 19.4832C14.7639 19.951 14.5652 20.3779 14.282 20.7851C10.2862 26.5294 8.80965 32.9007 9.75787 39.8017C10.3651 44.223 12.0559 48.2484 14.7498 51.8243C15.0457 52.2174 15.1401 52.5866 15.0471 53.0431C14.7949 54.2759 14.8414 55.5172 15.095 56.7317C16.5589 63.7455 25.0577 66.8269 30.7259 62.3985C31.0457 62.1491 31.3374 62.0843 31.6826 62.1435C34.2342 62.5789 36.7858 62.6254 39.3586 62.2957C42.6414 61.8744 45.7298 60.8853 48.6379 59.3171C49.3523 58.9325 49.5467 58.4253 49.2522 57.8434C48.9479 57.2418 48.3871 57.1009 47.6516 57.4911C43.1895 59.8582 38.4512 60.8036 33.4212 60.3133C32.9013 60.2625 32.8252 60.1696 33.1056 59.7102C34.399 57.594 34.7668 55.2988 34.3413 52.8655C33.0718 45.6179 24.2588 42.3393 18.5751 46.9874C17.5325 47.8398 16.7209 48.8698 16.0193 50.0251C10.1777 41.794 10.7202 31.5072 14.0862 25.4192C14.0369 26.528 14.1975 27.51 14.3637 28.4907C14.6343 30.0757 15.1358 31.5918 15.8051 33.0514C16.0615 33.6094 16.5547 33.7489 17.1027 33.5911C17.6663 33.4276 17.8368 32.9754 17.7438 32.4329C17.7015 32.1863 17.5902 31.9482 17.4888 31.7158C16.3165 29.0247 15.9319 26.1955 16.2292 23.3071C16.5857 19.8425 17.9157 16.7414 20.225 14.1109C23.3754 10.5223 27.3571 8.58217 32.1264 8.30742C33.2367 8.24402 33.82 8.86114 33.7481 9.98549C33.6875 10.9379 33.5452 11.8862 33.4269 12.8358C33.1676 14.9168 32.8929 16.9964 32.6364 19.0789C32.3814 21.1599 32.1489 23.2451 31.8925 25.3262C31.5868 27.8017 31.2571 30.2744 30.9513 32.7499C30.654 35.1578 30.392 37.57 30.0792 39.975C29.9468 40.9923 29.1521 41.4756 28.1405 41.1994C26.4695 40.7415 24.9323 39.9849 23.5036 39.0113C22.3384 38.2181 21.2803 37.298 20.3461 36.2399C20.0334 35.8848 19.6501 35.7595 19.2119 35.8722C18.8203 35.9722 18.5892 36.2765 18.492 36.6598C18.3652 37.16 18.6779 37.5023 18.9752 37.8278C21.2577 40.3259 24.0193 42.0814 27.2345 43.1241C28.7858 43.627 30.1863 43.4016 31.3106 42.1462C31.5389 41.8912 31.7009 41.9095 31.9559 42.042C32.9041 42.5323 33.8918 42.9268 34.9232 43.2044C36.3476 43.589 37.5903 43.2988 38.6132 42.1955C39.3219 41.4305 39.4614 40.4837 39.5727 39.496C39.8573 36.9697 40.1941 34.4505 40.5054 31.9285C40.7605 29.8686 41.0056 27.8073 41.262 25.7474C41.5213 23.6664 41.7904 21.5868 42.0497 19.5044C42.3357 17.1923 42.6146 14.8802 42.9007 12.5385C44.9634 13.1415 46.85 14.0038 48.659 15.0563C49.1268 15.3282 49.2593 15.6354 49.2564 16.1609C49.2353 21.8531 49.2424 27.5453 49.2466 33.2374C49.2466 33.6094 49.2283 33.9814 49.31 34.3547C49.5241 35.3311 50.3019 35.9454 51.2797 35.8355C53.7087 35.5636 55.918 34.7366 57.8623 33.2219C58.6147 32.6358 59.2318 31.913 59.9673 31.2311C60.5915 34.3068 60.6027 37.3079 60.0504 40.3231C59.198 44.9726 57.1973 49.0459 53.9877 52.5147C53.2734 53.2868 52.4829 53.9857 51.7348 54.7254C51.3417 55.1128 51.2572 55.5637 51.5446 56.0484C51.8066 56.4908 52.235 56.5993 52.6957 56.4908C53.0409 56.4105 53.2917 56.1301 53.5481 55.8948C55.4939 54.1237 57.2001 52.154 58.5865 49.9096C60.7338 46.4323 61.9976 42.6506 62.4118 38.6013C62.7387 35.3988 62.4893 32.2216 61.613 29.1092C61.5242 28.7922 61.5453 28.4935 61.682 28.1666C62.1878 26.9605 62.5048 25.6925 62.5626 24.3878L62.5668 24.3822ZM24.4279 46.9268C28.5223 46.8 32.3828 49.9575 32.4519 54.6577C32.5125 58.8282 28.9506 62.3788 24.7731 62.4042C20.4885 62.4295 17.0083 58.9663 16.9788 54.6479C16.9506 50.5041 20.3687 47.0522 24.4265 46.9268H24.4279ZM41.0789 10.0573C40.7816 12.6991 40.4336 15.3353 40.1152 17.9742C39.8165 20.4498 39.5403 22.9281 39.2346 25.4037C38.8809 28.2723 38.5033 31.1381 38.1426 34.0067C37.8961 35.9722 37.6636 37.9405 37.417 39.9074C37.2832 40.974 36.5364 41.4699 35.491 41.1896C34.4582 40.9134 33.4903 40.4738 32.528 40.0145C32.2433 39.8792 32.1856 39.689 32.2208 39.4115C32.48 37.3783 32.7379 35.3452 32.9901 33.3121C33.2507 31.2085 33.5044 29.1036 33.765 27C34.0257 24.8964 34.2948 22.7943 34.5554 20.6907C34.8105 18.6336 35.0584 16.5737 35.3092 14.5167C35.4727 13.1754 35.6375 11.834 35.7995 10.4941C35.8249 10.2856 35.9094 10.0602 35.8587 9.87136C35.622 8.98372 36.1053 8.71038 36.8548 8.61457C37.7087 8.50468 38.5611 8.37505 39.081 8.30038C40.6449 8.28347 41.2141 8.84846 41.0789 10.0588V10.0573ZM60.3477 21.7263C60.514 22.4787 60.2575 22.5294 59.6235 22.5195C57.3565 22.4829 55.0881 22.5054 52.6577 22.5054C54.4287 20.5118 56.0983 18.6322 57.8144 16.7006C59.1515 18.1588 59.9321 19.8355 60.3477 21.7277V21.7263ZM51.7151 13.4924C53.286 13.6826 54.7063 14.2546 56.0124 15.1423C56.3984 15.4043 56.0546 15.5466 55.9419 15.6748C54.7077 17.0753 53.4594 18.4632 52.2138 19.8552C51.9659 20.1328 51.7179 20.4089 51.3389 20.8316C51.3389 18.3758 51.3431 16.0947 51.3332 13.8136C51.3332 13.5093 51.4671 13.4642 51.7151 13.4938V13.4924ZM51.701 33.6798C51.3036 33.7432 51.3375 33.553 51.3375 33.3093C51.3375 31.0451 51.3375 28.7809 51.3375 26.2983C53.0606 28.2385 54.6541 30.0307 56.2575 31.8355C54.8669 32.8373 53.3509 33.4135 51.6996 33.6798H51.701ZM60.3745 25.1669C60.0828 26.9281 59.3572 28.4738 58.3118 29.8954C57.9948 30.3265 57.7806 30.4745 57.3382 29.9532C55.9673 28.3329 54.5302 26.7675 53.1212 25.1782C52.9874 25.0275 52.8732 24.8612 52.6746 24.6034C55.1769 24.6034 57.5369 24.6118 59.8969 24.5963C60.3435 24.5935 60.4618 24.6414 60.3745 25.1669Z" fill="#FF008C"/>
<path d="M53.225 37.6878C52.722 37.3708 52.1274 37.5117 51.7695 38.0485C51.5765 38.3373 51.3919 38.6346 51.2355 38.9446C50.8227 39.7632 50.4127 40.5663 49.4278 40.0407C46.8565 40.0464 44.9629 41.3482 44.1217 43.6082C43.8639 44.3 43.6723 45.0171 43.4581 45.7244C42.9171 47.5223 41.8956 48.9199 40.1766 49.7681C39.4017 50.15 38.6014 50.4289 37.7603 50.6206C37.0685 50.7784 36.6021 51.2222 36.4626 51.9267C36.3316 52.5874 36.5979 53.1454 37.1446 53.4976C39.0114 54.6967 41.0685 55.3772 43.2848 55.2039C46.717 54.9348 49.4306 53.2807 51.3806 50.4613C53.0136 48.0999 53.8195 45.4328 52.8178 42.6783C52.3359 41.3525 52.6008 40.5254 53.2912 39.5687C53.3997 39.418 53.4884 39.2517 53.5716 39.0855C53.8505 38.5289 53.7167 37.9963 53.225 37.6864V37.6878ZM49.6335 49.3229C47.8413 51.8027 45.4574 53.1919 42.3408 53.1214C41.363 53.0989 40.419 52.8523 39.4553 52.3606C40.6176 51.8872 41.6927 51.4194 42.6226 50.6797C44.1781 49.4399 45.0643 47.7942 45.5743 45.909C45.7617 45.22 45.9322 44.5212 46.2619 43.8801C46.9086 42.6219 48.0203 42.1232 49.3531 42.1119C50.3845 42.1034 50.9255 42.7375 51.0552 43.8562C51.2862 45.8653 50.8128 47.6913 49.6349 49.3229H49.6335Z" fill="#FF008C"/>
</svg>
