<svg width="60" height="70" viewBox="0 0 60 70" fill="none" xmlns="http://www.w3.org/2000/svg">
<g clip-path="url(#clip0_581_1717)">
<path d="M60.0001 23.382C59.5958 32.3898 57.9503 41.1271 54.2912 49.4135C51.759 55.1447 48.45 60.3453 43.5796 64.4005C39.5177 67.7824 34.9163 69.801 29.5275 69.6718C24.8795 69.5606 20.8326 67.8275 17.202 65.0273C13.0289 61.8093 9.96476 57.6728 7.49275 53.0705C4.18972 46.9214 2.19107 40.3365 1.05049 33.472C0.351716 29.274 -0.00593644 25.0459 7.45289e-05 20.7892C0.00157727 19.6394 0.377263 19.2756 1.51484 19.2501C3.1378 19.2155 4.75926 19.1554 6.38072 19.1133C6.91419 19.0998 7.1892 18.8984 7.33947 18.3242C7.87895 16.2785 9.88812 15.1813 11.8913 15.8306C12.4022 15.996 12.6607 15.8592 12.9627 15.5014C14.6188 13.54 15.4813 11.2718 15.588 8.71663C15.6196 7.94255 15.6376 7.16396 15.5925 6.39139C15.5159 5.04014 16.1095 4.02707 17.1118 3.21542C18.849 1.80705 20.9228 1.15623 23.0627 0.733867C28.5627 -0.352846 34.0417 -0.318276 39.4125 1.42978C40.6222 1.82359 41.7703 2.50297 42.8403 3.21091C43.9358 3.93689 44.4617 5.04765 44.4106 6.42596C44.3415 8.27473 44.2573 10.1671 45.0192 11.8941C45.5963 13.2018 46.4198 14.4042 47.1892 15.6187C47.2989 15.793 47.7497 15.8892 47.9872 15.8231C50.1691 15.2114 52.1137 16.2425 52.6953 18.4324C52.8395 18.9765 53.1476 19.0908 53.5864 19.1058C55.2078 19.1629 56.8308 19.2185 58.4523 19.2501C59.6304 19.2726 60.0001 19.6319 60.0001 20.8313C60.0001 21.682 60.0001 22.5313 60.0001 23.382ZM14.3588 31.5451C13.1355 31.1979 12.0491 30.5847 11.735 29.3747C11.4269 28.1918 10.8995 27.4703 9.81749 26.8375C8.33579 25.9703 8.10737 24.4101 8.76708 22.2938C8.55068 22.0954 8.34781 21.8699 8.10587 21.7001C7.906 21.5588 7.65505 21.3844 7.43414 21.3934C6.14178 21.4521 4.85093 21.5648 3.55857 21.6475C3.19641 21.67 2.82974 21.6505 2.43602 21.6505C2.43602 22.1299 2.40296 22.5042 2.44053 22.8725C2.81171 26.5219 3.03411 30.1954 3.60816 33.8132C4.71568 40.7935 6.93373 47.425 10.5388 53.5379C13.107 57.8923 16.2507 61.7506 20.6162 64.4411C25.6294 67.5314 30.9085 68.2003 36.4341 65.9517C40.6553 64.2352 43.8892 61.2622 46.6332 57.7134C50.4907 52.7278 52.9838 47.0642 54.7525 41.0565C56.2598 35.9341 57.0848 30.6899 57.4379 25.3705C57.5176 24.1606 57.4499 22.9401 57.4499 21.6505C57.2335 21.6505 56.963 21.655 56.694 21.6505C55.6962 21.6279 54.6789 21.7106 53.7036 21.5438C52.7388 21.3784 51.9183 21.3423 51.2917 22.2171C51.2631 22.2577 51.2331 22.2968 51.2045 22.3374C52.1392 24.7302 51.3368 26.594 49 27.5319C48.8167 27.6056 48.6288 27.9032 48.6108 28.1121C48.465 29.758 47.6145 30.8552 46.0727 31.3873C45.6819 31.5226 45.6008 31.7045 45.5858 32.0772C45.5136 33.8598 44.316 35.4065 42.6043 35.883C42.0363 36.0408 41.4277 36.0498 40.786 36.134C40.4749 37.4988 39.7491 38.614 38.4102 39.2588C37.0788 39.8991 35.7578 39.7398 34.4565 39.1446C33.4812 41.0219 32.034 42.0696 29.9482 42.056C27.8714 42.041 26.4589 40.9332 25.5332 39.1717C22.2482 40.2899 20.6778 39.5204 19.1375 36.0934C15.9352 35.8679 14.6142 34.6264 14.3573 31.5466L14.3588 31.5451ZM18.6386 27.6191C20.9408 27.8085 22.2782 29.0966 22.8312 31.2701C24.6946 31.1243 26.0847 31.8457 26.9668 33.191C28.0292 32.934 29.0045 32.5116 29.9798 32.5131C30.9761 32.5131 31.9724 32.9309 33.0379 33.182C34.1289 31.739 34.8126 31.3993 37.1945 31.2205C37.7234 29.0515 39.1014 27.81 41.3841 27.6086C41.6636 25.8605 42.7035 24.8039 44.3956 24.35C44.3295 22.9386 44.902 21.8549 45.8097 21.1605C45.7496 20.1549 45.5738 19.2847 45.691 18.4565C45.7676 17.9139 45.6925 17.6117 45.3498 17.2285C43.7855 15.4849 42.7486 13.4633 42.2858 11.1576C42.1851 10.6526 42.0904 10.1475 42.0138 9.75374C33.9696 12.9147 26.0095 12.9102 17.9939 9.75374C17.9864 9.77929 17.9383 9.89503 17.9233 10.0153C17.5476 12.9027 16.3695 15.4098 14.3933 17.5501C14.2641 17.6899 14.2776 17.9815 14.2656 18.2055C14.2205 19.0081 14.1739 19.8107 14.1694 20.6149C14.1694 20.8584 14.225 21.1785 14.3828 21.3348C15.1026 22.0533 15.552 22.8695 15.6106 23.9021C15.6211 24.0975 15.7774 24.4086 15.9322 24.4552C17.5145 24.9392 18.323 26.0695 18.6401 27.6191H18.6386ZM30.8559 9.6846C32.3181 9.4907 34.6263 9.27126 36.8984 8.85491C38.4823 8.56482 40.0376 8.04776 41.321 6.9836C42.1851 6.26664 42.2151 5.69848 41.303 5.07771C40.529 4.55014 39.68 4.06315 38.7934 3.78358C33.1145 1.98892 27.3906 1.98291 21.6862 3.62876C20.5861 3.94591 19.5447 4.56517 18.571 5.19044C17.8151 5.67593 17.8286 6.27265 18.5274 6.8363C19.0999 7.29924 19.7506 7.70507 20.4269 7.99365C23.4834 9.30132 26.7399 9.51325 30.8559 9.6861V9.6846ZM29.9903 39.6601C31.2556 39.6692 32.3812 38.5599 32.3977 37.2868C32.4142 36.0152 31.3247 34.8924 30.0444 34.8594C28.7475 34.8263 27.5934 35.9656 27.601 37.2688C27.6085 38.5479 28.71 39.6496 29.9903 39.6601ZM23.3782 33.6629C22.4496 33.678 21.6125 34.5197 21.6035 35.4471C21.5945 36.412 22.4586 37.2718 23.4233 37.2583C24.3595 37.2447 25.189 36.4105 25.1966 35.4741C25.2041 34.5077 24.34 33.6464 23.3782 33.6629ZM38.3982 35.4741C38.4087 34.5588 37.5717 33.6915 36.649 33.6614C35.6887 33.6284 34.8111 34.4776 34.8021 35.4471C34.7931 36.3805 35.6076 37.2252 36.5483 37.2598C37.5055 37.2943 38.3861 36.4451 38.3982 35.4756V35.4741ZM41.4187 30.0586C40.4915 30.0436 39.6409 30.8552 39.6019 31.7931C39.5628 32.734 40.4239 33.6374 41.3721 33.6539C42.3353 33.6705 43.1964 32.8212 43.1949 31.8517C43.1949 30.9845 42.2903 30.0736 41.4172 30.0586H41.4187ZM20.3968 31.8202C20.3728 30.8522 19.4816 30.0105 18.5319 30.0586C17.6603 30.1022 16.7752 31.0461 16.8022 31.9014C16.8308 32.8378 17.6708 33.6554 18.6025 33.6554C19.5478 33.6554 20.4223 32.7611 20.3983 31.8202H20.3968ZM13.1942 24.0569C13.1972 23.4451 12.6126 22.8589 11.9995 22.8559C11.3818 22.8544 10.8033 23.4286 10.8003 24.0479C10.7973 24.6596 11.3818 25.2473 11.9935 25.2503C12.6066 25.2533 13.1912 24.6716 13.1927 24.0569H13.1942ZM49.1969 24.0193C49.1743 23.4045 48.5717 22.8349 47.9646 22.8574C47.341 22.88 46.782 23.4722 46.8045 24.0884C46.8255 24.7047 47.4281 25.2729 48.0352 25.2518C48.6544 25.2293 49.2179 24.631 49.1969 24.0193ZM15.026 26.7609C14.4024 26.7413 13.8133 27.3095 13.8043 27.9393C13.7953 28.56 14.3813 29.1583 14.9929 29.1538C15.5024 29.1492 16.1711 28.5059 16.1951 27.9964C16.2237 27.3862 15.6511 26.7804 15.026 26.7624V26.7609ZM45.0433 29.1523C45.6579 29.1327 46.2305 28.5135 46.1974 27.9017C46.1643 27.2794 45.5482 26.7233 44.9366 26.7609C44.3385 26.7985 43.802 27.3636 43.8065 27.9543C43.811 28.5029 44.4993 29.1688 45.0433 29.1523ZM9.6026 19.223C9.60861 19.8152 10.2202 20.439 10.7973 20.4405C11.3849 20.442 12.0055 19.8062 11.9844 19.223C11.9619 18.6248 11.3308 18.0266 10.7507 18.0536C10.1601 18.0807 9.59659 18.6549 9.6026 19.2215V19.223ZM49.2059 18.0536C48.6213 18.0506 48.0067 18.6759 48.0127 19.2636C48.0202 19.8197 48.6048 20.418 49.1668 20.442C49.7333 20.4661 50.3675 19.8558 50.3961 19.2576C50.4231 18.6699 49.8175 18.0582 49.2059 18.0551V18.0536Z" fill="#FF008C"/>
</g>
<defs>
<clipPath id="clip0_581_1717">
<rect width="60" height="69.6774" fill="white"/>
</clipPath>
</defs>
</svg>
