<svg width="36" height="74" viewBox="0 0 36 74" fill="none" xmlns="http://www.w3.org/2000/svg">
<g clip-path="url(#clip0_581_454)">
<path d="M0 57.6562C0 56.2149 0 54.7736 0 53.3322C0.0950552 53.1239 0.239078 52.927 0.279405 52.7071C1.46327 46.2848 5.01776 41.6974 10.9083 39.0492C12.6596 38.262 14.6097 37.9176 16.5223 37.3561V35.689C14.5348 35.689 12.6395 35.689 10.7412 35.689C6.78061 35.689 6.2362 35.1681 6.02304 31.1943C6.01728 31.1132 5.94815 31.0322 5.84158 30.8267C5.34038 30.8267 4.77869 30.8354 4.217 30.8267C2.03649 30.792 0.93903 29.7761 0.930389 27.5678C0.898704 19.4495 0.895823 11.3312 0.930389 3.21575C0.944791 1.00167 2.03361 0.00605033 4.24004 0.00605033C13.1435 0.000261869 22.047 0.000261869 30.9506 0.00605033C33.1512 0.00605033 34.1968 1.02192 34.2429 3.22733C34.2804 4.90888 34.2516 6.59042 34.2516 8.27197C34.2516 14.564 34.2573 20.8561 34.2516 27.1481C34.2487 29.8311 33.2837 30.8093 30.6596 30.8267C30.1584 30.8296 29.6601 30.8267 29.1762 30.8267C28.8853 35.278 28.4388 35.689 24.1354 35.689C22.5799 35.689 21.0216 35.689 19.4518 35.689V37.4748C19.8147 37.5703 20.1258 37.686 20.4484 37.7352C27.9491 38.8524 33.7993 44.2733 35.5391 51.7259C37.2012 58.8515 34.2717 66.3013 28.1623 70.6426C25.7744 72.3387 23.0552 73.1085 20.29 73.8002H15.4306C15.2261 73.7047 15.0302 73.5629 14.8142 73.5166C8.0048 72.0926 3.3903 68.0783 0.99952 61.5055C0.550168 60.2668 0.328373 58.9413 0 57.6562ZM17.9971 71.0218C26.457 71.0276 33.2232 64.2059 33.229 55.6621C33.2348 47.1125 26.4887 40.3053 18.0086 40.3024C9.52857 40.3024 2.77965 47.101 2.77676 55.6505C2.77676 64.203 9.51993 71.016 17.9942 71.0218H17.9971ZM22.4705 28.0135V2.80477H12.6913V28.0135H22.4705ZM3.7734 2.80188V27.9527H9.79645V2.80188H3.7734ZM31.3884 27.9817V2.82503H25.4172V27.9817H31.3884ZM8.90639 32.7745H26.2554V30.9425H8.90639V32.7745Z" fill="#FF008C"/>
<path d="M22.5393 64.5963C21.583 64.0956 20.3761 63.537 19.2498 62.8453C18.3799 62.3128 17.6569 62.2636 16.7813 62.8337C15.8682 63.43 14.8831 63.9364 13.8835 64.3764C12.5384 64.9697 11.5849 64.2027 11.7923 62.7411C11.9479 61.65 12.0458 60.5328 12.3742 59.4938C12.6997 58.4663 12.2993 57.8875 11.608 57.2739C10.8216 56.5764 10.0295 55.8644 9.38138 55.0483C9.04437 54.6228 8.79089 53.8964 8.91475 53.413C9.01556 53.0165 9.68671 52.6287 10.1735 52.5013C11.2278 52.2264 12.3195 52.0296 13.4054 51.9775C14.3502 51.9312 14.86 51.5607 15.2028 50.6895C15.5859 49.7142 16.0352 48.7417 16.6142 47.8735C16.9426 47.3785 17.5619 46.8344 18.0861 46.7968C18.5067 46.765 19.0597 47.3988 19.4083 47.8532C19.7798 48.3365 20.0823 48.9241 20.2378 49.5145C20.7563 51.5028 22.0986 52.1974 23.9997 52.2061C24.6593 52.209 25.3219 52.3537 25.9728 52.4898C27.3353 52.7763 27.7069 53.8674 26.7822 54.9354C26.2206 55.5837 25.6358 56.2552 24.9445 56.7385C23.5677 57.7023 23.3459 58.9294 23.7722 60.4489C23.9911 61.2303 24.1409 62.0407 24.2129 62.8482C24.3022 63.8265 23.9623 64.5558 22.5364 64.5963H22.5393ZM20.981 60.611C19.9613 58.0467 21.0098 56.3333 22.8533 54.8023C20.2465 54.9701 18.7947 53.7227 17.9536 51.2626C17.3315 53.9253 15.583 54.8196 13.0885 54.892C15.3411 56.313 15.7501 58.2406 14.9724 60.6631C16.9887 59.1986 18.8955 58.9497 20.9781 60.6139L20.981 60.611Z" fill="#FF008C"/>
</g>
<defs>
<clipPath id="clip0_581_454">
<rect width="36" height="73.8" fill="white"/>
</clipPath>
</defs>
</svg>
