<svg width="65" height="65" viewBox="0 0 65 65" fill="none" xmlns="http://www.w3.org/2000/svg">
<g clip-path="url(#clip0_581_1066)">
<path d="M32.7708 65.5148C32.3651 64.6652 31.7631 63.8516 31.5832 62.9563C29.5318 52.6801 24.8565 43.9494 16.5953 37.3066C15.5254 36.4473 15.0052 35.4899 15.8264 34.245C16.5364 33.17 17.6717 33.2092 19.0687 34.2972C24.0287 38.1594 27.7978 42.9953 30.7031 48.5337C30.9027 48.916 31.0891 49.3081 31.3051 49.6805C31.3443 49.7492 31.485 49.7557 31.737 49.8537C31.737 46.8378 31.737 43.8873 31.737 40.9335C31.737 38.5482 31.7271 36.1662 31.7631 33.781C31.7795 32.706 32.3913 32.0623 33.4644 31.961C34.6259 31.8532 35.3195 32.4773 35.5584 33.5621C35.6729 34.0816 35.6303 34.6403 35.6303 35.1795C35.6336 39.9925 35.6303 44.8055 35.9084 49.7296C36.1767 49.2492 36.4581 48.7755 36.7166 48.2886C39.5892 42.8548 43.3288 38.1333 48.1874 34.3299C49.5877 33.232 50.6346 33.2026 51.4493 34.2025C52.2803 35.2219 52.0284 36.2087 50.6215 37.3491C42.2851 44.0997 37.6228 52.948 35.6238 63.355C35.4766 64.1261 34.819 64.7992 34.3969 65.518H32.7676L32.7708 65.5148Z" fill="#FF008C"/>
<path d="M53.6535 7.47939C53.6927 8.69489 52.5771 9.89079 51.3371 9.95941C50.0971 10.0313 48.9323 8.96936 48.8505 7.69504C48.7655 6.31616 49.8157 5.19542 51.2029 5.18562C52.5084 5.17581 53.6077 6.20834 53.6502 7.47939H53.6535Z" fill="#FF008C"/>
<path d="M25.2381 30.5412C26.5337 30.5772 27.6166 31.6718 27.5937 32.9298C27.5708 34.142 26.3897 35.315 25.1792 35.3248C23.8509 35.3379 22.7483 34.1649 22.8006 32.7958C22.8497 31.4823 23.9065 30.5053 25.2413 30.5412H25.2381Z" fill="#FF008C"/>
<path d="M9.3538 40.2064C9.308 41.4578 8.15634 42.5524 6.90325 42.5361C5.55529 42.523 4.49197 41.3598 4.57049 39.9809C4.64247 38.6935 5.78104 37.6577 7.04721 37.7296C8.30357 37.7982 9.3996 38.9778 9.3538 40.2064Z" fill="#FF008C"/>
<path d="M60.7524 41.2061C60.7361 42.4903 59.6695 43.5261 58.3542 43.5359C56.9474 43.5457 55.9299 42.4837 55.9888 41.0656C56.0411 39.775 57.1568 38.7065 58.4099 38.7555C59.64 38.8013 60.7688 39.9841 60.7557 41.2061H60.7524Z" fill="#FF008C"/>
<path d="M8.9284 7.09373C8.89241 8.41706 7.83236 9.42018 6.49094 9.39404C5.15933 9.3679 4.17453 8.33211 4.2007 6.9761C4.22688 5.67238 5.33928 4.58104 6.60218 4.62351C7.86507 4.66599 8.95784 5.82921 8.92512 7.09373H8.9284Z" fill="#FF008C"/>
<path d="M63.2136 14.0992C62.376 14.7461 61.9049 15.3898 61.4665 15.367C61.0313 15.3441 60.3344 14.6743 60.3017 14.2462C60.2723 13.8541 60.9364 13.1385 61.3749 13.0667C61.8002 12.998 62.3302 13.5699 63.2136 14.0992Z" fill="#FF008C"/>
<path d="M39.3822 29.9662C38.4955 30.5609 37.9982 31.1588 37.5827 31.1065C37.1279 31.0477 36.3983 30.3714 36.4245 30.0021C36.454 29.5545 37.0985 28.8847 37.5598 28.8062C37.9655 28.7376 38.4857 29.3584 39.3855 29.9662H39.3822Z" fill="#FF008C"/>
<path d="M17.3822 6.93039C16.5381 7.53487 16.0539 8.15243 15.6057 8.12955C15.1673 8.10668 14.7616 7.43031 14.3428 7.03822C14.7354 6.62651 15.0953 5.93381 15.5337 5.87826C15.9787 5.82271 16.5021 6.39452 17.3855 6.93039H17.3822Z" fill="#FF008C"/>
<path d="M21.341 17.2555C20.9124 16.7001 19.8033 16.406 19.0148 16.4517C17.7945 16.5236 16.5643 16.883 15.3995 17.298C14.2871 17.6934 13.6131 17.4908 13.0177 16.4485C12.3502 15.2787 11.6206 14.1089 10.7144 13.1222C10.2531 12.6222 9.21918 12.1583 8.67934 12.3478C8.04462 12.57 7.40008 13.4554 7.23322 14.1645C6.92568 15.4649 6.8766 16.8471 6.88641 18.1933C6.89296 19.252 6.50035 19.6408 5.48937 19.9512C3.61793 20.5295 1.82173 21.3595 -0.00390625 22.0849V23.7121C0.591554 24.1466 1.14121 24.6792 1.79556 24.9995C2.90796 25.5451 4.06943 26.0026 5.24072 26.4175C6.08811 26.7182 6.40874 27.1756 6.3204 28.1003C6.19607 29.4432 6.08156 30.8221 6.25824 32.1454C6.36293 32.9296 6.88314 34.0471 7.49169 34.2726C8.10678 34.5013 9.26171 34.021 9.831 33.4851C11.0808 32.3088 12.1081 30.9005 13.2533 29.5609C14.9448 30.1686 16.5348 30.8842 18.2001 31.2796C18.9559 31.4593 20.1894 31.2698 20.6049 30.7568C21.0139 30.2568 20.9223 29.0119 20.5885 28.3127C19.8524 26.7672 18.8251 25.3556 17.8893 23.846C19.005 22.4018 20.1959 21.0556 21.1349 19.5493C21.5177 18.9383 21.6977 17.7195 21.341 17.2588V17.2555ZM13.9403 25.2837C12.9359 25.5255 11.7319 25.8131 10.59 26.0843C10.0927 25.3131 9.4024 24.2447 8.77749 23.2775C9.38604 22.5848 10.2236 21.6372 10.9859 20.7713C11.8693 21.1471 12.9784 21.6241 13.9403 22.0326V25.2837Z" fill="#FF008C"/>
<path d="M45.7189 9.74374C45.3295 9.10658 44.3382 8.58705 43.5562 8.48576C41.7895 8.26031 39.9868 8.26031 38.2004 8.29298C37.0029 8.31585 36.3551 7.9793 36.0312 6.72459C35.5862 5.0059 34.9941 3.30354 34.2416 1.6992C33.9078 0.993429 33.0997 0.248443 32.3668 0.0523946C31.2446 -0.244946 30.6655 0.712426 30.322 1.70247C29.7036 3.48652 29.0231 5.25422 28.48 7.06441C28.2117 7.95643 27.7569 8.2505 26.8605 8.25377C24.9628 8.25704 23.0685 8.38447 21.1709 8.40408C20.1108 8.41388 19.2176 8.623 18.8676 9.76335C18.5208 10.8906 19.1326 11.6062 19.9636 12.2303C21.7762 13.5928 23.5756 14.9652 25.3882 16.3408C24.7109 18.6084 24.1056 20.7911 23.3989 22.9378C23.0554 23.9834 23.0914 24.8656 23.9977 25.5518C24.9465 26.2674 25.8168 25.8916 26.674 25.2871C28.4865 24.0063 30.3187 22.7549 32.3079 21.3792C34.2285 22.7156 36.0966 24.003 37.9485 25.31C38.8024 25.9145 39.833 26.4177 40.5626 25.5191C41.073 24.8918 41.3053 23.7482 41.1515 22.9313C40.8145 21.1374 40.2354 19.373 39.5941 17.6576C39.2081 16.6251 39.5058 16.0794 40.3237 15.501C41.8288 14.4424 43.2683 13.289 44.7504 12.1976C45.6142 11.5637 46.298 10.6946 45.7189 9.74374ZM35.9003 19.043C33.4073 16.5401 31.1432 16.6708 28.7385 19.0332C30.1944 16.0565 29.756 13.8346 26.5726 12.2662C29.9457 12.691 31.8401 11.4232 32.3047 8.03158C32.8969 11.2206 34.4738 12.789 37.9517 12.2597C35.03 13.8967 34.3037 16.0336 35.9003 19.043Z" fill="#FF008C"/>
<path d="M63.5599 21.1505C62.2479 20.5493 60.8051 20.2094 59.3884 19.8696C58.5606 19.6703 58.2433 19.3043 58.2269 18.4417C58.2007 16.9844 58.1549 15.5043 57.8637 14.0862C57.7263 13.4196 57.0982 12.5439 56.5092 12.3642C55.9236 12.1845 54.9813 12.5995 54.4251 13.0439C53.8199 13.5274 53.473 14.3378 53.0183 15.0109C51.8361 16.7579 50.2384 17.3918 48.2251 16.9126C47.5937 16.7622 46.9426 16.674 46.3341 16.4616C45.3002 16.0989 44.3906 16.1872 43.7232 17.1021C42.974 18.1346 43.4484 19.0168 44.1387 19.8794C45.153 21.1439 46.128 22.4411 47.2011 23.8331C46.2719 25.3427 45.4114 26.7771 44.5052 28.1854C43.9293 29.0839 43.5662 30.1197 44.479 30.8059C45.0875 31.2633 46.1672 31.394 46.9524 31.2437C48.2088 31.0052 49.4128 30.4465 50.6103 29.9563C51.4544 29.61 52.0564 29.6067 52.6551 30.4563C53.3978 31.5149 54.3368 32.4331 55.1449 33.446C55.8222 34.2988 56.7481 34.8772 57.6544 34.2857C58.2793 33.8773 58.7406 32.8709 58.8387 32.0769C59.0023 30.7503 58.7242 29.3747 58.8256 28.0318C58.8682 27.4927 59.3099 26.7673 59.7777 26.5189C61.0603 25.8393 62.5162 25.4799 63.7725 24.7643C64.3647 24.4278 65.0485 23.5292 64.9896 22.9541C64.9209 22.2908 64.2044 21.4413 63.5533 21.1407L63.5599 21.1505ZM54.4153 26.1007C53.5189 25.8687 52.3214 25.5583 51.1566 25.2544V21.9804C52.0466 21.621 53.1949 21.157 54.1307 20.7812C54.857 21.6177 55.6684 22.5522 56.362 23.3495C55.8025 24.137 55.0533 25.1989 54.4153 26.1007Z" fill="#FF008C"/>
</g>
<defs>
<clipPath id="clip0_581_1066">
<rect width="65" height="65" fill="white"/>
</clipPath>
</defs>
</svg>
