<svg width="17" height="17" viewBox="0 0 17 17" fill="none" xmlns="http://www.w3.org/2000/svg">
<path d="M15.4809 10.4215C14.8255 9.95246 14.0761 9.72161 13.284 9.75214C12.3271 9.78879 11.4667 10.1308 10.7808 10.8319C10.6697 10.9455 10.5721 10.9565 10.4329 10.8869C9.41262 10.3714 8.38985 9.86085 7.36709 9.35151C7.2548 9.29532 7.20843 9.23425 7.22795 9.09256C7.28287 8.69925 7.2841 8.30227 7.22795 7.90897C7.2072 7.76606 7.25846 7.70987 7.37197 7.65246C8.38619 7.148 9.40041 6.64354 10.411 6.13175C10.5733 6.04991 10.6758 6.07556 10.8064 6.20259C11.8878 7.25671 13.1558 7.52298 14.5826 7.06372C16.5891 6.41757 17.5361 4.08092 16.6903 2.17789C16.1216 0.900247 15.1098 0.166151 13.6916 0.0183551C12.2783 -0.129441 10.8467 0.62664 10.1705 1.87741C9.78364 2.59319 9.68478 3.34927 9.74703 4.14199C9.75801 4.28124 9.78364 4.40705 9.60667 4.49377C8.58879 4.99091 7.57701 5.50025 6.56523 6.00838C6.41755 6.08289 6.31015 6.06945 6.1942 5.93998C5.78046 5.47338 5.26054 5.17901 4.65884 5.01656C3.39564 4.67577 2.24595 4.88952 1.24759 5.7421C0.507979 6.37482 0.0917946 7.1993 0.0149043 8.17158C-0.102262 9.64588 0.472585 10.8148 1.69673 11.6161C3.00509 12.4735 5.00057 12.2806 6.12342 11.1214C6.29306 10.9455 6.42976 10.9199 6.64822 11.0347C7.46351 11.4622 8.28001 11.8897 9.1136 12.2806C9.57372 12.4955 9.96671 12.6971 9.7275 13.2211C9.70675 14.4291 10.2071 15.5028 11.0627 16.2112C11.6632 16.7083 12.3503 16.9465 13.1229 16.9917C14.225 17.0565 15.1965 16.745 15.9581 15.9413C17.5337 14.2764 17.2774 11.7053 15.4809 10.4203V10.4215ZM13.3975 1.82C14.5118 1.85543 15.1879 2.71411 15.1721 3.66685C15.155 4.67577 14.3019 5.49415 13.3352 5.47582C12.3503 5.45628 11.5192 4.58172 11.5436 3.58989C11.568 2.57731 12.3906 1.78702 13.3975 1.82ZM3.62143 10.3323C2.59256 10.2981 1.80779 9.57137 1.81023 8.54657C1.81389 7.44726 2.53642 6.72049 3.61533 6.70339C4.67104 6.68629 5.43629 7.47413 5.44117 8.55756C5.43873 9.51762 4.59415 10.3641 3.62143 10.3311V10.3323ZM13.3633 15.1998C12.3613 15.1937 11.5472 14.379 11.5424 13.3786C11.5387 12.3722 12.3369 11.5733 13.3548 11.566C14.3568 11.5587 15.1818 12.3746 15.1794 13.3725C15.1782 14.3656 14.3421 15.2059 13.3621 15.1998H13.3633Z" fill="white"/>
</svg>
