<svg width="62" height="64" viewBox="0 0 62 64" fill="none" xmlns="http://www.w3.org/2000/svg">
<g clip-path="url(#clip0_581_1494)">
<path d="M36.8442 63.2159C35.0351 61.4847 33.2097 59.7703 31.4236 58.0125C29.6704 56.2847 27.95 54.527 26.246 52.7526C25.2577 51.7239 25.2315 50.592 26.1803 49.5167C27.0307 48.5513 28.3768 48.4947 29.3749 49.4868C32.5924 52.686 35.7902 55.9085 38.9257 59.191C40.1503 60.4727 39.7005 61.8776 37.8258 63.2192H36.8474L36.8442 63.2159Z" fill="#FF008C"/>
<path d="M23.7808 63.2159C21.7387 61.4548 21.7026 60.5426 23.6068 58.5652C24.096 58.0558 24.559 57.5065 25.0941 57.0504C26.1185 56.1815 27.2184 56.2015 28.1475 57.1436C29.0734 58.0824 29.1587 59.2443 28.2559 60.233C27.2775 61.3016 26.148 62.2271 25.0843 63.2159H23.7776H23.7808Z" fill="#FF008C"/>
<path d="M42.6881 33.384C43.522 33.9233 44.1786 34.203 44.6514 34.6757C47.6752 37.6852 50.6728 40.7246 53.6507 43.784C54.7834 44.9492 54.8162 46.3308 53.8345 47.2829C52.8463 48.2383 51.6807 48.205 50.5283 47.0532C47.4323 43.9605 44.3198 40.8778 41.3485 37.6652C40.8166 37.0926 40.6196 35.8409 40.8199 35.0452C40.9808 34.4061 41.9723 33.9833 42.6913 33.384H42.6881Z" fill="#FF008C"/>
<path d="M29.1456 43.5275C28.6302 44.3432 28.3445 45.0156 27.8717 45.4983C24.8742 48.5478 21.8504 51.5639 18.8068 54.5634C17.5789 55.7752 16.328 55.8185 15.3693 54.7831C14.4303 53.7678 14.4993 52.6059 15.6418 51.4374C18.6689 48.3414 21.7256 45.2786 24.7494 42.1793C25.5735 41.337 26.5618 40.9642 27.5369 41.5567C28.1968 41.9562 28.5875 42.8118 29.1456 43.5275Z" fill="#FF008C"/>
<path d="M21.578 27.3084C21.0429 27.9509 20.616 28.9163 19.9693 29.1094C19.2469 29.3225 18.0716 29.1094 17.5233 28.6067C15.0346 26.313 12.7002 23.8495 10.3101 21.4459C9.53852 20.6702 8.73413 19.9245 8.00855 19.1089C7.12865 18.1202 7.05642 17.0116 7.91662 15.9763C8.74398 14.9809 10.0408 14.9376 11.0849 15.9629C14.2795 19.1056 17.4313 22.2948 20.5635 25.5007C20.9575 25.9035 21.1414 26.5161 21.5747 27.3084H21.578Z" fill="#FF008C"/>
<path d="M47.2847 9.72423C46.7725 10.5365 46.5131 11.1491 46.083 11.6018C43.1478 14.6945 40.1897 17.7673 37.2085 20.8167C35.974 22.0817 34.6575 22.1516 33.6528 21.1063C32.6514 20.0643 32.7204 18.8991 33.9384 17.6507C36.9557 14.5614 39.95 11.4454 43.0723 8.46917C43.6469 7.9232 44.8617 7.69017 45.6529 7.8766C46.28 8.0264 46.7101 9.03511 47.2814 9.72423H47.2847Z" fill="#FF008C"/>
<path d="M50.095 37.2657C49.4647 36.7464 48.4666 36.3269 48.2827 35.6744C48.0627 34.8854 48.2466 33.6304 48.7653 33.0444C50.906 30.6375 53.2371 28.4037 55.5025 26.11C56.3857 25.2145 57.2459 24.2957 58.1619 23.4401C59.1436 22.5246 60.2566 22.4713 61.2284 23.3802C62.2101 24.3023 62.2626 25.4841 61.3302 26.4629C58.1258 29.8252 54.8721 33.1377 51.6086 36.4401C51.2868 36.7663 50.778 36.9028 50.095 37.269V37.2657Z" fill="#FF008C"/>
<path d="M1.86854 40.5649C1.30054 40.1154 0.430493 39.7492 0.17112 39.1234C-0.0948197 38.4842 -0.0587044 37.299 0.361546 36.8529C3.62505 33.3774 6.98048 29.9884 10.3819 26.6527C11.2979 25.7538 12.4339 25.9935 13.2974 26.909C14.1608 27.8245 14.3184 28.9697 13.4287 29.8852C10.1488 33.2675 6.79991 36.5833 3.44447 39.8924C3.126 40.2053 2.57114 40.2752 1.86854 40.5615V40.5649Z" fill="#FF008C"/>
<path d="M36.4371 12.241C35.9972 12.7969 35.6229 13.7058 35.0122 13.9188C34.3162 14.1619 33.1211 14.0953 32.6385 13.6325C29.2896 10.4166 26.0425 7.08758 22.8217 3.73188C21.9451 2.81638 22.0304 1.68117 22.9136 0.769007C23.7935 -0.139829 24.9262 -0.269663 25.8324 0.61587C29.1911 3.90499 32.4842 7.26402 35.7674 10.6297C36.076 10.946 36.1449 11.5086 36.4371 12.2376V12.241Z" fill="#FF008C"/>
<path d="M20.0512 22.0484C19.4766 21.549 18.6131 21.1229 18.3242 20.4438C18.0583 19.8213 18.1305 18.6627 18.5508 18.1967C20.6323 15.8763 22.8419 13.6658 25.0843 11.5019C26.0627 10.5598 27.2316 10.7129 28.1377 11.685C28.9815 12.5938 29.0866 13.7823 28.2461 14.6878C26.1251 16.9749 23.8991 19.1621 21.6731 21.346C21.3546 21.6589 20.8096 21.7321 20.0512 22.0484Z" fill="#FF008C"/>
<path d="M27.7168 18.2133C28.5179 18.6827 29.1483 18.9091 29.5882 19.3418C31.5778 21.2893 33.5346 23.2768 35.4652 25.2876C36.5782 26.4461 36.5946 27.8509 35.5998 28.7864C34.6444 29.6853 33.3639 29.6287 32.2673 28.5434C30.2875 26.5826 28.2684 24.6517 26.4429 22.5477C25.9176 21.9418 25.7108 20.7134 25.9045 19.9045C26.0621 19.252 27.0405 18.8025 27.7168 18.21V18.2133Z" fill="#FF008C"/>
<path d="M27.7372 33.4307C28.558 33.95 29.2179 34.2263 29.6973 34.6924C31.6541 36.6033 33.5715 38.5541 35.4659 40.5249C36.5329 41.6335 36.5953 43.025 35.7056 43.9106C34.7731 44.8361 33.4172 44.8394 32.3436 43.7874C30.3145 41.7966 28.2691 39.8125 26.3944 37.6786C25.8921 37.106 25.6754 35.9108 25.8855 35.1585C26.0694 34.496 27.0281 34.0532 27.7372 33.434V33.4307Z" fill="#FF008C"/>
<path d="M20.0644 37.1925C19.5391 36.7564 18.6658 36.3502 18.3473 35.6744C18.0617 35.0619 18.0814 33.8801 18.4852 33.4273C20.639 31.0304 22.8847 28.7 25.2781 26.5528C25.7673 26.1167 27.1922 26.2765 27.8948 26.6826C28.87 27.2452 29.1162 28.6002 28.3611 29.4391C26.0989 31.9592 23.6694 34.3195 21.2825 36.7198C21.0756 36.9262 20.6948 36.9561 20.0611 37.1925H20.0644Z" fill="#FF008C"/>
<path d="M35.0284 37.189C34.4834 36.7529 33.633 36.3834 33.3408 35.7475C33.0519 35.1184 33.0059 33.9299 33.3999 33.4938C35.5931 31.0569 37.8782 28.6899 40.3143 26.5094C40.7838 26.0899 42.2317 26.3096 42.9179 26.7424C43.8635 27.3383 44.0867 28.65 43.2988 29.5189C41.0563 31.9857 38.676 34.3227 36.322 36.6797C36.079 36.9227 35.6391 36.9593 35.0317 37.1924L35.0284 37.189Z" fill="#FF008C"/>
<path d="M32.6654 50.0426C33.1382 49.2369 33.3713 48.5977 33.7981 48.1516C35.7253 46.1276 37.692 44.1401 39.6783 42.1726C40.7683 41.094 42.1046 41.0408 43.0009 41.9563C43.9432 42.915 43.9333 44.23 42.8729 45.3319C40.8997 47.386 38.9429 49.47 36.8351 51.3775C36.2802 51.8802 35.1114 52.0866 34.3825 51.8702C33.7127 51.6705 33.2629 50.7217 32.6621 50.0426H32.6654Z" fill="#FF008C"/>
<path d="M12.7751 33.3906C13.5762 33.8767 14.1968 34.1097 14.6302 34.5358C16.6165 36.4833 18.57 38.4708 20.5038 40.4782C21.6398 41.66 21.6989 42.8285 20.7632 43.8306C19.7946 44.8659 18.4846 44.8559 17.3191 43.7074C15.2999 41.71 13.2545 39.7358 11.3864 37.5986C10.8939 37.036 10.7231 35.8308 10.9431 35.0818C11.1368 34.4226 12.0824 33.9932 12.7751 33.394V33.3906Z" fill="#FF008C"/>
<path d="M42.6821 18.29C43.4635 18.7827 44.0807 19.0391 44.5272 19.4752C46.4807 21.3894 48.3948 23.3436 50.2991 25.3077C51.4187 26.4662 51.5106 27.6913 50.6209 28.6568C49.6687 29.6888 48.339 29.6788 47.1801 28.5336C45.1576 26.5328 43.1056 24.5553 41.2342 22.4181C40.7483 21.8655 40.5841 20.6503 40.8238 19.9279C41.0438 19.2655 42.0024 18.8527 42.6854 18.2934L42.6821 18.29Z" fill="#FF008C"/>
<path d="M9.128 47.9619C8.78326 47.6955 7.87382 47.3427 7.63414 46.7234C7.36492 46.031 7.44372 44.9357 7.83114 44.3065C8.44181 43.3078 9.32828 42.3823 10.3034 41.7498C10.9108 41.357 12.0599 41.2471 12.6607 41.58C13.2714 41.9163 13.777 42.9283 13.846 43.6873C13.9642 44.989 10.8484 47.9019 9.12472 47.9619H9.128Z" fill="#FF008C"/>
<path d="M57.2592 33.657C59.1372 33.7102 62.0823 36.51 61.9115 37.8383C61.8098 38.6506 61.2713 39.6826 60.6147 40.0621C60.0631 40.3817 58.9205 40.1187 58.2902 39.7126C57.4004 39.1366 56.5796 38.2877 56.0412 37.3689C55.6603 36.7197 55.5126 35.6444 55.7785 34.9686C56.0379 34.3062 56.9539 33.9067 57.2592 33.657Z" fill="#FF008C"/>
<path d="M42.2515 48.914C44.1821 48.894 47.0877 51.6971 46.9334 53.1452C46.8579 53.861 46.3884 54.7898 45.8138 55.116C45.2458 55.4389 44.1427 55.4057 43.5977 55.0361C42.5799 54.3537 41.654 53.4082 40.9711 52.3795C40.6001 51.8236 40.5607 50.7549 40.8332 50.1291C41.1057 49.5032 41.9626 49.1404 42.2483 48.9106L42.2515 48.914Z" fill="#FF008C"/>
<path d="M35.2063 6.62163C33.4695 6.57836 32.4024 4.65415 33.4366 3.21267C34.1885 2.16401 35.1308 1.20191 36.1551 0.422908C37.5078 -0.609104 39.3628 0.376301 39.4777 2.06747C39.5828 3.58219 36.6968 6.66158 35.2096 6.62163H35.2063Z" fill="#FF008C"/>
<path d="M49.6224 21.7889C49.3237 21.5292 48.4799 21.133 48.2304 20.4972C47.9808 19.8547 48.0761 18.8127 48.4536 18.2334C49.0971 17.248 49.9803 16.3392 50.9521 15.6867C51.5136 15.3105 52.5543 15.2439 53.1749 15.5136C53.7363 15.7599 54.2583 16.6122 54.3798 17.2746C54.6392 18.7028 51.5267 21.8621 49.6192 21.7822L49.6224 21.7889Z" fill="#FF008C"/>
<path d="M19.5614 14.2486C17.7557 14.2386 14.6497 11.319 14.7876 10.0173C14.8632 9.30492 15.3688 8.33283 15.9433 8.06318C16.5803 7.76356 17.6703 7.88674 18.2974 8.27291C19.243 8.8555 20.1196 9.72105 20.7138 10.6665C21.1111 11.2957 21.2326 12.3776 20.9798 13.0701C20.7565 13.6793 19.8438 14.0322 19.5581 14.2486H19.5614Z" fill="#FF008C"/>
<path d="M1.68429 22.8142C3.4211 22.8641 6.49418 25.8004 6.38255 27.0987C6.32674 27.7645 5.89007 28.6534 5.35819 28.953C4.75737 29.2892 3.64765 29.3924 3.13218 29.0362C2.03231 28.2839 1.03093 27.2685 0.279079 26.1599C-0.082073 25.6273 -0.0164089 24.532 0.279079 23.8895C0.541736 23.3202 1.38552 23.0273 1.68429 22.8142Z" fill="#FF008C"/>
</g>
<defs>
<clipPath id="clip0_581_1494">
<rect width="62" height="63.2157" fill="white"/>
</clipPath>
</defs>
</svg>
