<svg width="264" height="90" viewBox="0 0 264 90" fill="none" xmlns="http://www.w3.org/2000/svg">
<path d="M87.7572 50.3601C87.7572 50.3601 69.1235 32.945 48.0239 32.5008C48.0239 32.5008 57.2573 37.5162 62.5044 42.4206C70.718 50.1195 87.7572 50.3601 87.7572 50.3601Z" fill="#3BB54A" stroke="#010101" stroke-width="0.443486" stroke-miterlimit="10"/>
<path d="M124.042 58.1701C124.042 58.1701 105.408 75.3631 84.3086 75.7887C84.3086 75.7887 93.542 70.8474 98.7891 65.9985C107.003 58.4107 124.042 58.1701 124.042 58.1701Z" fill="#3BB54A" stroke="#010101" stroke-width="0.443486" stroke-miterlimit="10"/>
<path d="M115.939 54.117C106.669 50.8598 92.3924 47.7506 76.9849 51.4335C59.5194 55.6161 47.2823 56.3934 38.7535 55.6161C35.342 52.1553 33.6733 48.1208 33.8031 43.5865C34.1554 31.3164 47.4307 19.2683 47.5605 19.1573L46.3924 17.8618C46.2441 17.9913 42.8696 21.045 39.3839 25.7087C34.6745 32.0381 32.2086 38.0344 32.0417 43.5125C31.9119 47.8802 33.2839 51.8407 36.1207 55.3015C28.7785 54.2651 24.6068 52.0257 22.2892 50.101C19.0074 47.3805 17.4685 43.8456 17.691 39.6075L15.9482 39.515C15.7071 44.2713 17.5056 48.3984 21.1767 51.4335C30.2988 59.0029 50.2489 59.5951 77.3558 53.0991C81.2864 52.1553 85.1244 51.6741 88.8697 51.526C88.8326 56.3749 87.1454 60.4279 83.8451 63.5371C74.9084 71.9578 56.9793 71.1065 56.8124 71.088L56.7197 72.8276C56.7197 72.8276 57.4242 72.8646 58.4996 72.8646C60.3722 72.8646 63.5613 72.7536 67.2324 72.2169C75.0567 71.0695 81.0454 68.571 85.0317 64.7956C88.7028 61.3348 90.5754 56.8561 90.594 51.489C113.381 51.2299 131.291 63.4075 131.514 63.5556L132.497 62.1306C132.237 61.9455 125.933 57.6149 115.884 54.08L115.939 54.117Z" fill="#3BB54A" stroke="#010101" stroke-width="0.443486" stroke-miterlimit="10"/>
<path d="M23.9765 28.8734C24.1805 22.5811 17.9878 12.8464 17.9878 12.8464C17.9878 12.8464 11.2018 22.1739 10.9979 28.4663C10.7939 34.7587 13.5009 41.3287 17.0793 41.4397C20.6577 41.5508 23.7726 35.1658 23.958 28.8734H23.9765Z" fill="#FFCC04" stroke="#010101" stroke-width="0.390268" stroke-miterlimit="10"/>
<path d="M17.0791 41.4397C17.0791 41.4397 5.39826 40.94 4.08185 30.0579C2.93231 20.6008 1.20801 19.0462 1.20801 19.0462C1.20801 19.0462 15.8554 19.1017 17.0791 41.4397Z" fill="#F26822" stroke="#010101" stroke-width="0.390268" stroke-miterlimit="10"/>
<path d="M17.0793 41.4397C17.0793 41.4397 28.7601 41.6803 30.7811 30.8907C32.5425 21.5262 34.341 20.0826 34.341 20.0826C34.341 20.0826 19.7122 19.2128 17.0793 41.4397Z" fill="#F26822" stroke="#010101" stroke-width="0.390268" stroke-miterlimit="10"/>
<path d="M50.3971 5.64712C50.1932 3.74089 49.674 1.92719 48.5987 0.687218C48.5987 0.687218 47.3193 4.01849 43.778 10.3849C41.7014 14.1048 46.5035 18.9907 46.5035 18.9907L47.1525 18.0468C49.637 14.4009 50.8607 10.0148 50.3971 5.62862V5.64712Z" fill="#ED1E7A" stroke="#010101" stroke-width="0.390268" stroke-miterlimit="10"/>
<path d="M59.89 15.1227C61.7997 15.3263 63.6167 15.8445 64.859 16.9179C64.859 16.9179 61.5216 18.1949 55.1435 21.7297C51.4168 23.8025 46.522 19.0092 46.522 19.0092L47.4676 18.3614C51.1201 15.8815 55.5143 14.66 59.9085 15.1227H59.89Z" fill="#ED1E7A" stroke="#010101" stroke-width="0.390268" stroke-miterlimit="10"/>
<path d="M60.7429 4.79578C60.7429 4.79578 51.4168 5.81367 47.8014 9.36702C44.1859 12.9019 46.522 18.9907 46.522 18.9907C46.522 18.9907 52.622 21.3226 56.1633 17.7137C59.7046 14.1048 60.7429 4.79578 60.7429 4.79578Z" fill="#ED1E7A" stroke="#010101" stroke-width="0.390268" stroke-miterlimit="10"/>
<path d="M45.2798 78.6759C44.0747 80.1749 43.1476 81.822 43.0364 83.4507C43.0364 83.4507 46.2996 82.0071 53.3266 79.9899C57.4427 78.8239 57.4983 71.9763 57.4983 71.9763L56.3858 72.1799C52.0473 72.9942 48.061 75.2336 45.2984 78.6759H45.2798Z" fill="#FFCC04" stroke="#010101" stroke-width="0.390268" stroke-miterlimit="10"/>
<path d="M45.2798 65.2768C44.0747 63.7777 43.1476 62.1306 43.0364 60.502C43.0364 60.502 46.2996 61.9455 53.3266 63.9628C57.4427 65.1287 57.4983 71.9763 57.4983 71.9763L56.3858 71.7727C52.0473 70.9584 48.061 68.7191 45.2984 65.2768H45.2798Z" fill="#FFCC04" stroke="#010101" stroke-width="0.390268" stroke-miterlimit="10"/>
<path d="M37.3628 71.9763C37.3628 71.9763 44.6865 77.843 49.7481 77.8801C54.8098 77.9356 57.4797 71.9763 57.4797 71.9763C57.4797 71.9763 54.8284 66.017 49.7481 66.0726C44.6679 66.1281 37.3628 71.9763 37.3628 71.9763Z" fill="#FFCC04" stroke="#010101" stroke-width="0.390268" stroke-miterlimit="10"/>
<path d="M140.061 58.1701C140.061 58.1701 158.695 75.3631 179.795 75.7887C179.795 75.7887 170.561 70.8474 165.314 65.9985C157.1 58.4107 140.061 58.1701 140.061 58.1701Z" fill="#3BB54A" stroke="#010101" stroke-width="0.443486" stroke-miterlimit="10"/>
<path d="M176.364 50.3601C176.364 50.3601 194.998 32.945 216.098 32.5008C216.098 32.5008 206.864 37.5162 201.617 42.4206C193.403 50.1195 176.364 50.3601 176.364 50.3601Z" fill="#3BB54A" stroke="#010101" stroke-width="0.443486" stroke-miterlimit="10"/>
<path d="M248.118 39.5335L246.375 39.626C246.597 43.8826 245.058 47.4175 241.777 50.1195C239.459 52.0442 235.287 54.3021 227.945 55.32C230.782 51.8592 232.154 47.8987 232.024 43.531C231.876 38.0529 229.391 32.0567 224.682 25.7273C221.196 21.045 217.822 17.9913 217.673 17.8803L216.505 19.1758C216.635 19.2868 229.91 31.3164 230.263 43.605C230.393 48.1392 228.724 52.1738 225.312 55.6346C216.783 56.4119 204.546 55.6346 187.081 51.452C171.673 47.7691 157.397 50.8783 148.126 54.1355C138.096 57.6704 131.792 62.001 131.514 62.1861L132.496 63.6111C132.7 63.4631 150.629 51.2855 173.416 51.5446C173.435 56.9116 175.307 61.3903 178.978 64.8511C182.983 68.6266 188.972 71.1065 196.778 72.2724C200.467 72.8091 203.638 72.9202 205.511 72.9202C206.586 72.9202 207.216 72.8832 207.29 72.8832L207.198 71.1435C207.012 71.1435 189.102 72.0133 180.165 63.5926C176.865 60.4834 175.178 56.4489 175.14 51.5816C178.886 51.7296 182.742 52.2108 186.654 53.1547C213.761 59.6506 233.711 59.0584 242.833 51.489C246.505 48.4539 248.303 44.3268 248.062 39.5705L248.118 39.5335Z" fill="#3BB54A" stroke="#010101" stroke-width="0.443486" stroke-miterlimit="10"/>
<path d="M213.706 5.64712C213.909 3.74089 214.429 1.92719 215.504 0.687218C215.504 0.687218 216.783 4.01849 220.325 10.3849C222.401 14.1048 217.599 18.9907 217.599 18.9907L216.95 18.0468C214.466 14.4009 213.242 10.0148 213.706 5.62862V5.64712Z" fill="#ED1E7A" stroke="#010101" stroke-width="0.390268" stroke-miterlimit="10"/>
<path d="M204.231 15.1227C202.322 15.3263 200.505 15.8445 199.262 16.9179C199.262 16.9179 202.6 18.1949 208.978 21.7297C212.705 23.8025 217.599 19.0092 217.599 19.0092L216.654 18.3614C213.001 15.8815 208.607 14.66 204.213 15.1227H204.231Z" fill="#ED1E7A" stroke="#010101" stroke-width="0.390268" stroke-miterlimit="10"/>
<path d="M203.378 4.79578C203.378 4.79578 212.705 5.81367 216.32 9.36702C219.935 12.9019 217.599 18.9907 217.599 18.9907C217.599 18.9907 211.499 21.3226 207.958 17.7137C204.417 14.1048 203.378 4.79578 203.378 4.79578Z" fill="#ED1E7A" stroke="#010101" stroke-width="0.390268" stroke-miterlimit="10"/>
<path d="M218.842 78.6759C220.047 80.1749 220.974 81.822 221.085 83.4507C221.085 83.4507 217.822 82.0071 210.795 79.9899C206.679 78.8239 206.623 71.9763 206.623 71.9763L207.735 72.1799C212.074 72.9942 216.06 75.2336 218.823 78.6759H218.842Z" fill="#FFCC04" stroke="#010101" stroke-width="0.390268" stroke-miterlimit="10"/>
<path d="M218.842 65.2768C220.047 63.7777 220.974 62.1306 221.085 60.502C221.085 60.502 217.822 61.9455 210.795 63.9628C206.679 65.1287 206.623 71.9763 206.623 71.9763L207.735 71.7727C212.074 70.9584 216.06 68.7191 218.823 65.2768H218.842Z" fill="#FFCC04" stroke="#010101" stroke-width="0.390268" stroke-miterlimit="10"/>
<path d="M226.74 71.9763C226.74 71.9763 219.416 77.843 214.355 77.8801C209.293 77.9356 206.623 71.9763 206.623 71.9763C206.623 71.9763 209.274 66.017 214.355 66.0726C219.416 66.1281 226.74 71.9763 226.74 71.9763Z" fill="#FFCC04" stroke="#010101" stroke-width="0.390268" stroke-miterlimit="10"/>
<path d="M240.145 28.8734C239.941 22.5811 246.134 12.8464 246.134 12.8464C246.134 12.8464 252.92 22.1739 253.124 28.4663C253.328 34.7587 250.621 41.3287 247.042 41.4397C243.464 41.5508 240.349 35.1658 240.164 28.8734H240.145Z" fill="#FFCC04" stroke="#010101" stroke-width="0.390268" stroke-miterlimit="10"/>
<path d="M247.024 41.4397C247.024 41.4397 258.705 40.94 260.021 30.0579C261.171 20.6008 262.895 19.0462 262.895 19.0462C262.895 19.0462 248.248 19.1017 247.024 41.4397Z" fill="#F26822" stroke="#010101" stroke-width="0.390268" stroke-miterlimit="10"/>
<path d="M247.024 41.4397C247.024 41.4397 235.343 41.6803 233.322 30.8907C231.561 21.5262 229.762 20.0826 229.762 20.0826C229.762 20.0826 244.391 19.2128 247.024 41.4397Z" fill="#F26822" stroke="#010101" stroke-width="0.390268" stroke-miterlimit="10"/>
<path d="M123.893 70.4032C123.893 70.4032 118.999 74.4007 119.926 83.2101C119.926 83.2101 129.845 80.9337 132.051 72.6981V69.9961H130.068L126.953 70.6253L123.875 70.3847L123.893 70.4032Z" fill="#ED1E7A" stroke="#010101" stroke-width="0.390268" stroke-miterlimit="10"/>
<path d="M140.228 70.4032C140.228 70.4032 145.123 74.4007 144.196 83.2101C144.196 83.2101 134.276 80.9337 132.07 72.6981V69.9961H134.054L137.169 70.6253L140.247 70.3847L140.228 70.4032Z" fill="#ED1E7A" stroke="#010101" stroke-width="0.390268" stroke-miterlimit="10"/>
<path d="M132.052 89.2804C123.968 86.2452 128.121 74.3822 128.121 74.3822L132.052 72.6981L135.982 74.3822C135.982 74.3822 140.154 86.2267 132.052 89.2804Z" fill="#ED1E7A" stroke="#010101" stroke-width="0.390268" stroke-miterlimit="10"/>
<path d="M140.21 70.4032C140.21 70.4032 137.911 72.9017 134.499 70.9954C134.462 70.9954 134.425 70.9584 134.407 70.9399L135.982 74.3822L132.052 72.6981L128.121 74.3822L129.697 70.9399C129.697 70.9399 129.641 70.9769 129.604 70.9954C126.193 72.9017 123.894 70.4032 123.894 70.4032C127.287 70.4032 128.492 68.4415 128.918 66.7758C129.4 64.9066 130.457 63.241 131.866 61.927L132.052 61.7604L132.237 61.927C133.646 63.241 134.703 64.9066 135.185 66.7758C135.612 68.4415 136.835 70.4032 140.21 70.4032Z" fill="#3BB54A" stroke="#010101" stroke-width="0.443486" stroke-miterlimit="10"/>
</svg>
