<svg width="173" height="82" viewBox="0 0 173 82" fill="none" xmlns="http://www.w3.org/2000/svg">
<path d="M8.75401 0H0.336426V41.3262H8.75401V0Z" fill="#354EA1"/>
<path d="M120.704 0H112.286V41.3262H120.704V0Z" fill="#354EA1"/>
<path d="M51.4537 0V29.5002L25.8858 5.45957V0H20.9168H17.0603V41.3262H20.9168V13.0475L51.4537 41.3262H55.3103V0H51.4537Z" fill="#354EA1"/>
<path d="M103.999 10.1419C102.886 7.66192 101.31 5.68165 99.2707 4.20109C97.2312 2.72053 94.8208 1.68414 92.0026 1.07341C89.1844 0.462679 86.0695 0.14806 82.6394 0.14806C80.1179 0.14806 72.8684 0 71.6817 0H63.2642V41.3262H69.7349C69.8462 41.3262 70.0501 41.3262 70.3097 41.3262H71.6817C75.2787 41.2707 82.6394 41.1781 84.9756 41.1781C87.8124 41.1781 90.4637 40.6785 92.9667 39.6791C95.4512 38.6797 97.6576 37.2361 99.5488 35.3484C101.44 33.4607 102.942 31.1844 104.036 28.5193C105.13 25.8543 105.686 22.8747 105.686 19.5619C105.686 15.7865 105.13 12.6403 104.017 10.1604L103.999 10.1419ZM92.2807 33.3497C89.6479 36.4218 86.0695 37.9394 81.5641 37.9394C80.3218 37.9394 79.2835 37.9209 78.4492 37.8839C77.7817 37.8469 73.5915 37.8284 71.6817 37.7914V3.81244C73.7583 3.75692 78.2823 3.70141 79.024 3.64589C79.9139 3.59037 81.082 3.55335 82.5282 3.55335C84.6048 3.55335 86.4774 3.92348 88.1461 4.66377C89.8148 5.40405 91.261 6.45896 92.4476 7.82848C93.6528 9.198 94.5798 10.8636 95.2287 12.8069C95.8962 14.7501 96.2114 16.9709 96.2114 19.4324C96.2114 25.6507 94.895 30.2775 92.2622 33.3497H92.2807Z" fill="#354EA1"/>
<path d="M24.8846 49.3953V64.9597C22.1776 62.9424 19.3038 61.906 16.2816 61.906C16.226 61.906 16.1704 61.906 16.1148 61.906C12.2212 61.9615 8.99505 63.7197 6.99262 65.1632V49.3953H0.336426V81.9306H6.99262V69.1423C6.99262 69.1423 10.9789 65.0337 16.1704 64.9967C19.2296 64.9042 22.122 66.3292 24.8661 69.0312V81.9491H31.5223V49.4138H24.8661L24.8846 49.3953Z" fill="#D2AA68"/>
<path d="M55.5143 49.3212C67.5473 49.3212 75.5385 55.7617 75.5385 65.3853C75.5385 75.009 67.5473 81.4494 55.5143 81.4494C43.4812 81.4494 35.5642 75.0645 35.5642 65.3853C35.5642 55.7062 43.5554 49.3212 55.5143 49.3212ZM55.5143 80.2835C61.9665 80.2835 66.2865 74.3057 66.2865 65.3853C66.2865 56.465 61.9665 50.5612 55.5143 50.5612C49.062 50.5612 44.8161 56.465 44.8161 65.3853C44.8161 74.3057 49.062 80.2835 55.5143 80.2835Z" fill="#D2AA68"/>
<path d="M104.499 49.8764V50.7648C107.169 50.7648 106.539 54.3736 106.539 54.3736V70.2897C106.539 74.4168 105.204 78.4328 101.217 79.2656H91.298C88.2017 78.1182 86.2549 74.1577 86.2549 70.2527V54.1516C86.292 53.3928 86.5886 50.7648 88.4612 50.7648V49.8764H78.0042V50.7648C79.9324 50.7648 80.1734 53.4483 80.2105 54.1516V70.2527C80.2105 79.9319 86.5701 81.727 90.3524 81.8196H101.366V81.7641C106.186 81.2829 109.005 77.2668 109.005 70.2712V54.1331C109.06 53.3743 109.042 50.7463 111.304 50.7463V49.8579H104.444L104.499 49.8764Z" fill="#D2AA68"/>
<path d="M113.176 72.0849C113.399 71.9553 113.621 72.0294 113.695 72.2144L114.14 73.2878C117.107 78.3588 124.171 80.5611 130.568 80.0429C133.312 79.8578 136.593 79.0435 137.558 76.6006C137.78 76.286 137.854 75.8418 137.854 75.2311C137.854 68.0318 113.714 67.9023 113.714 57.4458C113.714 51.7457 121.668 49.5618 127.23 49.3582C131.977 49.1732 136.816 50.4317 139.708 53.6704C140.821 54.8548 141.562 56.1688 142.156 57.6124C142.23 57.7975 142.156 57.8715 142.007 57.927L141.414 58.1861C141.192 58.2416 141.043 58.2416 140.969 58.0566C140.747 57.5013 140.598 57.2422 140.598 57.1867C139.486 55.5026 138.077 54.059 136.074 52.9856C133.182 51.3015 129.307 50.7278 125.821 51.2275C123.225 51.5421 120.24 53.0412 120.24 55.5396C120.24 62.5538 144.622 62.9239 144.622 73.5099C144.622 78.8955 137.78 81.1533 132.44 81.653C128.287 82.0972 124.189 81.653 120.407 80.2095C116.476 78.7659 113.788 76.0824 112.379 72.7511C112.379 72.6216 112.453 72.492 112.527 72.4365L113.195 72.0664L113.176 72.0849Z" fill="#D2AA68"/>
<path d="M149.777 49.7469C149.777 49.6173 149.888 49.5248 150.073 49.5248H172.471C172.638 49.5248 172.767 49.6173 172.767 49.7469V50.9869C172.767 51.1164 172.656 51.1719 172.471 51.1719H155.617C155.45 51.1719 155.395 51.2645 155.395 51.394V63.9233C155.395 64.0528 155.45 64.1454 155.617 64.1454H171.673C171.84 64.1454 171.97 64.1824 171.97 64.3304V65.5704C171.97 65.7 171.859 65.7925 171.673 65.7925H155.691C155.524 65.7925 155.395 65.8295 155.395 65.9776V79.6543C155.395 79.7838 155.506 79.8763 155.691 79.8763H172.489C172.656 79.8763 172.786 79.9134 172.786 80.0614V81.3014C172.786 81.4309 172.675 81.5235 172.489 81.5235H150.092C149.925 81.5235 149.795 81.4309 149.795 81.3014V49.7469H149.777Z" fill="#D2AA68"/>
<path d="M139.783 0.166553L148.738 0.203575L170.524 41.3262H161.68L157.693 32.0912L156.507 32.0172C156.507 32.0172 155.598 39.9012 144.77 41.9925C144.066 41.9925 135.333 42.4551 135.333 42.4551C135.333 42.4551 121.335 37.6803 126.582 27.0943C129.604 23.9481 139.783 10.401 139.783 10.401V0.148056V0.166553ZM144.919 10.66C144.919 10.66 145.734 14.0098 143.658 16.6193C141.711 19.3028 133.479 28.0752 133.479 28.0752C133.479 28.0752 132.589 36.4403 138.504 35.9592C139.208 36.0702 144.733 35.9777 144.733 35.9777C144.733 35.9777 149.906 33.1646 150.184 29.9999C149.999 27.2794 149.925 18.0258 149.925 18.0258L146.161 11.5854V10.3639L144.937 10.66H144.919Z" fill="#354EA1"/>
</svg>
