<svg width="170" height="263" viewBox="0 0 170 263" fill="none" xmlns="http://www.w3.org/2000/svg">
<path d="M170 262.787V117.604C170 117.604 155.079 116.715 159.049 103.294C159.049 103.294 175.469 62.1538 146.613 59.475C146.613 59.475 156.564 26.8297 118.756 29.5085C118.756 29.5085 121.421 11.9505 96.5341 9.25784C91.1626 8.67489 86.5823 5.30209 85.1666 0.610712C85.111 0.402515 85.0555 0.208197 85 0C84.9445 0.208197 84.889 0.416395 84.8334 0.610712C83.4316 5.30209 78.8374 8.67489 73.4659 9.25784C48.5932 11.9505 51.2443 29.5085 51.2443 29.5085C13.4357 26.8297 23.3875 59.475 23.3875 59.475C-5.46865 62.1538 10.9512 103.294 10.9512 103.294C14.9347 116.715 0 117.604 0 117.604V262.787H169.972H170Z" fill="#FF008C"/>
<path d="M21.791 142.102V116.868H25.8162V142.102H21.791Z" fill="white"/>
<path d="M54.4779 142.102H51.0496L35.7957 123.988V142.102H31.7705V116.868H35.1988L50.4111 135.287V116.868H54.4779V142.102Z" fill="white"/>
<path d="M69.2326 116.868C77.8242 116.868 83.168 122.142 83.168 129.485C83.168 136.827 77.8242 142.102 69.2326 142.102H60.4189V116.868H69.2326ZM69.2326 138.451C75.3675 138.451 79.1012 134.718 79.1012 129.485C79.1012 124.252 75.3675 120.518 69.2326 120.518H64.4441V138.451H69.2326Z" fill="white"/>
<path d="M87.915 142.102V115.883H91.9402V142.102H87.915Z" fill="white"/>
<path d="M116.716 141.102L114.231 135.231H101.947L99.463 142.102L95.0908 141.102L106.195 115.869H109.956L121.06 141.102H116.688H116.716ZM108.096 120.81L103.544 131.539H112.663L108.11 120.81H108.096Z" fill="white"/>
<path d="M43.485 172.943H39.4598V162.102H25.8298V172.943H21.8047V147.709H25.8298V158.41H39.4598V147.709H43.485V172.943Z" fill="white"/>
<path d="M74.5898 160.367C74.5898 167.668 68.788 173.47 61.404 173.47C54.0199 173.47 48.2598 167.668 48.2598 160.367C48.2598 153.067 54.0199 147.182 61.404 147.182C68.788 147.182 74.5898 153.025 74.5898 160.367ZM70.523 160.367C70.523 155.024 66.5256 150.985 61.404 150.985C56.2823 150.985 52.3266 155.01 52.3266 160.367C52.3266 165.725 56.3239 169.667 61.404 169.667C66.484 169.667 70.523 165.67 70.523 160.367Z" fill="white"/>
<path d="M100.601 161.797C100.601 168.765 96.3395 173.47 89.9409 173.47C83.5423 173.47 79.0591 168.765 79.0591 161.797V147.709H83.0842V161.797C83.0842 166.502 85.7908 169.597 89.9409 169.597C94.0909 169.597 96.5754 166.516 96.5754 161.797V147.709H100.601V161.797Z" fill="white"/>
<path d="M124.807 154.302L120.782 155.135C120.324 152.456 118.034 150.693 115.022 150.693C112.01 150.693 110.094 152.317 110.094 154.538C110.094 156.315 111.108 157.244 113.301 157.702L118.755 158.868C122.517 159.701 125.237 161.811 125.237 165.767C125.237 170.514 121.351 173.484 115.563 173.484C110.219 173.484 105.778 170.888 105.125 165.989L109.414 165.087C110.011 168.321 112.537 169.903 115.924 169.903C119.311 169.903 121.24 168.279 121.24 165.989C121.24 164.073 120.227 163.157 117.701 162.644L112.204 161.519C109.081 160.798 105.833 159.146 105.833 154.663C105.833 150.18 109.484 147.209 115.091 147.209C120.213 147.209 123.905 149.999 124.807 154.33V154.302Z" fill="white"/>
<path d="M148.944 172.943H130.151V147.709H148.903V151.359H134.176V158.48H147.778V162.102H134.176V169.292H148.944V172.943Z" fill="white"/>
<path d="M170 183.672H0.0273438V188.946H170V183.672Z" fill="#0081C8"/>
<path d="M170 188.946H0.0273438V194.22H170V188.946Z" fill="#FCB131"/>
<path d="M170 194.22H0.0273438V199.495H170V194.22Z" fill="black"/>
<path d="M170 199.495H0.0273438V204.769H170V199.495Z" fill="#EE334E"/>
<path d="M170 204.769H0.0273438V210.043H170V204.769Z" fill="#00A651"/>
<path fill-rule="evenodd" clip-rule="evenodd" d="M51.9657 246.103C51.813 245.284 51.0219 245.256 50.7026 244.604C50.8692 245.492 51.6603 245.506 51.9657 246.103Z" fill="white"/>
<path d="M52.2705 248.407C52.2705 248.407 52.7563 246.686 55.1159 246.797C55.1853 246.797 53.4642 246.478 52.4371 247.824C52.4648 247.949 53.02 245.562 55.9209 246.908C54.4774 247.116 54.3247 248.116 52.6591 247.907C52.6591 247.907 52.4093 248.268 52.3815 248.588L52.2844 248.407H52.2705Z" fill="white"/>
<path d="M52.2432 245.215C52.7568 244.285 54.3113 242.397 58.6002 241.87C58.739 241.842 56.0741 241.925 53.8533 243.313C53.3397 243.646 52.7845 244.063 52.4375 244.479C52.3959 244.535 52.3543 244.59 52.3126 244.646C52.4931 244.215 52.7845 243.785 53.0621 243.369C54.1725 241.773 56.6015 240.912 61.2096 241.731C57.2677 242.175 57.6286 244.396 53.2981 244.687C53.0899 244.715 52.7984 244.687 52.6457 244.812C52.4514 244.965 52.2293 245.298 52.1738 245.687L52.2571 245.201L52.2432 245.215Z" fill="white"/>
<path fill-rule="evenodd" clip-rule="evenodd" d="M51.9102 254.945C52.8956 251.308 51.0496 245.964 52.6041 241.814C51.6742 246.048 53.5619 251.905 51.9102 254.945Z" fill="white"/>
<path fill-rule="evenodd" clip-rule="evenodd" d="M59.1554 240.44C58.6141 240.843 57.8923 240.898 57.3371 240.634C57.3371 240.634 57.1845 240.579 57.0457 240.412C56.9207 240.26 53.8672 236.804 53.8672 236.804C54.811 236.97 55.852 236.512 56.3933 235.679C56.9346 234.902 56.9069 233.778 56.3933 233.001C55.7826 232.14 54.6028 231.862 53.6173 231.987C51.9101 232.237 50.6748 233.75 50.2862 235.332C49.8976 237.137 50.1751 238.858 50.7859 240.468C50.9247 240.815 51.119 241.162 51.3549 241.467C49.5506 240.676 47.9544 239.233 47.1216 237.289C46.1916 235.194 46.2194 232.542 47.3159 230.419C48.1765 228.781 49.7171 227.254 51.6048 226.616C53.5896 225.797 56.2545 225.963 58.1838 227.06C60.5295 228.226 62.3061 231.141 62.32 233.736C62.4033 236.429 61.2096 238.858 59.1415 240.426" fill="white"/>
<path fill-rule="evenodd" clip-rule="evenodd" d="M52.5624 241.453C51.6879 240.509 50.9801 239.274 51.5214 237.997C51.9933 237.026 52.4236 236.026 52.6179 234.902C52.7012 236.082 53.409 237.123 53.756 238.247C53.8948 238.788 53.8948 239.357 53.6866 239.913C53.4507 240.523 53.0759 241.051 52.6457 241.523L52.5763 241.439L52.5624 241.453Z" fill="white"/>
<path d="M123.336 251.211H120.615V250.836C120.699 250.836 120.796 250.822 120.907 250.822C121.004 250.822 121.087 250.794 121.157 250.781C121.268 250.753 121.337 250.683 121.393 250.6C121.448 250.517 121.476 250.406 121.476 250.267V247.408C121.476 247.019 121.379 246.714 121.198 246.492C121.004 246.284 120.782 246.172 120.518 246.172C120.324 246.172 120.143 246.2 119.977 246.27C119.81 246.325 119.658 246.408 119.533 246.492C119.408 246.575 119.311 246.672 119.241 246.769C119.172 246.866 119.116 246.95 119.075 247.005V250.198C119.075 250.323 119.102 250.434 119.158 250.517C119.213 250.6 119.297 250.67 119.394 250.711C119.477 250.753 119.547 250.781 119.644 250.794C119.741 250.822 119.824 250.822 119.921 250.836V251.211H117.201V250.836C117.284 250.836 117.381 250.822 117.465 250.822C117.562 250.822 117.631 250.794 117.701 250.781C117.812 250.753 117.881 250.683 117.936 250.6C117.992 250.517 118.02 250.406 118.02 250.267V246.839C118.02 246.714 117.992 246.589 117.936 246.492C117.881 246.381 117.798 246.297 117.714 246.228C117.645 246.186 117.562 246.159 117.465 246.131C117.367 246.103 117.256 246.103 117.145 246.089V245.728L118.991 245.603L119.075 245.687V246.464H119.102C119.2 246.381 119.311 246.27 119.436 246.145C119.574 246.02 119.699 245.909 119.81 245.839C119.949 245.742 120.116 245.673 120.31 245.617C120.504 245.562 120.712 245.52 120.962 245.52C121.49 245.52 121.892 245.687 122.142 246.02C122.406 246.353 122.531 246.797 122.531 247.352V250.239C122.531 250.378 122.558 250.475 122.6 250.558C122.642 250.642 122.725 250.697 122.822 250.753C122.905 250.794 122.989 250.822 123.058 250.822C123.128 250.836 123.211 250.85 123.336 250.864V251.239V251.211ZM115.23 248.393C115.23 248.116 115.202 247.81 115.147 247.505C115.091 247.186 115.008 246.922 114.897 246.714C114.772 246.478 114.619 246.297 114.425 246.159C114.231 246.02 113.995 245.95 113.703 245.95C113.412 245.95 113.162 246.02 112.968 246.159C112.759 246.297 112.593 246.506 112.468 246.742C112.343 246.977 112.26 247.241 112.218 247.519C112.162 247.81 112.149 248.102 112.149 248.365C112.149 248.726 112.176 249.059 112.232 249.365C112.287 249.67 112.385 249.948 112.509 250.184C112.634 250.42 112.801 250.614 112.995 250.753C113.19 250.892 113.426 250.961 113.717 250.961C114.189 250.961 114.564 250.739 114.827 250.281C115.105 249.823 115.244 249.198 115.244 248.393H115.23ZM116.396 248.393C116.396 248.782 116.326 249.171 116.215 249.545C116.09 249.92 115.91 250.239 115.688 250.503C115.438 250.808 115.133 251.03 114.786 251.169C114.439 251.308 114.064 251.391 113.634 251.391C113.273 251.391 112.94 251.322 112.621 251.197C112.301 251.072 112.024 250.864 111.774 250.614C111.538 250.364 111.344 250.059 111.191 249.698C111.052 249.337 110.969 248.935 110.969 248.477C110.969 247.602 111.219 246.894 111.718 246.353C112.218 245.798 112.884 245.52 113.703 245.52C114.48 245.52 115.119 245.784 115.619 246.311C116.118 246.839 116.382 247.533 116.382 248.393H116.396ZM109.595 243.424C109.595 243.632 109.525 243.827 109.387 243.979C109.248 244.146 109.081 244.215 108.859 244.215C108.665 244.215 108.498 244.146 108.359 243.993C108.221 243.841 108.151 243.66 108.151 243.466C108.151 243.258 108.221 243.077 108.359 242.925C108.498 242.772 108.665 242.689 108.859 242.689C109.081 242.689 109.248 242.758 109.387 242.897C109.525 243.049 109.595 243.216 109.595 243.396V243.424ZM110.303 251.239H107.61V250.864C107.693 250.864 107.79 250.85 107.874 250.85C107.971 250.85 108.04 250.822 108.11 250.808C108.221 250.781 108.29 250.711 108.346 250.628C108.401 250.545 108.429 250.434 108.429 250.295V246.866C108.429 246.742 108.401 246.631 108.346 246.533C108.29 246.436 108.221 246.353 108.123 246.283C108.054 246.242 107.957 246.2 107.818 246.172C107.679 246.145 107.554 246.117 107.443 246.117V245.756L109.4 245.631L109.484 245.714V250.239C109.484 250.378 109.511 250.475 109.553 250.572C109.595 250.656 109.678 250.725 109.789 250.767C109.872 250.794 109.956 250.836 110.025 250.85C110.108 250.878 110.192 250.878 110.289 250.892V251.266L110.303 251.239ZM107.055 251.003C106.819 251.1 106.583 251.183 106.361 251.252C106.139 251.322 105.875 251.364 105.556 251.364C105.098 251.364 104.765 251.239 104.57 251.003C104.376 250.767 104.293 250.434 104.293 250.017V246.256H103.293V245.714H104.32V243.993H105.347V245.714H106.944V246.256H105.361V249.365C105.361 249.601 105.361 249.795 105.389 249.948C105.403 250.1 105.445 250.239 105.514 250.35C105.57 250.461 105.667 250.545 105.778 250.6C105.903 250.656 106.055 250.683 106.264 250.683C106.361 250.683 106.5 250.683 106.68 250.656C106.86 250.642 106.999 250.614 107.069 250.6V251.017L107.055 251.003ZM101.114 248.171C100.795 248.268 100.517 248.365 100.267 248.449C100.032 248.532 99.8094 248.643 99.6012 248.782C99.4069 248.907 99.2681 249.059 99.1571 249.24C99.046 249.42 98.9905 249.615 98.9905 249.864C98.9905 250.17 99.0738 250.406 99.2404 250.558C99.4069 250.697 99.6151 250.781 99.865 250.781C100.129 250.781 100.365 250.711 100.573 250.586C100.781 250.461 100.948 250.309 101.086 250.128L101.128 248.185L101.114 248.171ZM103.085 251.141C102.905 251.211 102.752 251.266 102.627 251.294C102.488 251.336 102.336 251.35 102.169 251.35C101.878 251.35 101.642 251.28 101.461 251.141C101.281 251.003 101.17 250.794 101.128 250.545H101.086C100.837 250.808 100.587 251.017 100.295 251.169C100.018 251.308 99.6845 251.377 99.282 251.377C98.8795 251.377 98.5186 251.252 98.2549 251.003C97.9912 250.739 97.8524 250.406 97.8524 250.003C97.8524 249.795 97.8801 249.601 97.9357 249.434C98.0051 249.268 98.0883 249.115 98.2133 248.976C98.3104 248.865 98.4353 248.768 98.588 248.671C98.7407 248.588 98.8934 248.518 99.0183 248.463C99.1848 248.393 99.5318 248.282 100.045 248.102C100.559 247.935 100.906 247.796 101.086 247.699V247.144C101.086 247.144 101.086 247.005 101.059 246.866C101.045 246.728 100.989 246.603 100.934 246.478C100.864 246.339 100.753 246.214 100.614 246.117C100.476 246.006 100.281 245.964 100.032 245.964C99.865 245.964 99.6984 245.992 99.5596 246.048C99.4069 246.103 99.3098 246.172 99.2404 246.228C99.2404 246.297 99.2542 246.408 99.2959 246.561C99.3375 246.7 99.3514 246.839 99.3514 246.964C99.3514 247.102 99.2959 247.213 99.171 247.324C99.0461 247.436 98.8934 247.491 98.6713 247.491C98.477 247.491 98.3521 247.422 98.2549 247.297C98.1716 247.158 98.13 247.019 98.13 246.853C98.13 246.686 98.1855 246.519 98.3104 246.353C98.4353 246.186 98.588 246.061 98.7823 245.936C98.9489 245.825 99.1571 245.742 99.393 245.673C99.629 245.603 99.865 245.562 100.101 245.562C100.42 245.562 100.698 245.59 100.934 245.631C101.17 245.673 101.378 245.77 101.572 245.909C101.767 246.048 101.905 246.228 102.002 246.478C102.1 246.714 102.155 247.019 102.155 247.394C102.155 247.935 102.155 248.407 102.141 248.824C102.141 249.24 102.127 249.698 102.127 250.184C102.127 250.323 102.155 250.447 102.211 250.531C102.266 250.614 102.336 250.683 102.447 250.753C102.502 250.781 102.599 250.808 102.71 250.808C102.835 250.808 102.96 250.808 103.085 250.808V251.169V251.141ZM95.2569 250.17V246.922C95.2291 246.825 95.1736 246.728 95.1042 246.603C95.0348 246.492 94.9515 246.381 94.8543 246.297C94.7433 246.2 94.6184 246.131 94.4657 246.061C94.3269 246.006 94.1465 245.964 93.9522 245.964C93.7301 245.964 93.5219 246.02 93.3276 246.145C93.1333 246.256 92.9667 246.422 92.8279 246.644C92.6891 246.853 92.5781 247.116 92.4948 247.449C92.4115 247.769 92.3699 248.13 92.3699 248.532C92.3699 248.851 92.4115 249.129 92.4531 249.393C92.5225 249.656 92.6197 249.892 92.7585 250.114C92.8973 250.323 93.0638 250.489 93.2582 250.614C93.4664 250.739 93.7023 250.808 93.9799 250.808C94.2853 250.808 94.5351 250.739 94.7294 250.614C94.9237 250.489 95.0903 250.336 95.2291 250.184L95.2569 250.17ZM97.2972 251.141L95.354 251.266L95.2707 251.183V250.67H95.2291C95.0348 250.878 94.7988 251.058 94.5074 251.197C94.2159 251.336 93.9244 251.405 93.619 251.405C93.3137 251.405 92.9944 251.336 92.703 251.197C92.4115 251.058 92.1478 250.864 91.9396 250.6C91.7175 250.336 91.5371 250.031 91.4121 249.67C91.2872 249.309 91.2178 248.907 91.2178 248.463C91.2178 248.06 91.2872 247.685 91.426 247.324C91.5648 246.964 91.7591 246.644 91.9951 246.381C92.2311 246.131 92.5087 245.923 92.8418 245.77C93.1749 245.617 93.508 245.548 93.855 245.548C94.1187 245.548 94.3686 245.576 94.6184 245.645C94.8682 245.714 95.0764 245.798 95.2569 245.895V243.966C95.2569 243.813 95.2291 243.66 95.1736 243.535C95.1181 243.396 95.0487 243.313 94.9515 243.244C94.8405 243.174 94.7017 243.119 94.5212 243.091C94.3408 243.063 94.1465 243.036 93.9383 243.022V242.675L96.2007 242.55L96.284 242.633V250.128C96.284 250.253 96.3117 250.364 96.3534 250.461C96.4089 250.558 96.4783 250.628 96.5754 250.697C96.6448 250.739 96.742 250.767 96.8808 250.781C97.0196 250.781 97.1445 250.794 97.2556 250.808V251.169L97.2972 251.141ZM90.5377 251.252H87.8173V250.878C87.9006 250.878 87.9977 250.864 88.1088 250.864C88.2059 250.864 88.3031 250.836 88.3725 250.822C88.4696 250.794 88.5529 250.725 88.6084 250.642C88.6639 250.558 88.6917 250.447 88.6917 250.309V247.449C88.6917 247.061 88.5945 246.755 88.4141 246.533C88.2337 246.325 87.9977 246.214 87.734 246.214C87.5397 246.214 87.3592 246.242 87.1927 246.311C87.0261 246.367 86.8735 246.45 86.7485 246.533C86.6236 246.617 86.5265 246.714 86.4571 246.811C86.3877 246.908 86.3321 246.991 86.3044 247.047V250.239C86.3044 250.364 86.3321 250.475 86.3877 250.558C86.4432 250.642 86.5126 250.711 86.6236 250.753C86.7069 250.794 86.7902 250.822 86.8735 250.836C86.9706 250.864 87.0678 250.864 87.1649 250.878V251.252H84.4445V250.878C84.5278 250.878 84.6249 250.864 84.7082 250.864C84.8054 250.864 84.8748 250.836 84.9442 250.822C85.0413 250.794 85.1246 250.725 85.1801 250.642C85.2356 250.558 85.2634 250.447 85.2634 250.309V246.88C85.2634 246.755 85.2356 246.631 85.1801 246.533C85.1246 246.422 85.0552 246.339 84.958 246.27C84.8886 246.228 84.7915 246.2 84.7082 246.172C84.611 246.145 84.5 246.145 84.389 246.131V245.77L86.235 245.645L86.3183 245.728V246.506H86.346C86.4293 246.422 86.5403 246.311 86.6791 246.186C86.8179 246.061 86.9429 245.95 87.0678 245.881C87.2066 245.784 87.3731 245.714 87.5674 245.659C87.7618 245.603 87.97 245.562 88.2059 245.562C88.7333 245.562 89.1359 245.728 89.3996 246.061C89.6494 246.395 89.7882 246.839 89.7882 247.394V250.281C89.7882 250.42 89.816 250.517 89.8576 250.6C89.8993 250.683 89.9825 250.739 90.0936 250.794C90.1768 250.836 90.2601 250.864 90.3295 250.864C90.3989 250.878 90.4822 250.892 90.6071 250.905V251.28L90.5377 251.252ZM83.7227 251.141L81.9184 251.266L81.8351 251.183V250.475H81.7934C81.6963 250.572 81.5991 250.67 81.4881 250.781C81.377 250.892 81.2521 250.989 81.0994 251.072C80.9329 251.169 80.7663 251.252 80.6137 251.308C80.461 251.364 80.225 251.377 79.9474 251.377C79.4478 251.377 79.073 251.225 78.8232 250.905C78.5733 250.586 78.4345 250.114 78.4345 249.504V246.839C78.4345 246.7 78.4068 246.589 78.3512 246.492C78.2957 246.395 78.2263 246.325 78.1292 246.256C78.0598 246.214 77.9765 246.172 77.8793 246.159C77.7822 246.131 77.6711 246.131 77.5601 246.117V245.756L79.4061 245.617L79.4894 245.701V249.559C79.4894 249.962 79.5727 250.267 79.7531 250.461C79.9335 250.67 80.1556 250.767 80.4055 250.767C80.6137 250.767 80.7941 250.739 80.9607 250.67C81.1272 250.6 81.2521 250.531 81.3632 250.447C81.4603 250.364 81.5575 250.281 81.6269 250.198C81.7102 250.1 81.7657 250.031 81.8073 249.948V246.797C81.8073 246.672 81.7796 246.561 81.724 246.464C81.6685 246.367 81.5991 246.283 81.502 246.214C81.4326 246.172 81.3354 246.145 81.1966 246.131C81.0717 246.131 80.919 246.117 80.7525 246.103V245.742L82.765 245.603L82.8483 245.687V250.1C82.8483 250.225 82.8761 250.336 82.9316 250.434C82.9871 250.531 83.0565 250.6 83.1537 250.67C83.2231 250.711 83.3063 250.739 83.4035 250.753C83.5007 250.753 83.5978 250.781 83.7089 250.781V251.141H83.7227ZM75.7974 248.421C75.7974 248.143 75.7696 247.838 75.7141 247.533C75.6586 247.213 75.5753 246.95 75.4642 246.742C75.3532 246.506 75.1866 246.325 74.9923 246.186C74.798 246.048 74.5621 245.978 74.2706 245.978C73.9791 245.978 73.7293 246.048 73.5349 246.186C73.3267 246.325 73.1602 246.533 73.0353 246.769C72.9104 247.005 72.8271 247.269 72.7854 247.547C72.7299 247.838 72.716 248.13 72.716 248.393C72.716 248.754 72.7438 249.087 72.7993 249.393C72.8548 249.698 72.952 249.976 73.0769 250.211C73.2018 250.447 73.3684 250.642 73.5627 250.781C73.757 250.919 73.993 250.989 74.2845 250.989C74.7564 250.989 75.1311 250.767 75.3948 250.309C75.6724 249.851 75.8112 249.226 75.8112 248.421H75.7974ZM76.9633 248.421C76.9633 248.81 76.8939 249.198 76.7828 249.573C76.6579 249.948 76.4775 250.267 76.2554 250.531C75.9917 250.836 75.7002 251.058 75.3532 251.197C75.0062 251.336 74.6315 251.419 74.2012 251.419C73.8403 251.419 73.5072 251.35 73.188 251.225C72.8687 251.1 72.5911 250.892 72.3413 250.642C72.0914 250.392 71.8971 250.087 71.7583 249.726C71.6195 249.365 71.5363 248.962 71.5363 248.504C71.5363 247.63 71.7861 246.922 72.2858 246.381C72.7854 245.825 73.4517 245.548 74.2706 245.548C75.0478 245.548 75.6863 245.812 76.186 246.339C76.6857 246.866 76.9494 247.56 76.9494 248.421H76.9633ZM70.9949 245.27H70.5647C70.4814 244.979 70.3287 244.66 70.0789 244.313C69.829 243.966 69.5931 243.785 69.3571 243.757C69.2461 243.743 69.1073 243.73 68.9407 243.716C68.7742 243.716 68.5937 243.716 68.3994 243.716H67.067V246.922H67.983C68.2606 246.922 68.4688 246.894 68.6354 246.839C68.788 246.783 68.9268 246.686 69.024 246.575C69.1073 246.492 69.1628 246.367 69.2322 246.186C69.3016 246.006 69.3294 245.825 69.3571 245.631H69.7874V248.768H69.3571C69.3571 248.601 69.3016 248.421 69.2461 248.213C69.1767 248.005 69.1073 247.852 69.0379 247.755C68.9268 247.616 68.788 247.519 68.6076 247.463C68.4411 247.422 68.2329 247.394 67.9969 247.394H67.0808V250.142C67.0808 250.267 67.1086 250.378 67.1502 250.475C67.1919 250.572 67.2751 250.656 67.4139 250.711C67.4695 250.739 67.5944 250.767 67.7748 250.808C67.9691 250.85 68.1079 250.864 68.2051 250.864V251.266H64.749V250.864C64.8601 250.864 65.0127 250.85 65.1932 250.822C65.3736 250.808 65.4985 250.794 65.5541 250.753C65.6651 250.711 65.7484 250.628 65.8039 250.531C65.8594 250.434 65.8872 250.323 65.8872 250.184V244.41C65.8872 244.285 65.8594 244.174 65.8316 244.077C65.79 243.979 65.7067 243.91 65.5679 243.841C65.4708 243.799 65.332 243.744 65.1654 243.716C64.9989 243.674 64.8601 243.66 64.7629 243.646V243.244H71.0366V245.243L70.9949 245.27Z" fill="white"/>
<path fill-rule="evenodd" clip-rule="evenodd" d="M121.864 235.624C121.864 235.332 121.836 235.027 121.795 234.694C121.739 234.361 121.67 234.083 121.559 233.861C121.448 233.625 121.281 233.431 121.073 233.278C120.865 233.125 120.601 233.056 120.282 233.056C119.741 233.056 119.283 233.278 118.936 233.736C118.575 234.194 118.38 234.819 118.353 235.624H121.892H121.864ZM123.571 238.539C123.252 239.149 122.822 239.635 122.281 239.996C121.753 240.357 121.129 240.537 120.435 240.537C119.824 240.537 119.283 240.426 118.811 240.218C118.353 239.996 117.964 239.704 117.673 239.33C117.367 238.955 117.145 238.525 116.992 238.025C116.84 237.525 116.77 237.012 116.77 236.457C116.77 235.957 116.854 235.471 117.006 234.999C117.159 234.527 117.395 234.097 117.7 233.708C117.992 233.348 118.367 233.042 118.797 232.82C119.241 232.598 119.727 232.487 120.268 232.487C120.809 232.487 121.309 232.57 121.698 232.751C122.1 232.931 122.419 233.167 122.669 233.472C122.905 233.764 123.086 234.111 123.197 234.5C123.308 234.902 123.363 235.318 123.363 235.776V236.29H118.297C118.297 236.79 118.353 237.248 118.436 237.65C118.533 238.067 118.686 238.414 118.894 238.733C119.088 239.038 119.352 239.26 119.685 239.441C120.004 239.607 120.393 239.704 120.851 239.704C121.309 239.704 121.712 239.593 122.045 239.385C122.378 239.177 122.697 238.788 123.002 238.219L123.544 238.552L123.571 238.539ZM113.106 240.537C111.996 240.537 111.135 240.176 110.511 239.441C109.886 238.705 109.581 237.72 109.581 236.484C109.581 235.943 109.664 235.443 109.83 234.971C109.997 234.5 110.247 234.083 110.566 233.695C110.871 233.334 111.246 233.028 111.718 232.806C112.176 232.584 112.676 232.473 113.217 232.473C113.967 232.473 114.577 232.654 115.049 233.014C115.521 233.375 115.757 233.861 115.757 234.486C115.757 234.749 115.702 234.971 115.577 235.166C115.452 235.374 115.244 235.471 114.966 235.471C114.661 235.471 114.425 235.388 114.258 235.235C114.092 235.082 114.008 234.902 114.008 234.722C114.008 234.486 114.036 234.25 114.105 234C114.175 233.75 114.203 233.57 114.216 233.459C114.119 233.292 113.981 233.195 113.8 233.139C113.62 233.084 113.425 233.056 113.203 233.056C112.953 233.056 112.717 233.112 112.495 233.209C112.273 233.32 112.051 233.514 111.843 233.792C111.649 234.055 111.496 234.402 111.385 234.833C111.26 235.277 111.205 235.79 111.205 236.401C111.205 237.359 111.413 238.15 111.843 238.747C112.273 239.357 112.828 239.663 113.522 239.663C114.022 239.663 114.439 239.538 114.786 239.288C115.119 239.052 115.438 238.691 115.729 238.192L116.229 238.511C115.882 239.122 115.438 239.607 114.883 239.954C114.328 240.315 113.745 240.482 113.148 240.482L113.106 240.537ZM108.637 240.329H104.889V239.829C105.014 239.829 105.139 239.802 105.278 239.788C105.417 239.788 105.542 239.76 105.639 239.732C105.778 239.691 105.889 239.607 105.958 239.482C106.027 239.371 106.069 239.219 106.069 239.024V235.096C106.069 234.555 105.944 234.139 105.68 233.847C105.431 233.556 105.111 233.403 104.75 233.403C104.473 233.403 104.223 233.445 104.001 233.528C103.779 233.611 103.571 233.722 103.39 233.847C103.224 233.972 103.085 234.097 102.988 234.236C102.891 234.375 102.807 234.486 102.766 234.569V238.969C102.766 239.149 102.793 239.288 102.877 239.399C102.946 239.51 103.057 239.607 103.196 239.663C103.307 239.718 103.418 239.76 103.543 239.774C103.668 239.802 103.793 239.816 103.932 239.829V240.329H100.184V239.829C100.309 239.829 100.42 239.802 100.545 239.788C100.67 239.788 100.781 239.76 100.878 239.732C101.031 239.691 101.128 239.607 101.197 239.482C101.267 239.371 101.308 239.219 101.308 239.024V234.305C101.308 234.125 101.28 233.972 101.197 233.819C101.128 233.681 101.017 233.556 100.878 233.459C100.781 233.389 100.67 233.348 100.531 233.32C100.406 233.292 100.253 233.278 100.101 233.264V232.765L102.641 232.598L102.752 232.709V233.778H102.793C102.918 233.653 103.071 233.5 103.265 233.334C103.446 233.167 103.626 233.028 103.793 232.917C103.987 232.792 104.209 232.695 104.473 232.612C104.737 232.529 105.028 232.487 105.361 232.487C106.097 232.487 106.638 232.709 106.985 233.167C107.346 233.625 107.513 234.236 107.513 234.999V238.969C107.513 239.149 107.54 239.302 107.61 239.413C107.665 239.524 107.776 239.607 107.929 239.677C108.054 239.732 108.165 239.76 108.248 239.788C108.345 239.802 108.47 239.829 108.623 239.829V240.329H108.637ZM96.7279 236.096C96.2976 236.221 95.909 236.359 95.5759 236.47C95.2428 236.595 94.9374 236.748 94.6459 236.942C94.3961 237.123 94.1879 237.331 94.0352 237.567C93.8825 237.803 93.8131 238.094 93.8131 238.414C93.8131 238.844 93.9242 239.163 94.1601 239.357C94.3822 239.566 94.6737 239.663 95.0207 239.663C95.3816 239.663 95.7147 239.58 95.9923 239.399C96.2699 239.219 96.5058 239.01 96.7001 238.761L96.7418 236.096H96.7279ZM99.4345 240.19C99.1846 240.274 98.9764 240.343 98.796 240.398C98.6156 240.454 98.4074 240.482 98.1714 240.482C97.7689 240.482 97.4496 240.385 97.1998 240.19C96.9639 239.996 96.8112 239.732 96.7418 239.371H96.7001C96.367 239.746 96.0062 240.024 95.6175 240.218C95.2289 240.412 94.7708 240.509 94.2295 240.509C93.6466 240.509 93.1885 240.329 92.8138 239.982C92.439 239.635 92.2586 239.177 92.2586 238.608C92.2586 238.316 92.3002 238.053 92.3835 237.817C92.4668 237.581 92.5917 237.373 92.7583 237.192C92.8832 237.04 93.0497 236.901 93.2718 236.776C93.48 236.651 93.6882 236.554 93.8687 236.484C94.1046 236.401 94.5765 236.235 95.2705 235.999C95.9784 235.763 96.4642 235.582 96.714 235.443V234.68C96.714 234.68 96.714 234.486 96.6724 234.291C96.6446 234.097 96.5752 233.917 96.4919 233.75C96.3809 233.556 96.2421 233.389 96.0478 233.25C95.8535 233.112 95.5898 233.042 95.2428 233.042C95.0068 233.042 94.7847 233.084 94.5765 233.167C94.3683 233.25 94.2295 233.334 94.1462 233.417C94.1462 233.514 94.174 233.667 94.2157 233.875C94.2712 234.069 94.2851 234.264 94.2851 234.43C94.2851 234.597 94.2018 234.777 94.0352 234.916C93.8687 235.069 93.6466 235.138 93.3551 235.138C93.1053 235.138 92.9109 235.041 92.786 234.86C92.6611 234.68 92.6056 234.472 92.6056 234.25C92.6056 234.028 92.6889 233.792 92.8554 233.57C93.022 233.361 93.2441 233.167 93.5078 232.987C93.7437 232.834 94.0213 232.723 94.3544 232.626C94.6876 232.529 95.0068 232.473 95.326 232.473C95.7563 232.473 96.1449 232.501 96.4642 232.57C96.7834 232.626 97.0749 232.765 97.3386 232.959C97.6023 233.153 97.7966 233.403 97.9354 233.736C98.0742 234.069 98.1436 234.486 98.1436 234.999C98.1436 235.735 98.1436 236.387 98.1159 236.956C98.102 237.539 98.0881 238.15 98.0881 238.83C98.0881 239.038 98.1159 239.191 98.1853 239.302C98.2547 239.427 98.3657 239.524 98.5045 239.607C98.5878 239.649 98.6988 239.677 98.8793 239.691C99.0458 239.691 99.2263 239.691 99.3928 239.691V240.19H99.4345ZM90.2877 229.683C90.2877 229.975 90.1905 230.225 89.9962 230.447C89.8019 230.669 89.5659 230.78 89.2883 230.78C89.0246 230.78 88.8025 230.669 88.6082 230.461C88.4139 230.252 88.3167 230.016 88.3167 229.753C88.3167 229.475 88.4139 229.225 88.6082 229.017C88.8025 228.809 89.0246 228.698 89.2883 228.698C89.5798 228.698 89.8296 228.795 90.0101 228.989C90.1905 229.197 90.2877 229.42 90.2877 229.683ZM91.2593 240.329H87.595V239.829C87.7199 239.829 87.8309 239.816 87.9559 239.802C88.0808 239.802 88.1918 239.774 88.2751 239.746C88.4139 239.704 88.5249 239.621 88.5943 239.51C88.6637 239.399 88.6915 239.246 88.6915 239.066V234.389C88.6915 234.222 88.6498 234.069 88.5804 233.944C88.511 233.806 88.4 233.695 88.2751 233.597C88.1779 233.528 88.0391 233.472 87.8448 233.431C87.6644 233.389 87.4978 233.361 87.3313 233.348V232.848L90.0101 232.681L90.1211 232.792V238.969C90.1211 239.149 90.1489 239.302 90.2183 239.413C90.2877 239.524 90.3987 239.621 90.5514 239.677C90.6624 239.718 90.7735 239.76 90.8845 239.788C90.9955 239.816 91.1066 239.829 91.2454 239.843V240.343L91.2593 240.329ZM86.6234 240.329H83.0146V239.843C83.1257 239.843 83.2506 239.816 83.3894 239.802C83.5143 239.802 83.6254 239.774 83.7086 239.746C83.8474 239.704 83.9585 239.621 84.0279 239.51C84.0973 239.399 84.1389 239.246 84.1389 239.08L84.014 230.919C84.014 230.821 83.9723 230.558 83.9168 230.377C83.9029 230.294 83.8752 230.225 83.8474 230.197C83.8197 230.169 83.8197 230.141 83.778 230.114C83.6531 230.002 83.8058 230.155 83.6947 230.058C83.6115 229.989 83.7225 230.03 83.4866 229.989C83.2506 229.933 82.8481 230.044 82.7093 230.044V229.503L85.3742 229.35L85.4991 229.461V238.997C85.4991 239.177 85.5408 239.316 85.6102 239.427C85.6796 239.538 85.7767 239.621 85.9294 239.677C86.0404 239.732 86.1515 239.76 86.2486 239.788C86.3597 239.816 86.4846 239.829 86.6095 239.843V240.329H86.6234ZM80.5857 235.624C80.5857 235.332 80.5579 235.027 80.5163 234.694C80.4608 234.361 80.3914 234.083 80.2803 233.861C80.1554 233.625 80.0027 233.431 79.7945 233.278C79.5863 233.125 79.3226 233.056 78.9895 233.056C78.4482 233.056 78.004 233.278 77.6431 233.736C77.2823 234.194 77.088 234.819 77.0602 235.624H80.5995H80.5857ZM82.2929 238.539C81.9737 239.149 81.5434 239.635 81.0021 239.996C80.4608 240.357 79.85 240.537 79.156 240.537C78.5453 240.537 78.004 240.426 77.5321 240.218C77.0741 239.996 76.6854 239.704 76.394 239.33C76.0886 238.955 75.8665 238.525 75.7139 238.025C75.5612 237.525 75.4918 237.012 75.4918 236.457C75.4918 235.957 75.5751 235.471 75.7277 234.999C75.8943 234.527 76.1164 234.097 76.4217 233.708C76.7132 233.348 77.088 233.042 77.5182 232.82C77.9485 232.598 78.4482 232.487 78.9895 232.487C79.5308 232.487 80.0305 232.57 80.4191 232.751C80.8216 232.931 81.1409 233.167 81.3907 233.472C81.6267 233.764 81.8071 234.111 81.9181 234.5C82.0292 234.902 82.0847 235.318 82.0847 235.776V236.29H77.0324C77.0324 236.79 77.0741 237.248 77.1712 237.65C77.2684 238.067 77.4211 238.414 77.6293 238.733C77.8375 239.038 78.1012 239.26 78.4204 239.441C78.7397 239.607 79.1283 239.704 79.5863 239.704C80.0444 239.704 80.4469 239.593 80.78 239.385C81.1131 239.177 81.4323 238.788 81.7516 238.219L82.2929 238.552V238.539ZM71.2029 232.14C71.2029 231.474 71.0086 230.946 70.6338 230.558C70.2452 230.169 69.7039 229.975 69.0099 229.975H67.6913V234.694H68.7045C69.4124 234.694 70.0092 234.472 70.4812 234.014C70.9531 233.556 71.2029 232.931 71.2029 232.154V232.14ZM75.2836 240.343H72.3272C71.6748 239.316 71.078 238.428 70.5506 237.678C70.0231 236.929 69.4402 236.151 68.8295 235.36H67.7052V238.844C67.7052 239.024 67.733 239.177 67.7885 239.316C67.844 239.455 67.9689 239.552 68.1494 239.621C68.2465 239.663 68.3992 239.691 68.6351 239.718C68.8711 239.746 69.0654 239.774 69.232 239.774V240.315H64.5822V239.774C64.7072 239.774 64.8876 239.746 65.1236 239.718C65.3595 239.691 65.5261 239.663 65.6093 239.621C65.762 239.552 65.8731 239.455 65.9425 239.33C66.0119 239.205 66.0535 239.038 66.0535 238.83V230.877C66.0535 230.696 66.0257 230.53 65.9702 230.391C65.9147 230.252 65.8037 230.141 65.6093 230.072C65.4844 230.03 65.304 229.989 65.0958 229.947C64.8876 229.905 64.721 229.891 64.5684 229.878V229.336H69.6484C70.1064 229.336 70.5506 229.378 70.967 229.475C71.3695 229.572 71.7442 229.725 72.0773 229.933C72.3966 230.141 72.6464 230.405 72.8407 230.738C73.0212 231.071 73.1322 231.474 73.1322 231.946C73.1322 232.376 73.0628 232.737 72.9379 233.07C72.813 233.389 72.6187 233.667 72.3688 233.917C72.1329 234.139 71.8553 234.333 71.536 234.486C71.2168 234.652 70.842 234.791 70.4534 234.902C70.9947 235.624 71.4389 236.221 71.7997 236.72C72.1606 237.206 72.6048 237.803 73.1183 238.511C73.3404 238.83 73.5486 239.052 73.729 239.205C73.9095 239.357 74.0899 239.469 74.2704 239.566C74.4092 239.635 74.5757 239.691 74.7839 239.718C74.9782 239.76 75.1448 239.774 75.2836 239.774V240.315V240.343Z" fill="white"/>
<path d="M56.3796 221.341H32.7007V221.897H56.3796V221.341Z" fill="white"/>
<path d="M137.341 221.341H113.662V221.897H137.341V221.341Z" fill="white"/>
<path d="M60.4466 223.604C60.4466 224.242 60.5576 224.367 61.1961 224.353V224.492H58.9614V224.353C59.5583 224.353 59.6832 224.242 59.6832 223.604V219.745C59.6832 219.107 59.5305 218.996 58.9614 218.996V218.857H61.1683C62.2926 218.857 63.056 219.495 63.056 220.412C63.056 221.328 62.3481 221.98 61.3765 221.98C61.0573 221.98 60.8074 221.938 60.4466 221.813V223.59V223.604ZM60.4466 221.536C60.7103 221.647 60.8491 221.675 61.0295 221.675C61.6819 221.675 62.126 221.203 62.126 220.509C62.126 220.009 61.8901 219.162 60.9324 219.162C60.7519 219.162 60.6131 219.19 60.4466 219.259V221.55V221.536Z" fill="white"/>
<path d="M64.8742 223.604C64.8742 224.242 64.9853 224.367 65.596 224.353V224.492H63.3613V224.353C63.9859 224.353 64.097 224.242 64.097 223.604V219.759C64.097 219.107 63.9582 218.996 63.3613 219.01V218.871H65.6793C66.748 218.871 67.3587 219.537 67.3587 220.287C67.3587 220.994 66.859 221.564 65.9985 221.73L67.331 223.909C67.553 224.27 67.6918 224.381 67.9694 224.367V224.506H66.8868L65.249 221.827H64.8742V223.604ZM65.1796 221.564C65.9569 221.564 66.4288 221.064 66.4288 220.37C66.4288 219.676 66.0124 219.162 65.4017 219.162C65.2073 219.162 65.0269 219.204 64.8742 219.273V221.564H65.1796Z" fill="white"/>
<path d="M72.0224 220.078H71.8697C71.7725 219.259 71.5227 219.176 70.8842 219.176H69.7461V221.383H70.6344C71.259 221.383 71.4394 221.175 71.4255 220.536H71.5643V222.507H71.4255C71.4255 221.883 71.259 221.702 70.7871 221.702H69.7461V223.715C69.7461 224.117 69.8016 224.187 70.1486 224.187H70.9536C71.6337 224.187 71.9807 223.881 72.2583 223.063L72.3971 223.104L71.9669 224.506H68.2471V224.367C68.83 224.367 68.9688 224.27 68.9688 223.618V219.759C68.9688 219.162 68.8717 218.996 68.2471 219.01V218.871H71.9391L72.0224 220.092V220.078Z" fill="white"/>
<path d="M72.883 222.716H73.0356C73.0911 223.798 73.7851 224.298 74.4236 224.298C74.9233 224.298 75.2842 223.909 75.2842 223.382C75.2842 223.049 75.1731 222.785 74.8816 222.493C74.5763 222.188 73.7435 221.702 73.3549 221.314C73.0218 220.981 72.8413 220.62 72.8413 220.148C72.8413 219.315 73.3965 218.732 74.2154 218.732C74.84 218.732 75.1592 219.01 75.3258 219.01C75.4646 219.01 75.5756 218.913 75.6173 218.732H75.7561V220.578H75.6173C75.5618 219.482 74.7984 219.051 74.2848 219.051C73.8129 219.051 73.4659 219.371 73.4659 219.801C73.4659 220.092 73.5769 220.37 73.8407 220.62C74.2154 220.994 75.0482 221.425 75.5201 221.897C75.8393 222.216 76.0198 222.646 76.0198 223.076C76.0198 223.937 75.3397 224.617 74.4653 224.617C73.8962 224.617 73.5631 224.326 73.3132 224.326C73.1467 224.326 73.0495 224.423 73.0217 224.617H72.8691V222.729L72.883 222.716Z" fill="white"/>
<path d="M80.1835 220.078H80.0308C79.9337 219.259 79.6838 219.176 79.0454 219.176H77.9072V221.383H78.7955C79.4201 221.383 79.6006 221.175 79.5867 220.536H79.7255V222.507H79.5867C79.5867 221.883 79.4201 221.702 78.9482 221.702H77.9072V223.715C77.9072 224.117 77.9627 224.187 78.3097 224.187H79.1148C79.7949 224.187 80.1419 223.881 80.4195 223.063L80.5583 223.104L80.128 224.506H76.4082V224.367C76.9912 224.367 77.13 224.27 77.13 223.618V219.759C77.13 219.162 77.0328 218.996 76.4082 219.01V218.871H80.1002L80.1835 220.092V220.078Z" fill="white"/>
<path d="M82.0708 218.857L84.93 222.924H84.9439V219.745C84.9439 219.121 84.8051 218.996 84.2082 218.996V218.857H85.8322V218.996C85.4019 218.996 85.2492 219.148 85.2492 219.579V224.575H85.1382L81.932 220.009H81.9181V223.59C81.9181 224.256 82.0846 224.353 82.7092 224.34V224.478H80.9604V224.34C81.4739 224.34 81.5988 224.173 81.5988 223.715V219.551L81.3629 219.232C81.2102 219.024 81.0853 218.982 80.8354 218.982V218.843H82.0569L82.0708 218.857Z" fill="white"/>
<path d="M88.7197 223.604C88.7197 224.27 88.8585 224.353 89.4553 224.353V224.492H87.2068V224.353C87.8036 224.353 87.9424 224.27 87.9424 223.604V219.176H87.3595C86.6794 219.176 86.4295 219.426 86.4157 220.148H86.2769V218.871H90.3853V220.148H90.2465C90.2326 219.44 89.9828 219.176 89.3027 219.176H88.7058V223.604H88.7197Z" fill="white"/>
<path d="M94.4521 220.078H94.2994C94.2022 219.259 93.9524 219.176 93.3139 219.176H92.1758V221.383H93.0641C93.6887 221.383 93.8691 221.175 93.8552 220.536H93.994V222.507H93.8552C93.8552 221.883 93.6887 221.702 93.2168 221.702H92.1758V223.715C92.1758 224.117 92.2313 224.187 92.5783 224.187H93.3833C94.0634 224.187 94.4104 223.881 94.688 223.063L94.8268 223.104L94.3965 224.506H90.6768V224.367C91.2597 224.367 91.3985 224.27 91.3985 223.618V219.759C91.3985 219.162 91.3013 218.996 90.6768 219.01V218.871H94.3688L94.4521 220.092V220.078Z" fill="white"/>
<path d="M97.3391 218.857C99.2823 218.857 100.115 220.231 100.115 221.702C100.115 223.437 98.8797 224.492 97.3668 224.492H95.1738V224.353C95.7707 224.353 95.8956 224.242 95.8956 223.604V219.745C95.8956 219.107 95.7568 218.996 95.1738 218.996V218.857H97.3252H97.3391ZM96.6728 224.09C96.8672 224.187 97.117 224.228 97.3807 224.228C98.5327 224.228 99.1851 223.299 99.1851 221.716C99.1851 220.134 98.4772 219.135 97.3113 219.135C97.0754 219.135 96.9227 219.162 96.6728 219.246V224.09Z" fill="white"/>
<path d="M104.057 218.857C105.209 218.857 105.958 219.495 105.958 220.356C105.958 220.911 105.597 221.522 104.64 221.605C105.681 221.675 106.18 222.188 106.18 222.979C106.18 223.923 105.459 224.492 104.321 224.492H102.058V224.353C102.655 224.353 102.78 224.242 102.78 223.604V219.745C102.78 219.107 102.655 218.996 102.058 218.996V218.857H104.043H104.057ZM103.557 221.397C103.738 221.425 103.849 221.452 104.001 221.452C104.723 221.452 105.153 221.036 105.153 220.328C105.153 219.62 104.709 219.148 104.001 219.148C103.849 219.148 103.724 219.162 103.571 219.204V221.411L103.557 221.397ZM103.557 224.09C103.765 224.173 103.918 224.201 104.126 224.201C104.834 224.201 105.264 223.757 105.264 223.007C105.264 222.258 104.723 221.73 103.96 221.73C103.821 221.73 103.724 221.73 103.557 221.772V224.09Z" fill="white"/>
<path d="M109.234 223.604C109.234 224.27 109.373 224.367 109.956 224.353V224.492H107.749V224.353C108.332 224.353 108.471 224.256 108.471 223.604V222.133L107.166 219.509C106.972 219.135 106.861 219.037 106.555 219.01V218.871H108.443V219.01C108.026 219.01 107.943 219.065 107.943 219.218C107.943 219.287 107.971 219.357 108.013 219.454L109.109 221.661L110.122 219.454C110.122 219.454 110.164 219.301 110.164 219.232C110.164 219.051 110.025 219.01 109.734 219.01V218.871H111.177V219.01C110.761 219.037 110.594 219.176 110.358 219.704L109.248 222.091V223.604H109.234Z" fill="white"/>
</svg>
