<svg width="170" height="263" viewBox="0 0 170 263" fill="none" xmlns="http://www.w3.org/2000/svg">
<path d="M170 262.829V117.623C170 117.623 155.077 116.734 159.047 103.31C159.047 103.31 175.47 62.164 146.609 59.4847C146.609 59.4847 156.562 26.8341 118.747 29.5133C118.747 29.5133 121.413 11.9525 96.5221 9.25935C91.1498 8.6763 86.5687 5.30296 85.1527 0.610812C85.0972 0.40258 85.0416 0.208231 84.9861 0C84.9306 0.208231 84.8751 0.416463 84.8195 0.610812C83.4174 5.30296 78.8225 8.6763 73.4501 9.25935C48.5734 11.9525 51.2249 29.5133 51.2249 29.5133C13.4101 26.8341 23.3635 59.4847 23.3635 59.4847C-5.49731 62.164 10.9252 103.31 10.9252 103.31C14.9232 116.721 0 117.623 0 117.623V262.829H170Z" fill="#FF008C"/>
<path d="M21.7256 142.125V116.873H25.7514V142.125H21.7256Z" fill="white"/>
<path d="M54.4318 142.125H51.0029L35.7465 123.995V142.125H31.7207V116.873H35.1496L50.3782 135.295V116.873H54.4457V142.125H54.4318Z" fill="white"/>
<path d="M69.2023 116.887C77.7953 116.887 83.1399 122.162 83.1399 129.506C83.1399 136.85 77.7815 142.125 69.2023 142.125H60.3872V116.873H69.2023V116.887ZM69.2023 138.488C75.3382 138.488 79.0725 134.753 79.0725 129.52C79.0725 124.286 75.3382 120.552 69.2023 120.552H64.413V138.488H69.2023Z" fill="white"/>
<path d="M87.8877 142.125V115.888H91.9135V142.125H87.8877Z" fill="white"/>
<path d="M116.721 141.139L114.236 135.267H101.95L99.4651 142.139L95.0923 141.139L106.212 115.888H109.974L121.093 141.139H116.721ZM108.086 120.83L103.533 131.574H112.653L108.1 120.83H108.086Z" fill="white"/>
<path d="M43.4365 172.999H39.4107V162.143H25.7646V172.999H21.7388V147.747H25.7646V158.45H39.4107V147.747H43.4365V172.999Z" fill="white"/>
<path d="M74.5604 160.407C74.5604 167.723 68.7577 173.526 61.3724 173.526C53.9871 173.526 48.2261 167.723 48.2261 160.407C48.2261 153.092 53.9871 147.219 61.3724 147.219C68.7577 147.219 74.5604 153.064 74.5604 160.407ZM70.4929 160.407C70.4929 155.063 66.4949 151.023 61.3724 151.023C56.2499 151.023 52.2935 155.063 52.2935 160.407C52.2935 165.752 56.2916 169.722 61.3724 169.722C66.4532 169.722 70.4929 165.724 70.4929 160.407Z" fill="white"/>
<path d="M100.59 161.837C100.59 168.806 96.3281 173.526 89.9285 173.526C83.5288 173.526 79.0449 168.82 79.0449 161.837V147.747H83.0707V161.837C83.0707 166.543 85.7777 169.639 89.9285 169.639C94.0792 169.639 96.5641 166.543 96.5641 161.837V147.747H100.59V161.837Z" fill="white"/>
<path d="M124.828 154.341L120.802 155.174C120.344 152.495 118.053 150.732 115.041 150.732C112.028 150.732 110.099 152.356 110.099 154.577C110.099 156.354 111.112 157.298 113.305 157.742L118.775 158.908C122.537 159.741 125.258 161.851 125.258 165.808C125.258 170.555 121.371 173.526 115.568 173.526C110.224 173.526 105.767 170.93 105.129 166.03L109.418 165.127C110.015 168.376 112.542 169.944 115.943 169.944C119.344 169.944 121.26 168.32 121.26 166.03C121.26 164.114 120.246 163.198 117.72 162.67L112.223 161.546C109.099 160.824 105.851 159.172 105.851 154.688C105.851 150.204 109.502 147.219 115.124 147.219C120.246 147.219 123.939 150.01 124.841 154.341H124.828Z" fill="white"/>
<path d="M148.968 172.999H130.158V147.747H148.927V151.398H134.198V158.52H147.802V162.143H134.198V169.334H148.968V172.985V172.999Z" fill="white"/>
<path d="M170 183.716H0V188.991H170V183.716Z" fill="#0081C8"/>
<path d="M170 188.991H0V194.266H170V188.991Z" fill="#FCB131"/>
<path d="M170 194.28H0V199.555H170V194.28Z" fill="black"/>
<path d="M170 199.555H0V204.83H170V199.555Z" fill="#EE334E"/>
<path d="M170 204.844H0V210.119H170V204.844Z" fill="#00A651"/>
<path fill-rule="evenodd" clip-rule="evenodd" d="M57.1947 241.132C57.0698 240.438 56.3895 240.424 56.1396 239.869C56.2785 240.618 56.9448 240.632 57.1947 241.132Z" fill="white"/>
<path d="M57.4585 243.089C57.4585 243.089 57.875 241.632 59.8462 241.743C59.9156 241.743 58.458 241.479 57.5973 242.603C57.6112 242.7 58.0832 240.701 60.5264 241.826C59.3187 241.992 59.1799 242.839 57.7778 242.659C57.7778 242.659 57.5696 242.964 57.5418 243.228L57.4585 243.075V243.089Z" fill="white"/>
<path d="M57.4307 240.396C57.8611 239.605 59.1799 238.036 62.7753 237.578C62.9003 237.55 60.6514 237.62 58.7912 238.8C58.3608 239.077 57.8889 239.424 57.5973 239.785C57.5557 239.827 57.5279 239.882 57.4863 239.924C57.639 239.563 57.8888 239.202 58.1248 238.855C59.0688 237.509 61.1095 236.787 64.9826 237.481C61.6648 237.856 61.9702 239.716 58.3192 239.98C58.1387 239.993 57.9027 239.98 57.7639 240.077C57.5973 240.202 57.4169 240.493 57.3613 240.813L57.4307 240.41V240.396Z" fill="white"/>
<path fill-rule="evenodd" clip-rule="evenodd" d="M57.1528 248.586C57.9858 245.519 56.431 241.021 57.7359 237.55C56.9585 241.118 58.541 246.032 57.1528 248.586Z" fill="white"/>
<path fill-rule="evenodd" clip-rule="evenodd" d="M63.2467 236.37C62.7886 236.717 62.1917 236.759 61.7197 236.537C61.7197 236.537 61.5947 236.481 61.4698 236.356C61.3726 236.231 58.7906 233.33 58.7906 233.33C59.5818 233.469 60.4564 233.08 60.9145 232.386C61.3588 231.734 61.3449 230.79 60.9145 230.123C60.4009 229.401 59.4153 229.165 58.5823 229.276C57.1386 229.485 56.1113 230.762 55.7782 232.095C55.445 233.622 55.681 235.065 56.2085 236.412C56.3334 236.703 56.4861 236.995 56.6805 237.245C55.1673 236.578 53.8208 235.371 53.1267 233.733C52.3493 231.97 52.3632 229.748 53.2933 227.958C54.0151 226.583 55.3062 225.292 56.9026 224.751C58.5685 224.057 60.8174 224.21 62.4416 225.126C64.4128 226.111 65.9121 228.555 65.9121 230.748C65.9815 233.011 64.982 235.065 63.2328 236.37" fill="white"/>
<path fill-rule="evenodd" clip-rule="evenodd" d="M57.6942 237.231C56.9584 236.44 56.3615 235.399 56.8057 234.33C57.2083 233.511 57.5554 232.664 57.7358 231.72C57.8052 232.705 58.4022 233.594 58.6937 234.538C58.8048 234.996 58.8186 235.468 58.6382 235.94C58.4438 236.454 58.1245 236.898 57.7497 237.3L57.6942 237.231Z" fill="white"/>
<path d="M117.249 245.449H114.958V245.13C115.027 245.13 115.111 245.13 115.194 245.116C115.277 245.116 115.347 245.088 115.402 245.074C115.486 245.047 115.555 244.991 115.597 244.922C115.638 244.852 115.666 244.755 115.666 244.644V242.242C115.666 241.909 115.583 241.659 115.43 241.479C115.277 241.298 115.083 241.201 114.861 241.201C114.694 241.201 114.542 241.229 114.403 241.285C114.264 241.34 114.139 241.396 114.028 241.479C113.917 241.548 113.834 241.632 113.778 241.715C113.709 241.798 113.667 241.868 113.639 241.923V244.616C113.639 244.727 113.667 244.811 113.709 244.88C113.75 244.949 113.82 245.005 113.903 245.047C113.972 245.074 114.042 245.102 114.111 245.116C114.194 245.13 114.264 245.144 114.347 245.158V245.477H112.057V245.158C112.126 245.158 112.209 245.158 112.279 245.144C112.362 245.144 112.418 245.116 112.487 245.102C112.57 245.074 112.64 245.019 112.681 244.949C112.723 244.88 112.751 244.783 112.751 244.672V241.784C112.751 241.673 112.723 241.576 112.681 241.493C112.64 241.409 112.57 241.326 112.487 241.271C112.431 241.229 112.362 241.201 112.279 241.187C112.195 241.173 112.098 241.16 112.015 241.146V240.84L113.57 240.729L113.639 240.799V241.451H113.667C113.75 241.382 113.834 241.285 113.958 241.173C114.07 241.062 114.181 240.979 114.278 240.91C114.403 240.826 114.542 240.771 114.694 240.715C114.861 240.66 115.041 240.646 115.236 240.646C115.68 240.646 116.013 240.785 116.235 241.062C116.457 241.34 116.554 241.715 116.554 242.173V244.602C116.554 244.713 116.568 244.797 116.61 244.866C116.652 244.935 116.707 244.991 116.804 245.019C116.874 245.047 116.943 245.074 116.999 245.088C117.054 245.088 117.137 245.116 117.235 245.116V245.435L117.249 245.449ZM110.432 243.075C110.432 242.839 110.405 242.589 110.363 242.326C110.321 242.062 110.252 241.84 110.155 241.659C110.058 241.465 109.919 241.312 109.752 241.187C109.586 241.062 109.391 241.007 109.155 241.007C108.919 241.007 108.697 241.062 108.531 241.187C108.364 241.312 108.211 241.479 108.114 241.687C108.017 241.881 107.948 242.104 107.906 242.353C107.864 242.603 107.836 242.839 107.836 243.075C107.836 243.381 107.864 243.658 107.906 243.922C107.948 244.172 108.031 244.408 108.142 244.616C108.253 244.824 108.392 244.977 108.544 245.088C108.711 245.199 108.905 245.255 109.155 245.255C109.558 245.255 109.863 245.06 110.099 244.686C110.335 244.297 110.446 243.769 110.446 243.103L110.432 243.075ZM111.418 243.075C111.418 243.408 111.363 243.728 111.265 244.047C111.154 244.366 111.015 244.63 110.821 244.852C110.613 245.102 110.349 245.296 110.072 245.421C109.78 245.546 109.461 245.602 109.1 245.602C108.794 245.602 108.517 245.546 108.253 245.435C107.989 245.324 107.753 245.158 107.531 244.949C107.323 244.741 107.17 244.477 107.045 244.172C106.92 243.867 106.865 243.52 106.865 243.145C106.865 242.409 107.073 241.826 107.503 241.354C107.934 240.896 108.489 240.66 109.169 240.66C109.822 240.66 110.363 240.882 110.78 241.326C111.21 241.77 111.418 242.353 111.418 243.089V243.075ZM105.699 238.883C105.699 239.063 105.643 239.216 105.518 239.355C105.393 239.494 105.254 239.563 105.074 239.563C104.921 239.563 104.769 239.494 104.657 239.369C104.533 239.244 104.477 239.091 104.477 238.925C104.477 238.744 104.533 238.591 104.657 238.466C104.782 238.341 104.921 238.272 105.074 238.272C105.254 238.272 105.407 238.328 105.518 238.453C105.629 238.577 105.685 238.716 105.685 238.883H105.699ZM106.296 245.449H104.033V245.13C104.102 245.13 104.186 245.13 104.255 245.116C104.338 245.116 104.394 245.088 104.449 245.074C104.533 245.047 104.602 244.991 104.644 244.922C104.685 244.852 104.713 244.755 104.713 244.644V241.756C104.713 241.659 104.685 241.562 104.644 241.479C104.602 241.396 104.533 241.326 104.449 241.271C104.394 241.229 104.31 241.201 104.186 241.173C104.074 241.146 103.963 241.132 103.866 241.118V240.813L105.518 240.701L105.588 240.771V244.575C105.588 244.686 105.601 244.783 105.657 244.852C105.699 244.922 105.768 244.977 105.865 245.019C105.935 245.047 106.004 245.074 106.073 245.088C106.143 245.102 106.212 245.116 106.296 245.13V245.449ZM103.561 245.241C103.353 245.324 103.158 245.394 102.978 245.463C102.797 245.519 102.575 245.546 102.311 245.546C101.923 245.546 101.645 245.449 101.479 245.255C101.312 245.06 101.243 244.783 101.243 244.422V241.257H100.396V240.799H101.256V239.341H102.117V240.799H103.464V241.257H102.131V243.867C102.131 244.061 102.131 244.228 102.159 244.352C102.159 244.477 102.2 244.602 102.256 244.699C102.298 244.797 102.381 244.866 102.478 244.908C102.575 244.949 102.714 244.977 102.881 244.977C102.964 244.977 103.075 244.977 103.228 244.949C103.38 244.935 103.491 244.922 103.547 244.894V245.241H103.561ZM98.5633 242.853C98.2995 242.936 98.0635 243.006 97.8553 243.089C97.647 243.159 97.4666 243.256 97.2861 243.367C97.1334 243.478 97.0085 243.603 96.9113 243.742C96.8141 243.894 96.7725 244.061 96.7725 244.269C96.7725 244.533 96.8419 244.727 96.9807 244.852C97.1195 244.977 97.2861 245.033 97.5082 245.033C97.7303 245.033 97.9247 244.977 98.1052 244.866C98.2717 244.755 98.4244 244.63 98.5355 244.477L98.5633 242.839V242.853ZM100.215 245.352C100.063 245.407 99.9376 245.449 99.8265 245.491C99.7155 245.519 99.5905 245.546 99.4517 245.546C99.2018 245.546 99.0075 245.491 98.8548 245.38C98.7021 245.269 98.6188 245.088 98.5772 244.88H98.5494C98.3411 245.102 98.119 245.283 97.883 245.394C97.6471 245.519 97.3694 245.574 97.0362 245.574C96.7031 245.574 96.3977 245.477 96.1755 245.255C95.9534 245.033 95.8424 244.755 95.8424 244.408C95.8424 244.228 95.8701 244.061 95.9118 243.922C95.9673 243.783 96.0367 243.658 96.1339 243.533C96.2172 243.436 96.3144 243.353 96.4532 243.284C96.5781 243.214 96.7031 243.145 96.8141 243.103C96.9529 243.048 97.2445 242.95 97.6748 242.798C98.1052 242.659 98.4106 242.534 98.5494 242.451V241.979C98.5494 241.979 98.5494 241.854 98.5216 241.743C98.5077 241.632 98.4661 241.521 98.4106 241.409C98.3412 241.285 98.2579 241.187 98.1468 241.104C98.0357 241.021 97.8692 240.979 97.6609 240.979C97.5221 240.979 97.3833 241.007 97.2583 241.048C97.1334 241.104 97.0501 241.146 96.9946 241.201C96.9946 241.257 97.0085 241.354 97.0362 241.479C97.064 241.604 97.0779 241.715 97.0779 241.812C97.0779 241.923 97.0224 242.02 96.9252 242.117C96.828 242.215 96.6892 242.256 96.5087 242.256C96.356 242.256 96.2311 242.201 96.1617 242.09C96.0922 241.979 96.0506 241.854 96.0506 241.715C96.0506 241.576 96.1061 241.437 96.2033 241.298C96.3144 241.16 96.4393 241.049 96.6059 240.937C96.7447 240.854 96.9252 240.771 97.1195 240.715C97.3278 240.66 97.5221 240.618 97.7165 240.618C97.9802 240.618 98.2162 240.632 98.4106 240.674C98.6049 240.715 98.7854 240.785 98.952 240.91C99.1185 241.021 99.2296 241.187 99.3129 241.382C99.3962 241.59 99.4378 241.84 99.4378 242.159C99.4378 242.603 99.4378 243.006 99.424 243.353C99.424 243.7 99.424 244.089 99.424 244.505C99.424 244.63 99.4378 244.727 99.4934 244.797C99.535 244.866 99.6044 244.935 99.6877 244.977C99.7294 245.005 99.8127 245.019 99.9098 245.019C100.021 245.019 100.118 245.019 100.229 245.019V245.324L100.215 245.352ZM93.6212 244.533V241.798C93.5935 241.715 93.5518 241.632 93.4963 241.534C93.4408 241.437 93.3714 241.354 93.2881 241.271C93.1909 241.187 93.0937 241.132 92.9688 241.076C92.8438 241.021 92.705 240.993 92.5384 240.993C92.3441 240.993 92.1775 241.049 92.0109 241.146C91.8443 241.243 91.7055 241.382 91.5806 241.562C91.4556 241.743 91.3723 241.965 91.3029 242.242C91.2335 242.52 91.2058 242.812 91.2058 243.145C91.2058 243.408 91.2335 243.644 91.2752 243.867C91.3307 244.089 91.414 244.283 91.525 244.477C91.6361 244.658 91.7749 244.797 91.9554 244.908C92.122 245.019 92.3302 245.074 92.5662 245.074C92.8161 245.074 93.0243 245.019 93.1909 244.908C93.3575 244.797 93.4963 244.672 93.6074 244.547L93.6212 244.533ZM95.3287 245.352L93.6907 245.463L93.6212 245.394V244.963H93.5796C93.413 245.144 93.2187 245.283 92.9688 245.407C92.7328 245.519 92.4829 245.588 92.2192 245.588C91.9554 245.588 91.6916 245.532 91.4556 245.407C91.2058 245.296 90.9975 245.13 90.8032 244.908C90.6227 244.686 90.47 244.422 90.3589 244.13C90.2479 243.825 90.1924 243.478 90.1924 243.117C90.1924 242.784 90.2479 242.464 90.3728 242.159C90.4839 241.854 90.6505 241.59 90.8587 241.368C91.0531 241.16 91.2891 240.993 91.5667 240.854C91.8443 240.729 92.1359 240.66 92.4274 240.66C92.6495 240.66 92.8577 240.688 93.066 240.743C93.2742 240.799 93.4547 240.868 93.6074 240.951V239.327C93.6074 239.188 93.5935 239.077 93.5379 238.966C93.4963 238.855 93.4408 238.772 93.3575 238.716C93.2742 238.661 93.1493 238.605 92.9965 238.577C92.8438 238.55 92.6773 238.536 92.5107 238.522V238.23L94.4264 238.119L94.4958 238.189V244.491C94.4958 244.602 94.5236 244.699 94.5652 244.769C94.6069 244.852 94.6763 244.908 94.7596 244.963C94.8151 245.005 94.8984 245.033 95.0233 245.033C95.1344 245.033 95.2454 245.047 95.3426 245.047V245.352H95.3287ZM89.6371 245.435H87.3465V245.116C87.4159 245.116 87.4992 245.116 87.5825 245.102C87.6658 245.102 87.7352 245.074 87.8046 245.06C87.8879 245.033 87.9574 244.977 87.999 244.908C88.0406 244.838 88.0684 244.741 88.0684 244.63V242.228C88.0684 241.895 87.9851 241.645 87.8324 241.465C87.6797 241.284 87.4854 241.187 87.2633 241.187C87.0967 241.187 86.944 241.215 86.8051 241.271C86.6663 241.326 86.5414 241.382 86.4303 241.465C86.3331 241.534 86.236 241.618 86.1804 241.701C86.1249 241.784 86.0694 241.854 86.0416 241.909V244.602C86.0416 244.713 86.0555 244.797 86.111 244.866C86.1527 244.935 86.2221 244.991 86.3054 245.033C86.3748 245.06 86.4442 245.088 86.5136 245.102C86.5969 245.116 86.6663 245.13 86.7635 245.144V245.463H84.4729V245.144C84.5424 245.144 84.6257 245.144 84.6951 245.13C84.7784 245.13 84.8339 245.102 84.9033 245.088C84.9866 245.06 85.056 245.005 85.0976 244.935C85.1393 244.866 85.1671 244.769 85.1671 244.658V241.77C85.1671 241.659 85.1393 241.562 85.0976 241.479C85.056 241.396 84.9866 241.312 84.9033 241.257C84.8339 241.215 84.7645 241.187 84.6951 241.173C84.6118 241.16 84.5285 241.146 84.4313 241.132V240.826L85.9861 240.715L86.0555 240.785V241.437H86.0833C86.1527 241.368 86.2499 241.271 86.3609 241.16C86.472 241.049 86.583 240.965 86.6802 240.896C86.7913 240.813 86.9301 240.757 87.0967 240.701C87.2633 240.646 87.4298 240.632 87.6381 240.632C88.0823 240.632 88.4155 240.771 88.6376 241.048C88.8458 241.326 88.9569 241.701 88.9569 242.159V244.588C88.9569 244.699 88.9707 244.783 89.0124 244.852C89.054 244.922 89.1096 244.977 89.2067 245.005C89.2762 245.033 89.3456 245.06 89.4011 245.074C89.4566 245.074 89.526 245.102 89.6232 245.102V245.421L89.6371 245.435ZM83.9038 245.352L82.3906 245.463L82.3212 245.394V244.797H82.2935C82.2102 244.88 82.1269 244.963 82.0436 245.047C81.9464 245.13 81.8354 245.213 81.7104 245.283C81.5716 245.366 81.4328 245.435 81.294 245.477C81.1551 245.519 80.9747 245.546 80.7248 245.546C80.3083 245.546 79.989 245.407 79.7808 245.144C79.5587 244.866 79.4615 244.477 79.4615 243.964V241.729C79.4615 241.618 79.4338 241.52 79.3921 241.437C79.3505 241.368 79.2949 241.298 79.2116 241.229C79.1561 241.187 79.0867 241.16 79.0034 241.146C78.9201 241.132 78.8229 241.118 78.7397 241.104V240.799L80.2944 240.688L80.3639 240.757V244.005C80.3639 244.339 80.4333 244.602 80.586 244.769C80.7387 244.935 80.9191 245.033 81.1274 245.033C81.294 245.033 81.4467 245.005 81.5855 244.949C81.7243 244.894 81.8354 244.838 81.9325 244.755C82.0158 244.686 82.0852 244.616 82.1546 244.547C82.2241 244.477 82.2657 244.408 82.3073 244.339V241.687C82.3073 241.576 82.2796 241.493 82.2379 241.409C82.1963 241.326 82.1269 241.257 82.0575 241.201C82.0019 241.16 81.9186 241.146 81.8076 241.132C81.6965 241.132 81.5716 241.118 81.4328 241.118V240.813L83.1264 240.701L83.1958 240.771V244.477C83.1958 244.588 83.2236 244.672 83.2652 244.755C83.3069 244.838 83.3763 244.894 83.4457 244.949C83.5012 244.991 83.5706 245.005 83.6539 245.019C83.7372 245.019 83.8205 245.033 83.9177 245.033V245.338L83.9038 245.352ZM77.2404 243.061C77.2404 242.825 77.2126 242.576 77.171 242.312C77.1293 242.048 77.046 241.826 76.9489 241.645C76.8517 241.451 76.7129 241.298 76.5463 241.173C76.3797 241.049 76.1853 240.993 75.9493 240.993C75.7134 240.993 75.5051 241.049 75.3247 241.173C75.1442 241.298 75.0054 241.465 74.9082 241.673C74.811 241.868 74.7416 242.09 74.7 242.34C74.6583 242.589 74.6305 242.825 74.6305 243.061C74.6305 243.367 74.6583 243.644 74.7 243.908C74.7416 244.158 74.8249 244.394 74.936 244.602C75.047 244.811 75.172 244.963 75.3385 245.074C75.5051 245.185 75.6995 245.241 75.9355 245.241C76.338 245.241 76.6435 245.047 76.8795 244.672C77.1154 244.283 77.2265 243.756 77.2265 243.089L77.2404 243.061ZM78.226 243.061C78.226 243.395 78.1705 243.714 78.0733 244.033C77.9761 244.352 77.8234 244.616 77.6291 244.838C77.407 245.088 77.1571 245.283 76.8795 245.407C76.5879 245.532 76.2686 245.588 75.9077 245.588C75.6023 245.588 75.3247 245.532 75.0609 245.421C74.7971 245.31 74.5611 245.144 74.3529 244.935C74.1447 244.727 73.9781 244.463 73.867 244.158C73.7421 243.853 73.6866 243.506 73.6866 243.131C73.6866 242.395 73.8948 241.812 74.3251 241.34C74.7555 240.882 75.3108 240.646 75.991 240.646C76.6435 240.646 77.1849 240.868 77.6013 241.312C78.0317 241.756 78.2399 242.34 78.2399 243.075L78.226 243.061ZM73.2007 240.41H72.8398C72.7704 240.16 72.6315 239.896 72.4233 239.605C72.2151 239.313 72.0068 239.161 71.8264 239.133C71.7292 239.119 71.6181 239.105 71.4793 239.105C71.3405 239.105 71.1878 239.105 71.0212 239.105H69.8968V241.812H70.6742C70.9102 241.812 71.0906 241.784 71.2156 241.743C71.3405 241.687 71.4516 241.618 71.5487 241.521C71.6181 241.451 71.6737 241.34 71.7153 241.201C71.7708 241.048 71.7986 240.896 71.8125 240.729H72.1734V243.367H71.8125C71.8125 243.228 71.7708 243.075 71.7153 242.895C71.6598 242.714 71.6043 242.589 71.5348 242.506C71.4377 242.395 71.3266 242.312 71.1739 242.27C71.0351 242.228 70.8546 242.201 70.6603 242.201H69.8829V244.519C69.8829 244.63 69.8968 244.713 69.9523 244.797C69.9939 244.88 70.0633 244.949 70.1744 244.991C70.216 245.019 70.3271 245.047 70.4798 245.074C70.6325 245.102 70.7574 245.13 70.8407 245.13V245.463H67.9255V245.13C68.0227 245.13 68.1476 245.116 68.3003 245.102C68.453 245.102 68.5641 245.074 68.6057 245.047C68.7029 245.005 68.7723 244.949 68.814 244.866C68.8556 244.783 68.8834 244.686 68.8834 244.575V239.716C68.8834 239.619 68.8695 239.521 68.8278 239.438C68.7862 239.355 68.7168 239.299 68.6057 239.244C68.5224 239.202 68.3975 239.174 68.2587 239.133C68.1199 239.105 67.9949 239.077 67.9116 239.077V238.744H73.1868V240.424L73.2007 240.41Z" fill="white"/>
<path fill-rule="evenodd" clip-rule="evenodd" d="M115.999 232.317C115.999 232.081 115.985 231.817 115.943 231.539C115.902 231.262 115.832 231.026 115.749 230.845C115.652 230.651 115.513 230.484 115.333 230.359C115.166 230.234 114.93 230.165 114.666 230.165C114.208 230.165 113.833 230.359 113.528 230.734C113.222 231.109 113.056 231.65 113.042 232.317H116.013H115.999ZM117.443 234.774C117.179 235.287 116.818 235.69 116.36 235.995C115.916 236.301 115.388 236.454 114.805 236.454C114.291 236.454 113.833 236.356 113.445 236.176C113.056 235.995 112.737 235.746 112.487 235.426C112.237 235.121 112.042 234.746 111.918 234.33C111.793 233.913 111.737 233.469 111.737 233.011C111.737 232.594 111.806 232.192 111.931 231.789C112.07 231.387 112.265 231.026 112.514 230.706C112.764 230.401 113.07 230.151 113.431 229.957C113.806 229.762 114.208 229.679 114.666 229.679C115.124 229.679 115.541 229.748 115.874 229.901C116.207 230.054 116.485 230.248 116.693 230.512C116.887 230.762 117.04 231.04 117.137 231.373C117.234 231.706 117.276 232.067 117.276 232.456V232.886H113.014C113.014 233.302 113.056 233.691 113.139 234.024C113.222 234.371 113.347 234.677 113.528 234.94C113.694 235.19 113.917 235.385 114.194 235.537C114.472 235.676 114.791 235.759 115.18 235.759C115.569 235.759 115.902 235.662 116.179 235.482C116.457 235.301 116.735 234.982 116.985 234.51L117.443 234.788V234.774ZM108.641 236.454C107.711 236.454 106.989 236.148 106.462 235.523C105.934 234.913 105.671 234.08 105.671 233.039C105.671 232.594 105.74 232.164 105.879 231.775C106.018 231.387 106.226 231.026 106.504 230.706C106.753 230.401 107.087 230.151 107.475 229.957C107.864 229.762 108.28 229.679 108.739 229.679C109.363 229.679 109.877 229.832 110.279 230.137C110.682 230.443 110.876 230.845 110.876 231.373C110.876 231.595 110.821 231.789 110.724 231.956C110.613 232.122 110.446 232.206 110.21 232.206C109.946 232.206 109.752 232.136 109.613 232.011C109.474 231.886 109.405 231.734 109.405 231.581C109.405 231.387 109.433 231.178 109.488 230.984C109.544 230.776 109.571 230.623 109.585 230.526C109.502 230.387 109.391 230.304 109.238 230.262C109.086 230.22 108.919 230.193 108.739 230.193C108.53 230.193 108.336 230.234 108.142 230.332C107.947 230.415 107.767 230.581 107.586 230.817C107.42 231.04 107.295 231.331 107.198 231.692C107.1 232.067 107.045 232.497 107.045 233.011C107.045 233.816 107.225 234.482 107.586 234.982C107.947 235.496 108.419 235.746 109.002 235.746C109.433 235.746 109.78 235.634 110.057 235.44C110.335 235.232 110.613 234.927 110.849 234.524L111.265 234.802C110.974 235.315 110.599 235.718 110.127 236.023C109.655 236.329 109.169 236.467 108.669 236.467L108.641 236.454ZM104.879 236.287H101.728V235.857C101.825 235.857 101.936 235.829 102.061 235.829C102.186 235.829 102.283 235.801 102.367 235.773C102.492 235.732 102.575 235.662 102.63 235.565C102.686 235.468 102.714 235.343 102.714 235.19V231.886C102.714 231.428 102.603 231.081 102.394 230.831C102.186 230.581 101.922 230.456 101.603 230.456C101.367 230.456 101.159 230.498 100.965 230.568C100.77 230.637 100.604 230.734 100.451 230.831C100.312 230.928 100.187 231.04 100.104 231.151C100.021 231.262 99.9512 231.359 99.9234 231.428V235.121C99.9234 235.274 99.9512 235.385 100.021 235.482C100.076 235.579 100.173 235.648 100.298 235.704C100.395 235.746 100.493 235.787 100.59 235.801C100.701 235.829 100.812 235.843 100.923 235.857V236.287H97.7717V235.857C97.8689 235.857 97.9661 235.829 98.0771 235.829C98.1882 235.829 98.2715 235.801 98.3548 235.773C98.4797 235.732 98.563 235.662 98.6324 235.565C98.6879 235.468 98.7157 235.343 98.7157 235.19V231.22C98.7157 231.067 98.6879 230.928 98.6185 230.804C98.563 230.679 98.4658 230.581 98.3548 230.498C98.2715 230.443 98.1743 230.401 98.0632 230.387C97.9522 230.359 97.8272 230.345 97.7023 230.332V229.915L99.8401 229.776L99.9373 229.873V230.776H99.9651C100.062 230.679 100.201 230.54 100.354 230.401C100.506 230.262 100.659 230.137 100.798 230.04C100.965 229.943 101.159 229.846 101.381 229.776C101.603 229.707 101.853 229.665 102.131 229.665C102.741 229.665 103.213 229.86 103.505 230.234C103.81 230.623 103.949 231.137 103.949 231.775V235.121C103.949 235.274 103.977 235.398 104.033 235.496C104.088 235.593 104.171 235.662 104.296 235.718C104.407 235.759 104.491 235.787 104.56 235.815C104.643 235.829 104.741 235.843 104.879 235.857V236.287ZM94.8565 232.733C94.4955 232.844 94.1624 232.955 93.8847 233.052C93.6071 233.163 93.3433 233.288 93.1073 233.441C92.8852 233.594 92.7186 233.76 92.5937 233.969C92.4688 234.163 92.3993 234.413 92.3993 234.691C92.3993 235.051 92.4965 235.315 92.6909 235.482C92.8852 235.648 93.1212 235.732 93.4127 235.732C93.7181 235.732 93.9958 235.662 94.2318 235.51C94.4678 235.357 94.6621 235.19 94.8287 234.982L94.8704 232.733H94.8565ZM97.1331 236.176C96.9249 236.245 96.7444 236.315 96.5917 236.356C96.439 236.398 96.2586 236.426 96.0642 236.426C95.7172 236.426 95.4534 236.342 95.2452 236.19C95.0369 236.023 94.912 235.801 94.8565 235.496H94.8148C94.5372 235.815 94.2318 236.051 93.8986 236.218C93.5793 236.384 93.1906 236.467 92.7325 236.467C92.2466 236.467 91.8579 236.315 91.5387 236.023C91.2194 235.732 91.0667 235.343 91.0667 234.871C91.0667 234.621 91.1083 234.399 91.1777 234.205C91.2471 234.01 91.3443 233.83 91.497 233.677C91.6081 233.552 91.7469 233.427 91.9274 233.33C92.1078 233.233 92.2744 233.15 92.4271 233.08C92.6215 233.011 93.024 232.872 93.6071 232.664C94.204 232.469 94.6066 232.303 94.8148 232.192V231.539C94.8148 231.539 94.8148 231.373 94.7871 231.22C94.7593 231.053 94.7038 230.901 94.6344 230.762C94.5511 230.595 94.4261 230.456 94.2595 230.345C94.1068 230.22 93.8709 230.165 93.5793 230.165C93.385 230.165 93.1906 230.207 93.024 230.262C92.8575 230.332 92.7325 230.401 92.6631 230.47C92.6631 230.554 92.677 230.679 92.7325 230.859C92.7742 231.026 92.788 231.178 92.788 231.331C92.788 231.484 92.7186 231.623 92.5798 231.748C92.441 231.872 92.2466 231.942 92.0106 231.942C91.8024 231.942 91.6358 231.859 91.5387 231.706C91.4415 231.553 91.386 231.387 91.386 231.192C91.386 230.998 91.4554 230.804 91.5942 230.623C91.733 230.443 91.9274 230.276 92.1495 230.137C92.3438 230.012 92.5798 229.915 92.8575 229.832C93.1351 229.749 93.3989 229.707 93.6765 229.707C94.0374 229.707 94.3567 229.735 94.6344 229.776C94.8981 229.818 95.148 229.929 95.3701 230.096C95.5922 230.248 95.7588 230.47 95.8699 230.748C95.9809 231.026 96.0503 231.373 96.0503 231.817C96.0503 232.442 96.0503 232.983 96.0365 233.469C96.0365 233.955 96.0226 234.482 96.0226 235.051C96.0226 235.218 96.0503 235.357 96.1059 235.454C96.1614 235.551 96.2586 235.635 96.3835 235.704C96.4529 235.746 96.5501 235.759 96.6889 235.773C96.8277 235.773 96.9804 235.773 97.1193 235.773V236.19L97.1331 236.176ZM89.4425 227.333C89.4425 227.583 89.3592 227.791 89.1926 227.972C89.026 228.152 88.8316 228.249 88.5957 228.249C88.3735 228.249 88.1931 228.166 88.0265 227.985C87.8599 227.819 87.7905 227.611 87.7905 227.389C87.7905 227.153 87.8738 226.944 88.0265 226.764C88.1931 226.583 88.3735 226.5 88.5957 226.5C88.8455 226.5 89.0399 226.583 89.2065 226.75C89.3592 226.917 89.4425 227.111 89.4425 227.333ZM90.2615 236.301H87.1797V235.87C87.2769 235.87 87.374 235.857 87.4851 235.843C87.5961 235.843 87.6794 235.815 87.7627 235.787C87.8877 235.746 87.971 235.676 88.0265 235.579C88.082 235.482 88.1098 235.357 88.1098 235.204V231.262C88.1098 231.123 88.082 230.998 88.0126 230.887C87.9571 230.776 87.8599 230.679 87.7488 230.595C87.6656 230.54 87.5406 230.498 87.3879 230.456C87.2352 230.415 87.0964 230.401 86.9576 230.387V229.971L89.2065 229.832L89.3036 229.929V235.121C89.3036 235.274 89.3314 235.398 89.3869 235.496C89.4425 235.593 89.5396 235.662 89.6646 235.718C89.7617 235.759 89.845 235.787 89.9422 235.815C90.0255 235.843 90.1366 235.857 90.2476 235.857V236.287L90.2615 236.301ZM86.3606 236.301H83.3343V235.884C83.4315 235.884 83.5426 235.87 83.6398 235.857C83.7508 235.857 83.8341 235.829 83.9174 235.815C84.0423 235.773 84.1256 235.718 84.1812 235.621C84.2367 235.523 84.2644 235.398 84.2644 235.26L84.1673 228.402C84.1673 228.319 84.1395 228.097 84.084 227.944C84.0701 227.874 84.0423 227.819 84.0284 227.791C84.0146 227.763 84.0007 227.749 83.9729 227.722C83.8619 227.625 84.0007 227.763 83.9035 227.666C83.8341 227.611 83.9313 227.638 83.7369 227.597C83.5426 227.555 83.2094 227.652 83.0845 227.638V227.18L85.3334 227.055L85.4444 227.153V235.176C85.4444 235.329 85.4861 235.44 85.5416 235.537C85.5971 235.634 85.6804 235.704 85.8054 235.759C85.9025 235.801 85.9858 235.829 86.0691 235.857C86.1663 235.884 86.2635 235.898 86.3745 235.898V236.315L86.3606 236.301ZM81.2798 232.344C81.2798 232.108 81.2659 231.845 81.2243 231.567C81.1826 231.289 81.1132 231.053 81.0299 230.873C80.9327 230.679 80.7939 230.512 80.6135 230.387C80.4469 230.262 80.2109 230.193 79.9471 230.193C79.489 230.193 79.1142 230.387 78.8088 230.762C78.5034 231.137 78.3368 231.678 78.3229 232.344H81.2937H81.2798ZM82.7235 234.802C82.4598 235.315 82.0988 235.718 81.6407 236.023C81.1965 236.329 80.669 236.481 80.0859 236.481C79.5723 236.481 79.1142 236.384 78.7255 236.204C78.3368 236.023 78.0175 235.773 77.7676 235.454C77.5178 235.149 77.3234 234.774 77.1985 234.357C77.0735 233.941 77.018 233.497 77.018 233.039C77.018 232.622 77.0874 232.22 77.2123 231.817C77.3512 231.414 77.5455 231.053 77.7954 230.734C78.0453 230.429 78.3507 230.179 78.7116 229.984C79.0725 229.79 79.489 229.707 79.9471 229.707C80.4052 229.707 80.8217 229.776 81.1549 229.929C81.488 230.082 81.7657 230.276 81.9739 230.54C82.1682 230.79 82.321 231.067 82.4181 231.4C82.5153 231.734 82.5569 232.095 82.5569 232.483V232.914H78.2952C78.2952 233.33 78.3368 233.719 78.4201 234.052C78.5034 234.399 78.6283 234.704 78.7949 234.968C78.9615 235.218 79.1836 235.412 79.4612 235.565C79.725 235.704 80.0582 235.787 80.4469 235.787C80.8356 235.787 81.1687 235.69 81.4464 235.51C81.724 235.329 82.0017 235.01 82.2515 234.538L82.7097 234.815L82.7235 234.802ZM73.3948 229.415C73.3948 228.86 73.2282 228.416 72.9089 228.083C72.5896 227.749 72.1315 227.597 71.5485 227.597H70.4379V231.567H71.2986C71.8955 231.567 72.3953 231.373 72.7978 230.998C73.2004 230.609 73.3948 230.096 73.3948 229.429V229.415ZM76.8236 236.315H74.3388C73.7835 235.454 73.2837 234.704 72.8395 234.08C72.3953 233.455 71.9094 232.803 71.3958 232.136H70.4518V235.065C70.4518 235.218 70.4795 235.357 70.5212 235.468C70.5628 235.579 70.6739 235.676 70.8266 235.732C70.9099 235.759 71.0348 235.787 71.2292 235.815C71.4235 235.843 71.5901 235.857 71.7289 235.857V236.315H67.8142V235.857C67.9113 235.857 68.0641 235.829 68.2723 235.815C68.4666 235.801 68.6055 235.759 68.6887 235.732C68.8137 235.676 68.9109 235.593 68.9664 235.482C69.0219 235.371 69.0497 235.232 69.0497 235.065V228.374C69.0497 228.221 69.0358 228.083 68.9803 227.972C68.9386 227.861 68.8415 227.763 68.6749 227.708C68.5638 227.666 68.425 227.638 68.2445 227.597C68.0779 227.569 67.9252 227.541 67.8003 227.527V227.069H72.076C72.4647 227.069 72.8395 227.111 73.1865 227.194C73.5336 227.277 73.839 227.402 74.1166 227.583C74.3804 227.763 74.6025 227.985 74.7691 228.263C74.9218 228.541 75.0051 228.888 75.0051 229.277C75.0051 229.637 74.9496 229.943 74.8385 230.22C74.7275 230.498 74.5748 230.734 74.3526 230.928C74.1583 231.109 73.9223 231.276 73.6446 231.414C73.367 231.553 73.0616 231.664 72.7423 231.761C73.2004 232.372 73.5752 232.872 73.8806 233.288C74.1861 233.705 74.5609 234.205 74.9912 234.788C75.1856 235.051 75.3521 235.246 75.5048 235.371C75.6576 235.496 75.8103 235.593 75.963 235.676C76.074 235.732 76.2267 235.773 76.3933 235.815C76.5599 235.843 76.6987 235.857 76.8098 235.87V236.329L76.8236 236.315Z" fill="white"/>
<path d="M60.9008 220.309H40.98V220.767H60.9008V220.309Z" fill="white"/>
<path d="M129.02 220.309H109.1V220.767H129.02V220.309Z" fill="white"/>
<path d="M64.3155 222.211C64.3155 222.752 64.4127 222.849 64.9402 222.849V222.96H63.0522V222.849C63.5659 222.849 63.6631 222.752 63.6631 222.211V218.962C63.6631 218.421 63.5242 218.324 63.0522 218.337V218.226H64.9124C65.8564 218.226 66.495 218.754 66.495 219.545C66.495 220.336 65.8981 220.864 65.079 220.864C64.8153 220.864 64.5932 220.836 64.3016 220.725V222.224L64.3155 222.211ZM64.3155 220.461C64.5376 220.559 64.6626 220.572 64.8153 220.572C65.3706 220.572 65.7315 220.17 65.7315 219.587C65.7315 219.17 65.5371 218.448 64.732 218.448C64.5793 218.448 64.4543 218.476 64.3155 218.518V220.447V220.461Z" fill="white"/>
<path d="M68.0496 222.211C68.0496 222.752 68.1468 222.849 68.6604 222.849V222.96H66.7725V222.849C67.3 222.849 67.3972 222.752 67.3972 222.211V218.976C67.3972 218.421 67.2861 218.337 66.7725 218.337V218.226H68.716C69.6183 218.226 70.1319 218.782 70.1319 219.42C70.1319 220.017 69.7016 220.503 68.9797 220.642L70.1042 222.474C70.2985 222.78 70.4096 222.877 70.6456 222.863V222.974H69.7293L68.355 220.725H68.0357V222.224L68.0496 222.211ZM68.3134 220.489C68.9658 220.489 69.3684 220.073 69.3684 219.476C69.3684 218.879 69.0075 218.462 68.4938 218.462C68.3273 218.462 68.1746 218.504 68.0496 218.56V220.489H68.3134Z" fill="white"/>
<path d="M74.0608 219.254H73.9359C73.8526 218.56 73.6444 218.49 73.103 218.49H72.1451V220.35H72.8947C73.4223 220.35 73.575 220.17 73.5611 219.642H73.6721V221.294H73.5611C73.5611 220.767 73.4223 220.614 73.0197 220.614H72.1451V222.308C72.1451 222.641 72.2006 222.71 72.4783 222.71H73.1585C73.7415 222.71 74.0331 222.46 74.2552 221.752L74.3662 221.794L74.0053 222.974H70.8818V222.863C71.3816 222.863 71.4926 222.78 71.4926 222.224V218.976C71.4926 218.476 71.4094 218.337 70.8818 218.351V218.24H73.9914L74.0608 219.268V219.254Z" fill="white"/>
<path d="M74.7965 221.461H74.9354C74.9909 222.377 75.5739 222.794 76.1014 222.794C76.5318 222.794 76.8372 222.46 76.8372 222.016C76.8372 221.725 76.7539 221.516 76.4901 221.267C76.2264 221.003 75.5323 220.6 75.1991 220.267C74.9215 219.989 74.7549 219.684 74.7549 219.281C74.7549 218.587 75.2269 218.088 75.9071 218.088C76.4346 218.088 76.6984 218.324 76.8511 218.324C76.9621 218.324 77.0593 218.24 77.101 218.088H77.212V219.642H77.101C77.0593 218.712 76.4069 218.351 75.9765 218.351C75.5739 218.351 75.2824 218.615 75.2824 218.976C75.2824 219.226 75.3796 219.462 75.6017 219.67C75.921 219.989 76.629 220.35 77.0177 220.753C77.2814 221.017 77.448 221.391 77.448 221.752C77.448 222.488 76.8788 223.043 76.1431 223.043C75.6572 223.043 75.3796 222.794 75.1713 222.794C75.0325 222.794 74.9492 222.877 74.9215 223.043H74.7826V221.447L74.7965 221.461Z" fill="white"/>
<path d="M80.9319 219.254H80.807C80.7237 218.56 80.5155 218.49 79.9741 218.49H79.0162V220.35H79.7658C80.2934 220.35 80.4461 220.17 80.4322 219.642H80.5432V221.294H80.4322C80.4322 220.767 80.2934 220.614 79.8908 220.614H79.0162V222.308C79.0162 222.641 79.0717 222.71 79.3494 222.71H80.0296C80.6126 222.71 80.9042 222.46 81.1263 221.752L81.2373 221.794L80.8764 222.974H77.7529V222.863C78.2527 222.863 78.3637 222.78 78.3637 222.224V218.976C78.3637 218.476 78.2804 218.337 77.7529 218.351V218.24H80.8625L80.9319 219.268V219.254Z" fill="white"/>
<path d="M82.5146 218.212L84.9162 221.627H84.9301V218.948C84.9301 218.421 84.8051 218.31 84.3054 218.324V218.212H85.6797V218.324C85.3188 218.324 85.1938 218.448 85.1938 218.823V223.03H85.0966L82.4035 219.184H82.3896V222.197C82.3896 222.766 82.5285 222.849 83.056 222.835V222.946H81.5845V222.835C82.0148 222.835 82.1259 222.696 82.1259 222.308V218.809L81.9315 218.546C81.8066 218.365 81.6955 218.337 81.4873 218.337V218.226H82.5146V218.212Z" fill="white"/>
<path d="M88.1092 222.211C88.1092 222.766 88.2342 222.849 88.7339 222.849V222.96H86.846V222.849C87.3457 222.849 87.4707 222.78 87.4707 222.211V218.49H86.9709C86.4017 218.49 86.1796 218.698 86.1657 219.295H86.0547V218.212H89.5113V219.295H89.4003C89.3864 218.698 89.1782 218.49 88.609 218.49H88.1092V222.211Z" fill="white"/>
<path d="M92.9402 219.254H92.8153C92.7459 218.56 92.5238 218.49 91.9824 218.49H91.0245V220.35H91.7741C92.3016 220.35 92.4543 220.17 92.4405 219.642H92.5515V221.294H92.4405C92.4405 220.767 92.3016 220.614 91.8991 220.614H91.0245V222.308C91.0245 222.641 91.08 222.71 91.3577 222.71H92.0379C92.6209 222.71 92.9125 222.46 93.1346 221.752L93.2456 221.794L92.8847 222.974H89.7612V222.863C90.2471 222.863 90.372 222.78 90.372 222.224V218.976C90.372 218.476 90.3026 218.337 89.7612 218.351V218.24H92.8708L92.9402 219.268V219.254Z" fill="white"/>
<path d="M95.3696 218.212C97.0077 218.212 97.7157 219.379 97.7157 220.6C97.7157 222.072 96.6745 222.946 95.4113 222.946H93.5649V222.835C94.0647 222.835 94.1757 222.738 94.1757 222.197V218.948C94.1757 218.407 94.0647 218.31 93.5649 218.324V218.212H95.3835H95.3696ZM94.8143 222.613C94.9809 222.683 95.1891 222.724 95.4113 222.724C96.383 222.724 96.9383 221.947 96.9383 220.614C96.9383 219.281 96.3414 218.448 95.3557 218.448C95.1614 218.448 95.0364 218.476 94.8143 218.546V222.613Z" fill="white"/>
<path d="M101.02 218.212C101.992 218.212 102.63 218.754 102.63 219.476C102.63 219.948 102.325 220.461 101.52 220.531C102.394 220.586 102.825 221.017 102.825 221.697C102.825 222.488 102.214 222.974 101.256 222.974H99.354V222.863C99.8676 222.863 99.9648 222.766 99.9648 222.224V218.976C99.9648 218.435 99.8538 218.337 99.354 218.351V218.24H101.034L101.02 218.212ZM100.603 220.35C100.756 220.378 100.853 220.392 100.978 220.392C101.589 220.392 101.95 220.045 101.95 219.434C101.95 218.823 101.575 218.448 100.978 218.448C100.839 218.448 100.742 218.448 100.617 218.49V220.35H100.603ZM100.603 222.613C100.784 222.683 100.909 222.71 101.075 222.71C101.672 222.71 102.033 222.335 102.033 221.711C102.033 221.086 101.575 220.642 100.937 220.642C100.826 220.642 100.728 220.642 100.603 220.683V222.627V222.613Z" fill="white"/>
<path d="M105.379 222.211C105.379 222.766 105.49 222.849 105.99 222.849V222.96H104.129V222.849C104.615 222.849 104.74 222.766 104.74 222.211V220.975L103.644 218.768C103.477 218.448 103.38 218.365 103.13 218.351V218.24H104.712V218.351C104.365 218.351 104.282 218.393 104.282 218.532C104.282 218.587 104.31 218.643 104.338 218.726L105.268 220.586L106.128 218.726C106.128 218.726 106.156 218.601 106.156 218.546C106.156 218.393 106.045 218.365 105.795 218.365V218.254H107.017V218.365C106.656 218.393 106.531 218.504 106.323 218.948L105.393 220.961V222.238L105.379 222.211Z" fill="white"/>
<path d="M93.0933 252.168H92.8018H77.2122H40.98V252.64H77.2122H92.8018H93.0933H129.02V252.168H93.0933Z" fill="white"/>
</svg>
