<svg width="109" height="42" viewBox="0 0 109 42" fill="none" xmlns="http://www.w3.org/2000/svg">
<path fill-rule="evenodd" clip-rule="evenodd" d="M8.27213 28.7934C8.04963 27.646 6.93718 27.609 6.51074 26.6836C6.75177 27.9236 7.84568 27.9606 8.27213 28.7934Z" fill="#00A64F"/>
<path d="M8.69849 32.0321C8.69849 32.0321 9.38449 29.6077 12.7033 29.7743C12.8146 29.7743 10.3857 29.3301 8.93951 31.2178C8.9766 31.3844 9.75531 28.0531 13.8343 29.9223C11.8134 30.2184 11.5909 31.6064 9.23618 31.3288C9.23618 31.3288 8.88388 31.847 8.8468 32.2727L8.71702 32.0321H8.69849Z" fill="#00A64F"/>
<path d="M8.66177 27.5534C9.38487 26.2394 11.5727 23.6114 17.5985 22.8711C17.8025 22.8341 14.0572 22.9451 10.9423 24.9069C10.2192 25.3696 9.44049 25.9618 8.93989 26.554C8.88426 26.628 8.8101 26.7021 8.75448 26.7946C9.01405 26.1839 9.42195 25.5732 9.81131 24.9994C11.3873 22.7601 14.7803 21.5386 21.2511 22.7046C15.7073 23.3338 16.2265 26.443 10.1265 26.8501C9.82985 26.8872 9.42195 26.8501 9.19946 27.0167C8.92134 27.2203 8.60615 27.7015 8.53198 28.2382L8.66177 27.5719V27.5534Z" fill="#00A64F"/>
<path fill-rule="evenodd" clip-rule="evenodd" d="M8.19775 41.1931C9.56978 36.0852 6.99259 28.5898 9.18042 22.7786C7.88256 28.7194 10.5339 36.9365 8.19775 41.1931Z" fill="#00A64F"/>
<path fill-rule="evenodd" clip-rule="evenodd" d="M18.3771 20.8539C17.617 21.4276 16.6157 21.5016 15.837 21.1315C15.837 21.1315 15.6331 21.0574 15.4291 20.8169C15.2623 20.5948 10.9608 15.7644 10.9608 15.7644C12.2957 15.9865 13.7604 15.3573 14.5021 14.1914C15.2622 13.0994 15.2252 11.5263 14.5021 10.4159C13.6492 9.21296 11.999 8.82432 10.6085 9.00939C8.19815 9.36102 6.47384 11.4893 5.93615 13.7102C5.37992 16.2456 5.78783 18.6515 6.64072 20.9094C6.84467 21.3906 7.10424 21.8903 7.43798 22.3159C4.91641 21.2055 2.67296 19.1882 1.48634 16.4492C0.188473 13.5066 0.207003 9.80518 1.76444 6.82554C2.98814 4.53067 5.13889 2.38388 7.79025 1.49554C10.5714 0.348104 14.3167 0.58867 17.0422 2.10625C20.3425 3.75337 22.827 7.82494 22.8455 11.4708C22.9567 15.2463 21.2881 18.6515 18.3771 20.8539Z" fill="#D2AC67"/>
<path fill-rule="evenodd" clip-rule="evenodd" d="M9.12522 22.2789C7.90151 20.9464 6.9003 19.2253 7.66048 17.4301C8.32795 16.0606 8.92127 14.654 9.19938 13.0809C9.31063 14.728 10.3118 16.1901 10.7939 17.7817C10.9793 18.5405 10.9978 19.3363 10.7012 20.1321C10.3675 21.0019 9.84832 21.7237 9.23647 22.39L9.14376 22.2789H9.12522Z" fill="#D2AC67"/>
<path d="M108.579 35.9741H104.759V35.4559C104.889 35.4559 105.019 35.4374 105.167 35.4189C105.315 35.4189 105.427 35.3819 105.519 35.3449C105.668 35.2894 105.779 35.2153 105.853 35.1043C105.927 34.9747 105.964 34.8267 105.964 34.6416V30.6441C105.964 30.0889 105.835 29.6632 105.575 29.3671C105.315 29.071 105 28.9229 104.611 28.9229C104.333 28.9229 104.073 28.96 103.851 29.0525C103.61 29.1265 103.406 29.2376 103.239 29.3671C103.072 29.4782 102.924 29.6262 102.831 29.7557C102.72 29.9038 102.645 30.0149 102.608 30.0889V34.5676C102.608 34.7527 102.645 34.9007 102.72 35.0118C102.794 35.1228 102.905 35.2153 103.053 35.2709C103.165 35.3264 103.276 35.3634 103.406 35.3819C103.535 35.4189 103.665 35.4374 103.795 35.4374V35.9556H99.9756V35.4374C100.105 35.4374 100.217 35.4189 100.346 35.4004C100.476 35.4004 100.587 35.3634 100.68 35.3264C100.828 35.2709 100.94 35.1968 101.014 35.0858C101.088 34.9562 101.125 34.8082 101.125 34.6231V29.8113C101.125 29.6262 101.088 29.4597 101.014 29.3116C100.94 29.1635 100.828 29.034 100.699 28.9414C100.606 28.8859 100.476 28.8304 100.346 28.8119C100.217 28.7749 100.05 28.7749 99.9014 28.7564V28.2382L102.497 28.0531L102.608 28.1641V29.2561H102.645C102.775 29.1265 102.924 28.9785 103.128 28.8119C103.313 28.6453 103.498 28.4973 103.665 28.3862C103.869 28.2567 104.11 28.1457 104.37 28.0716C104.648 27.9976 104.945 27.9421 105.278 27.9421C106.02 27.9421 106.576 28.1827 106.947 28.6453C107.318 29.108 107.485 29.7372 107.485 30.5145V34.5676C107.485 34.7527 107.522 34.9007 107.596 35.0118C107.652 35.1228 107.763 35.2153 107.911 35.2709C108.041 35.3264 108.152 35.3634 108.245 35.3819C108.338 35.4004 108.467 35.4189 108.634 35.4374V35.9556L108.579 35.9741ZM97.1944 32.0136C97.1944 31.625 97.1574 31.1993 97.0832 30.7551C97.009 30.311 96.8792 29.9408 96.7309 29.6447C96.564 29.3116 96.3416 29.0525 96.0634 28.8674C95.7853 28.6638 95.4516 28.5713 95.0622 28.5713C94.6729 28.5713 94.3021 28.6638 94.0239 28.8674C93.7273 29.071 93.5048 29.3486 93.3194 29.6817C93.1525 30.0149 93.0413 30.3665 92.9671 30.7736C92.8929 31.1808 92.8559 31.588 92.8559 31.9766C92.8559 32.4763 92.8929 32.939 92.9856 33.3831C93.0598 33.8088 93.1896 34.1974 93.375 34.5306C93.5604 34.8637 93.7829 35.1228 94.0425 35.3264C94.3206 35.5115 94.6543 35.604 95.0437 35.604C95.7112 35.604 96.2303 35.2893 96.6197 34.6416C97.009 34.0124 97.1944 33.124 97.1944 31.9951V32.0136ZM98.826 31.9951C98.826 32.5503 98.7333 33.087 98.5665 33.6052C98.3996 34.1419 98.14 34.5861 97.8248 34.9562C97.4725 35.3819 97.0461 35.6965 96.5641 35.9001C96.082 36.1037 95.5443 36.2147 94.951 36.2147C94.4504 36.2147 93.9869 36.1222 93.5233 35.9371C93.0784 35.752 92.6705 35.4744 92.3182 35.1228C91.9844 34.7712 91.7063 34.3455 91.5024 33.8273C91.2984 33.3276 91.2057 32.7539 91.2057 32.1246C91.2057 30.9032 91.558 29.9223 92.2626 29.145C92.9671 28.3677 93.8941 27.9791 95.0622 27.9791C96.1561 27.9791 97.0461 28.3492 97.7692 29.0895C98.4738 29.8113 98.826 30.7921 98.826 32.0136V31.9951ZM89.2775 25.018C89.2775 25.3141 89.1847 25.5732 88.9808 25.7952C88.7769 26.0173 88.5358 26.1284 88.2577 26.1284C87.9981 26.1284 87.7571 26.0173 87.5532 25.8138C87.3492 25.5917 87.2565 25.3511 87.2565 25.0735C87.2565 24.7774 87.3492 24.5368 87.5532 24.3147C87.7571 24.0926 87.9796 24.0001 88.2577 24.0001C88.5729 24.0001 88.8139 24.0926 88.9993 24.2962C89.1848 24.4998 89.2775 24.7404 89.2775 24.9995V25.018ZM90.2601 35.9741H86.4778V35.4559C86.6076 35.4559 86.7188 35.4374 86.8486 35.4189C86.9784 35.4189 87.0896 35.3819 87.1823 35.3449C87.3307 35.2894 87.4419 35.2153 87.5161 35.1043C87.5902 34.9747 87.6273 34.8267 87.6273 34.6416V29.8298C87.6273 29.6632 87.5902 29.4967 87.5161 29.3671C87.4419 29.2191 87.3307 29.108 87.2009 29.0155C87.1082 28.9414 86.9598 28.9044 86.7744 28.8489C86.589 28.8119 86.4036 28.7749 86.2553 28.7749V28.2567L89.0179 28.0716L89.1291 28.1827V34.5306C89.1291 34.7156 89.1662 34.8637 89.2404 34.9932C89.3145 35.1043 89.4258 35.1968 89.5741 35.2523C89.6854 35.3079 89.7966 35.3449 89.9078 35.3634C90.0191 35.4004 90.1303 35.4189 90.2787 35.4189V35.9371L90.2601 35.9741ZM85.6991 35.6225C85.3653 35.752 85.0316 35.8816 84.7349 35.9741C84.4197 36.0666 84.0489 36.1222 83.6039 36.1222C82.955 36.1222 82.4915 35.9556 82.2134 35.6225C81.9538 35.2893 81.8055 34.8267 81.8055 34.2344V28.96H80.3964V28.2012H81.8425V25.7767H83.2887V28.2012H85.5322V28.96H83.3073V33.3091C83.3073 33.6237 83.3073 33.9013 83.3444 34.1234C83.3629 34.3455 83.4185 34.5306 83.5112 34.6971C83.5854 34.8452 83.7152 34.9747 83.882 35.0488C84.0489 35.1228 84.2714 35.1598 84.5681 35.1598C84.6978 35.1598 84.9018 35.1598 85.1428 35.1228C85.4024 35.1043 85.5878 35.0673 85.6805 35.0303V35.604L85.6991 35.6225ZM77.3556 31.662C76.9107 31.7915 76.5213 31.9211 76.169 32.0506C75.8353 32.1802 75.5201 32.3282 75.2234 32.5133C74.9639 32.6984 74.7599 32.9019 74.593 33.1425C74.4447 33.3831 74.3705 33.6792 74.3705 34.0124C74.3705 34.4565 74.4818 34.7712 74.7228 34.9747C74.9453 35.1783 75.242 35.2709 75.5942 35.2709C75.9651 35.2709 76.2988 35.1783 76.5955 34.9932C76.8736 34.8082 77.1146 34.5861 77.3 34.3455L77.3556 31.625V31.662ZM80.1182 35.8261C79.8772 35.9186 79.6547 35.9926 79.4693 36.0482C79.2839 36.1037 79.0614 36.1407 78.8389 36.1407C78.431 36.1407 78.0973 36.0481 77.8562 35.8631C77.6152 35.6595 77.4483 35.3819 77.3927 35.0118H77.3371C77.0034 35.3819 76.6325 35.678 76.2432 35.8816C75.8538 36.0851 75.3717 36.1777 74.8155 36.1777C74.2593 36.1777 73.7587 36.0111 73.3693 35.641C72.9985 35.2894 72.8131 34.8082 72.8131 34.2344C72.8131 33.9383 72.8502 33.6608 72.9429 33.4202C73.0356 33.1796 73.1468 32.976 73.3323 32.7724C73.462 32.6243 73.6289 32.4763 73.8514 32.3467C74.0739 32.2172 74.2778 32.1247 74.4633 32.0506C74.7043 31.9581 75.1863 31.7915 75.9094 31.5509C76.6325 31.3103 77.1331 31.1253 77.3742 30.9772V30.1999C77.3742 30.1999 77.3742 29.9963 77.3371 29.8113C77.3 29.6262 77.2444 29.4411 77.1517 29.2561C77.0404 29.0525 76.8921 28.8859 76.7067 28.7564C76.5213 28.6083 76.2432 28.5343 75.8909 28.5343C75.6499 28.5343 75.4274 28.5713 75.2234 28.6453C75.0195 28.7194 74.8712 28.8119 74.7784 28.9044C74.7784 28.997 74.797 29.1635 74.8526 29.3671C74.9082 29.5707 74.9268 29.7558 74.9268 29.9223C74.9268 30.1074 74.8341 30.2739 74.6857 30.422C74.5189 30.5701 74.2964 30.6626 73.9997 30.6626C73.7402 30.6626 73.5362 30.5701 73.425 30.385C73.2952 30.1999 73.2395 29.9778 73.2395 29.7557C73.2395 29.5337 73.3322 29.2746 73.4991 29.071C73.6845 28.8489 73.8885 28.6453 74.1666 28.4788C74.4076 28.3307 74.6857 28.2012 75.038 28.1086C75.3718 28.0161 75.7055 27.9606 76.0207 27.9606C76.4657 27.9606 76.855 27.9976 77.1888 28.0531C77.5225 28.1086 77.8192 28.2382 78.0787 28.4418C78.3568 28.6268 78.5608 28.9044 78.6906 29.2376C78.8389 29.5707 78.9131 29.9963 78.9131 30.533C78.9131 31.2918 78.9131 31.9581 78.8945 32.5318C78.8945 33.124 78.876 33.7533 78.876 34.438C78.876 34.6416 78.9131 34.8082 78.9872 34.9192C79.0614 35.0303 79.1726 35.1413 79.3024 35.2338C79.3766 35.2709 79.5064 35.3079 79.6733 35.3079C79.8401 35.3079 80.0255 35.3079 80.1924 35.3079V35.8076L80.1182 35.8261ZM69.1049 34.4565V29.9038C69.0678 29.7743 68.9937 29.6262 68.901 29.4597C68.8083 29.2931 68.697 29.1635 68.5487 29.034C68.4004 28.9044 68.215 28.7934 68.011 28.7009C67.807 28.6083 67.566 28.5713 67.2879 28.5713C66.9727 28.5713 66.6761 28.6638 66.4165 28.8119C66.1384 28.9785 65.9159 29.2006 65.7119 29.5152C65.508 29.8113 65.3596 30.1814 65.2484 30.6441C65.1372 31.0883 65.0815 31.6065 65.0815 32.1617C65.0815 32.6058 65.1371 32.9945 65.2113 33.3646C65.304 33.7163 65.4338 34.0494 65.6378 34.364C65.8232 34.6601 66.0642 34.9007 66.3423 35.0673C66.6204 35.2524 66.9727 35.3449 67.3621 35.3449C67.7885 35.3449 68.1408 35.2524 68.4189 35.0673C68.697 34.8822 68.9195 34.6786 69.1235 34.4565H69.1049ZM71.9602 35.8261L69.2347 35.9926L69.1235 35.8816V35.1598H69.0678C68.7897 35.4559 68.456 35.6965 68.0481 35.9001C67.6402 36.0852 67.2323 36.1962 66.8058 36.1962C66.3794 36.1962 65.9344 36.1037 65.5265 35.9001C65.1186 35.715 64.7478 35.4189 64.4511 35.0673C64.1359 34.6971 63.8949 34.2715 63.7095 33.7533C63.5241 33.2351 63.4314 32.6799 63.4314 32.0506C63.4314 31.4954 63.5241 30.9587 63.728 30.4405C63.932 29.9408 64.1916 29.4967 64.5253 29.108C64.859 28.7564 65.2484 28.4788 65.7119 28.2567C66.1755 28.0531 66.6575 27.9421 67.1396 27.9421C67.5104 27.9421 67.8627 27.9791 68.215 28.0901C68.5672 28.1827 68.8639 28.2937 69.1235 28.4418V25.7397C69.1235 25.5176 69.0864 25.3141 69.0122 25.129C68.938 24.9439 68.8453 24.8144 68.7155 24.7218C68.5672 24.6108 68.3633 24.5553 68.1222 24.4998C67.8627 24.4627 67.6031 24.4257 67.3064 24.4072V23.926L70.4955 23.741L70.6253 23.852V34.364C70.6253 34.5491 70.6624 34.6971 70.7365 34.8267C70.8107 34.9562 70.9219 35.0673 71.0517 35.1598C71.1444 35.2338 71.2928 35.2709 71.4782 35.2709C71.6636 35.2709 71.849 35.3079 71.9973 35.3079V35.8261H71.9602ZM62.4487 35.9741H58.6293V35.4559C58.7591 35.4559 58.8889 35.4374 59.0372 35.4189C59.1855 35.4189 59.2968 35.3819 59.408 35.3449C59.5563 35.2894 59.6676 35.2153 59.7232 35.1043C59.7974 34.9747 59.8344 34.8267 59.8344 34.6416V30.6441C59.8344 30.0889 59.7047 29.6632 59.4451 29.3671C59.1855 29.071 58.8703 28.9229 58.4995 28.9229C58.2214 28.9229 57.9618 28.96 57.7393 29.0525C57.5168 29.1265 57.2943 29.2376 57.1275 29.3671C56.9606 29.4782 56.8123 29.6262 56.701 29.7557C56.5898 29.9038 56.5156 30.0149 56.4785 30.0889V34.5676C56.4785 34.7527 56.5156 34.9007 56.5898 35.0118C56.6639 35.1228 56.7752 35.2153 56.9235 35.2709C57.0348 35.3264 57.146 35.3634 57.2758 35.3819C57.4056 35.4189 57.5354 35.4374 57.6837 35.4374V35.9556H53.8643V35.4374C53.9941 35.4374 54.1053 35.4189 54.2351 35.4004C54.3649 35.4004 54.4761 35.3634 54.5688 35.3264C54.7171 35.2709 54.8284 35.1968 54.884 35.0858C54.9582 34.9562 54.9953 34.8082 54.9953 34.6231V29.8113C54.9953 29.6262 54.9582 29.4597 54.884 29.3116C54.8098 29.1635 54.6986 29.034 54.5688 28.9414C54.4576 28.8859 54.3463 28.8304 54.2165 28.8119C54.0867 28.7749 53.9384 28.7749 53.7716 28.7564V28.2382L56.3673 28.0531L56.4785 28.1641V29.2561H56.5156C56.6454 29.1265 56.7937 28.9785 56.9977 28.8119C57.1831 28.6453 57.3685 28.4973 57.5354 28.3862C57.7393 28.2567 57.9618 28.1457 58.2399 28.0716C58.4995 27.9976 58.8147 27.9421 59.1484 27.9421C59.8901 27.9421 60.4463 28.1827 60.8171 28.6453C61.1694 29.108 61.3548 29.7372 61.3548 30.5145V34.5676C61.3548 34.7527 61.3919 34.9007 61.4475 35.0118C61.5031 35.1228 61.6144 35.2153 61.7627 35.2709C61.8925 35.3264 62.0037 35.3634 62.0964 35.3819C62.1891 35.4004 62.3189 35.4189 62.4858 35.4374V35.9556L62.4487 35.9741ZM52.8816 35.8261L50.3415 35.9926L50.2302 35.8816V34.9007H50.1746C50.0448 35.0302 49.8965 35.1783 49.7482 35.3264C49.5813 35.4744 49.4144 35.604 49.2105 35.7335C48.9695 35.8816 48.747 35.9926 48.5245 36.0667C48.302 36.1407 47.9868 36.1777 47.5789 36.1777C46.8929 36.1777 46.3552 35.9556 46.0029 35.5114C45.6506 35.0488 45.4652 34.401 45.4652 33.5497V29.8298C45.4652 29.6447 45.4281 29.4781 45.354 29.3486C45.2798 29.219 45.1871 29.108 45.0388 29.0155C44.9461 28.96 44.8163 28.9044 44.6865 28.8859C44.5382 28.8489 44.3898 28.8304 44.2415 28.8304V28.3122L46.8372 28.1271L46.9485 28.2382V33.6422C46.9485 34.216 47.0783 34.6416 47.3193 34.9192C47.5789 35.1968 47.8755 35.3449 48.2278 35.3449C48.5245 35.3449 48.7655 35.2894 49.0065 35.2153C49.229 35.1228 49.4144 35.0302 49.5813 34.9007C49.7111 34.7897 49.8409 34.6786 49.9521 34.5491C50.0634 34.4195 50.1375 34.3085 50.2117 34.1975V29.7928C50.2117 29.6262 50.1746 29.4596 50.1004 29.3301C50.0263 29.2005 49.915 29.0895 49.7853 28.9785C49.6925 28.9229 49.5442 28.8674 49.3588 28.8674C49.1734 28.8674 48.9694 28.8489 48.7284 28.8304V28.3122L51.5652 28.1271L51.6764 28.2382V34.4195C51.6764 34.6046 51.7135 34.7527 51.7877 34.8822C51.8618 35.0118 51.9545 35.1228 52.1029 35.1968C52.1956 35.2523 52.3068 35.2893 52.4366 35.3079C52.5664 35.3079 52.7147 35.3449 52.8631 35.3449V35.8631L52.8816 35.8261ZM41.757 32.0136C41.757 31.625 41.7199 31.1993 41.6458 30.7551C41.5716 30.311 41.4418 29.9408 41.2935 29.6447C41.1266 29.3116 40.9042 29.0525 40.626 28.8674C40.3479 28.6638 40.0142 28.5713 39.6248 28.5713C39.2355 28.5713 38.8646 28.6638 38.5865 28.8674C38.2899 29.071 38.0674 29.3486 37.882 29.6817C37.7151 30.0149 37.5853 30.3665 37.5297 30.7736C37.4555 31.1808 37.4184 31.588 37.4184 31.9766C37.4184 32.4763 37.4555 32.939 37.5482 33.3831C37.6224 33.8088 37.7522 34.1974 37.9376 34.5306C38.123 34.8637 38.3455 35.1228 38.6051 35.3264C38.8832 35.5115 39.2169 35.604 39.6063 35.604C40.2738 35.604 40.7929 35.2893 41.1823 34.6416C41.5716 34.0124 41.757 33.124 41.757 31.9951V32.0136ZM43.3886 31.9951C43.3886 32.5503 43.2959 33.087 43.1291 33.6052C42.9622 34.1419 42.7026 34.5861 42.3874 34.9562C42.0166 35.3819 41.5902 35.6965 41.1266 35.9001C40.6446 36.1037 40.1069 36.2147 39.5136 36.2147C39.013 36.2147 38.5494 36.1222 38.0859 35.9371C37.6409 35.752 37.233 35.4744 36.8993 35.1228C36.547 34.7712 36.2874 34.3455 36.0835 33.8273C35.8795 33.3276 35.7868 32.7539 35.7868 32.1246C35.7868 30.9032 36.1391 29.9223 36.8437 29.145C37.5482 28.3677 38.4753 27.9791 39.6434 27.9791C40.7373 27.9791 41.6272 28.3492 42.3503 29.0895C43.0549 29.8113 43.4072 30.7921 43.4072 32.0136L43.3886 31.9951ZM34.9896 27.5719H34.3963C34.285 27.1463 34.0625 26.7021 33.7103 26.2394C33.358 25.7582 33.0242 25.4991 32.709 25.4621C32.5422 25.4436 32.3568 25.4251 32.1343 25.4066C31.9118 25.4066 31.6522 25.4066 31.3741 25.4066H29.5015V29.9038H30.7993C31.1887 29.9038 31.4853 29.8668 31.7078 29.7743C31.9303 29.6817 32.1157 29.5707 32.2641 29.4041C32.3753 29.2931 32.468 29.108 32.5422 28.8674C32.6349 28.6268 32.6905 28.3677 32.709 28.0901H33.3024V32.4948H32.709C32.6905 32.2727 32.6349 31.9951 32.5422 31.699C32.4495 31.4029 32.3568 31.1993 32.2455 31.0513C32.0972 30.8662 31.8932 30.7181 31.6522 30.6441C31.4112 30.5701 31.1331 30.533 30.7808 30.533H29.4829V34.3825C29.4829 34.5676 29.52 34.7156 29.5942 34.8452C29.6683 34.9747 29.7796 35.1043 29.965 35.1783C30.0392 35.2153 30.206 35.2523 30.4841 35.3079C30.7437 35.3634 30.9477 35.3819 31.0774 35.4004V35.9556H26.2197V35.4004C26.3866 35.4004 26.5905 35.3634 26.8501 35.3449C27.1097 35.3264 27.2766 35.2894 27.3693 35.2523C27.5361 35.1783 27.6474 35.0858 27.703 34.9562C27.7772 34.8267 27.8142 34.6601 27.8142 34.475V26.3875C27.8142 26.2209 27.7772 26.0544 27.7215 25.9248C27.6659 25.7953 27.5361 25.6842 27.3507 25.5917C27.2024 25.5361 27.017 25.4621 26.776 25.4066C26.5349 25.3511 26.3495 25.3141 26.2012 25.3141V24.7589H35.0081V27.5719H34.9896Z" fill="#00A64F"/>
<path fill-rule="evenodd" clip-rule="evenodd" d="M106.502 14.0988C106.502 13.6917 106.465 13.266 106.409 12.7848C106.335 12.3221 106.224 11.9335 106.076 11.6189C105.909 11.2858 105.668 11.0081 105.39 10.8046C105.112 10.601 104.722 10.4899 104.277 10.4899C103.517 10.4899 102.887 10.8046 102.367 11.4338C101.867 12.063 101.589 12.9514 101.552 14.0803H106.521L106.502 14.0988ZM108.912 18.1704C108.467 19.0217 107.856 19.7064 107.095 20.2061C106.354 20.7243 105.482 20.9649 104.5 20.9649C103.628 20.9649 102.887 20.8169 102.219 20.5022C101.57 20.2061 101.033 19.7805 100.625 19.2623C100.198 18.7441 99.883 18.1333 99.679 17.4486C99.4751 16.7453 99.3638 16.0235 99.3638 15.2462C99.3638 14.543 99.4751 13.8767 99.6976 13.192C99.9201 12.5257 100.235 11.915 100.68 11.3783C101.088 10.8601 101.607 10.4529 102.219 10.1383C102.831 9.82369 103.517 9.65711 104.277 9.65711C105.037 9.65711 105.742 9.76817 106.298 10.0273C106.873 10.2679 107.318 10.601 107.67 11.0451C108.004 11.4523 108.245 11.9335 108.412 12.4702C108.56 13.0254 108.653 13.6176 108.653 14.2654V14.9871H101.533C101.533 15.6904 101.607 16.3196 101.737 16.8934C101.867 17.4671 102.071 17.9668 102.386 18.411C102.664 18.8366 103.035 19.1512 103.498 19.4103C103.962 19.6509 104.5 19.7805 105.13 19.7805C105.76 19.7805 106.335 19.6324 106.799 19.3363C107.262 19.0402 107.707 18.485 108.152 17.7077L108.912 18.1704ZM94.1909 20.9834C92.6335 20.9834 91.4283 20.4652 90.5383 19.4473C89.6669 18.411 89.2219 17.0414 89.2219 15.3018C89.2219 14.543 89.3332 13.8397 89.5742 13.192C89.8152 12.5442 90.149 11.952 90.6125 11.4153C91.0389 10.8971 91.5766 10.4899 92.2256 10.1753C92.8559 9.86068 93.579 9.69413 94.3392 9.69413C95.3961 9.69413 96.249 9.95324 96.9164 10.4529C97.5839 10.9526 97.9176 11.6374 97.9176 12.5072C97.9176 12.8773 97.8435 13.192 97.6581 13.4696C97.4726 13.7472 97.1945 13.8952 96.8052 13.8952C96.3787 13.8952 96.045 13.7842 95.804 13.5621C95.5629 13.34 95.4517 13.0994 95.4517 12.8403C95.4517 12.5072 95.4888 12.1741 95.5815 11.841C95.6742 11.4893 95.7113 11.2487 95.7298 11.0822C95.6 10.8601 95.4146 10.712 95.1365 10.638C94.8769 10.564 94.5988 10.5269 94.3022 10.5269C93.9684 10.5269 93.6161 10.601 93.3009 10.749C92.9857 10.8971 92.6891 11.1747 92.3739 11.5633C92.1143 11.9335 91.8918 12.4147 91.725 13.0254C91.5581 13.6361 91.4654 14.3764 91.4654 15.2277C91.4654 16.5788 91.762 17.6707 92.3739 18.522C92.9672 19.3733 93.7645 19.799 94.7286 19.799C95.4331 19.799 96.0265 19.6324 96.49 19.2808C96.972 18.9477 97.3985 18.4295 97.8064 17.7447L98.511 18.2074C98.0289 19.0587 97.3985 19.7434 96.6198 20.2431C95.841 20.7428 95.0253 20.9834 94.1909 20.9834ZM87.9055 20.7058H82.6399V20.0026C82.8068 20.0026 82.9922 19.9655 83.1961 19.947C83.4001 19.947 83.5669 19.91 83.6967 19.8545C83.9007 19.799 84.049 19.6694 84.1417 19.5029C84.2344 19.3363 84.29 19.1327 84.29 18.8736V13.3585C84.29 12.5997 84.1046 12.0075 83.7524 11.6004C83.4001 11.1932 82.9551 10.9711 82.4359 10.9711C82.0466 10.9711 81.6943 11.0267 81.3791 11.1562C81.0639 11.2672 80.7858 11.4153 80.5262 11.6004C80.2852 11.7669 80.0998 11.952 79.9515 12.1371C79.8031 12.3221 79.7104 12.4887 79.6363 12.5997V18.7626C79.6363 19.0032 79.6919 19.2067 79.7846 19.3733C79.8773 19.5399 80.0442 19.6509 80.2481 19.7435C80.3964 19.8175 80.5633 19.873 80.7487 19.91C80.9341 19.947 81.101 19.984 81.305 19.984V20.6873H76.0393V19.984C76.2062 19.984 76.3731 19.947 76.5585 19.9285C76.7439 19.9285 76.8922 19.8915 77.022 19.836C77.2259 19.7805 77.3743 19.6509 77.4855 19.4844C77.5782 19.3178 77.6339 19.1142 77.6339 18.8551V12.2296C77.6339 11.989 77.5782 11.7484 77.467 11.5448C77.3557 11.3413 77.2074 11.1747 77.022 11.0451C76.8922 10.9526 76.7253 10.8971 76.5214 10.8601C76.336 10.8231 76.132 10.786 75.9095 10.786V10.0828L79.4879 9.84219L79.6363 9.99025V11.4893H79.6919C79.8588 11.3228 80.0813 11.1007 80.3408 10.8601C80.6004 10.6195 80.8414 10.4159 81.0825 10.2678C81.3606 10.1013 81.6758 9.95323 82.0466 9.84219C82.4174 9.73115 82.8253 9.65711 83.2888 9.65711C84.3271 9.65711 85.0873 9.97174 85.5879 10.6195C86.0885 11.2672 86.3295 12.1186 86.3295 13.1735V18.7441C86.3295 19.0032 86.3666 19.2067 86.4593 19.3548C86.552 19.5214 86.7004 19.6324 86.9043 19.7249C87.0897 19.799 87.2381 19.8545 87.3493 19.873C87.4791 19.8915 87.6645 19.9285 87.887 19.947V20.6503L87.9055 20.7058ZM71.1816 14.7651C70.5697 14.9501 70.0321 15.1352 69.55 15.3018C69.0865 15.4868 68.66 15.6904 68.2521 15.9495C67.8998 16.1901 67.6032 16.4862 67.3992 16.8193C67.1953 17.1525 67.0841 17.5411 67.0841 18.0223C67.0841 18.633 67.2509 19.0772 67.5661 19.3548C67.8813 19.6324 68.2892 19.7805 68.7713 19.7805C69.2904 19.7805 69.7354 19.6509 70.1248 19.4103C70.5141 19.1697 70.8479 18.8736 71.126 18.522L71.1816 14.7651ZM74.9825 20.5022C74.6488 20.6318 74.3336 20.7243 74.074 20.7983C73.8144 20.8724 73.5363 20.9094 73.2026 20.9094C72.6278 20.9094 72.1828 20.7798 71.8491 20.5022C71.5153 20.2246 71.2928 19.8545 71.2001 19.3363H71.126C70.6625 19.8545 70.1433 20.2617 69.6056 20.5208C69.0679 20.7984 68.419 20.9279 67.6588 20.9279C66.843 20.9279 66.1941 20.6873 65.6749 20.1876C65.1558 19.6879 64.8962 19.0587 64.8962 18.2629C64.8962 17.8557 64.9518 17.4856 65.0631 17.1525C65.1743 16.8193 65.3597 16.5417 65.5822 16.2641C65.7677 16.042 66.0087 15.857 66.3053 15.6904C66.602 15.5239 66.8801 15.3758 67.1397 15.2833C67.4549 15.1537 68.1223 14.9316 69.1236 14.5985C70.1248 14.2654 70.8108 14.0063 71.1445 13.8212V12.7478C71.1445 12.7478 71.1445 12.4702 71.0889 12.2111C71.0518 11.952 70.9591 11.6929 70.8293 11.4523C70.681 11.1932 70.477 10.9526 70.2175 10.749C69.9579 10.5455 69.5685 10.4529 69.0865 10.4529C68.7527 10.4529 68.4375 10.5084 68.1594 10.6195C67.8813 10.7305 67.6588 10.8601 67.5476 10.9711C67.5476 11.1192 67.5847 11.3228 67.6588 11.6189C67.733 11.8965 67.7515 12.1556 67.7515 12.3962C67.7515 12.6368 67.6403 12.8773 67.4178 13.0809C67.1953 13.2845 66.8801 13.3955 66.4537 13.3955C66.1014 13.3955 65.8233 13.266 65.6564 13.0069C65.4895 12.7478 65.3968 12.4702 65.3968 12.1371C65.3968 11.8039 65.5266 11.4893 65.7491 11.1747C65.9901 10.8786 66.2868 10.601 66.6761 10.3604C66.9913 10.1568 67.3992 9.99025 67.8628 9.84219C68.3263 9.69413 68.7713 9.62011 69.2163 9.62011C69.8281 9.62011 70.3658 9.65711 70.8108 9.74965C71.2558 9.82368 71.6637 10.0088 72.0345 10.2864C72.4053 10.5455 72.6834 10.9156 72.8874 11.3783C73.0728 11.841 73.184 12.4332 73.184 13.1549C73.184 14.1913 73.184 15.1167 73.1469 15.9125C73.1284 16.7268 73.1099 17.5966 73.1099 18.5405C73.1099 18.8181 73.1469 19.0402 73.2582 19.2067C73.3509 19.3733 73.5178 19.5214 73.7217 19.6324C73.833 19.6879 73.9998 19.725 74.2409 19.7435C74.4819 19.7435 74.7229 19.7435 74.964 19.7435V20.4467L74.9825 20.5022ZM62.1151 5.75212C62.1151 6.15928 61.9853 6.51091 61.7072 6.82553C61.4476 7.14015 61.1139 7.28821 60.706 7.28821C60.3351 7.28821 60.02 7.14017 59.7604 6.84406C59.4823 6.54795 59.3525 6.2148 59.3525 5.84466C59.3525 5.43751 59.4823 5.10439 59.7604 4.80827C60.0385 4.51216 60.3537 4.3641 60.706 4.3641C61.1139 4.3641 61.4661 4.49365 61.7257 4.77125C61.9853 5.04886 62.1151 5.38199 62.1151 5.73363V5.75212ZM63.4871 20.7058H58.3327V20.0026C58.4996 20.0026 58.6665 19.9655 58.8519 19.9655C59.0187 19.9655 59.1856 19.9285 59.3154 19.873C59.5193 19.799 59.6677 19.7064 59.7604 19.5399C59.8531 19.3733 59.9087 19.1697 59.9087 18.9106V12.3407C59.9087 12.1186 59.8531 11.8965 59.7418 11.7114C59.6491 11.5263 59.5008 11.3598 59.2969 11.2302C59.1671 11.1377 58.9631 11.0637 58.7036 11.0081C58.444 10.9526 58.2029 10.9156 57.999 10.8971V10.1938L61.7628 9.95323L61.9111 10.1013V18.7626C61.9111 19.0217 61.9482 19.2253 62.0595 19.3918C62.1522 19.5584 62.3005 19.6694 62.523 19.762C62.6898 19.836 62.8382 19.873 62.9865 19.91C63.1348 19.947 63.3017 19.9655 63.4871 19.984V20.6873V20.7058ZM56.9792 20.7058H51.9176V20.0211C52.0844 20.0211 52.2513 19.984 52.4367 19.9655C52.6221 19.9655 52.7704 19.9285 52.9002 19.8915C53.1042 19.836 53.2525 19.7249 53.3452 19.5584C53.4379 19.4103 53.4935 19.1882 53.4935 18.9476L53.3267 7.51031C53.3267 7.38076 53.2711 7.01062 53.1969 6.75152C53.1598 6.64048 53.1413 6.54793 53.1042 6.51092C53.0671 6.4739 53.0671 6.4369 53.0115 6.38138C52.8261 6.21482 53.0671 6.4369 52.8817 6.28884C52.7704 6.1778 52.9373 6.25183 52.585 6.17781C52.2513 6.10378 51.6951 6.27033 51.4911 6.25182V5.49303L55.2364 5.28945L55.4218 5.43751V18.8181C55.4218 19.0587 55.4774 19.2623 55.5701 19.4288C55.6628 19.5769 55.8112 19.7064 56.0151 19.7805C56.1634 19.8545 56.3118 19.91 56.4601 19.9285C56.6084 19.9655 56.7938 19.9841 56.9792 20.0026V20.6873V20.7058ZM48.506 14.0988C48.506 13.6917 48.4689 13.266 48.3948 12.7848C48.3206 12.3221 48.2094 11.9335 48.061 11.6189C47.8942 11.2858 47.6532 11.0081 47.375 10.8046C47.0784 10.601 46.7076 10.4899 46.244 10.4899C45.4839 10.4899 44.8535 10.8046 44.3529 11.4338C43.8523 12.063 43.5741 12.9514 43.5371 14.0803H48.506V14.0988ZM50.9164 18.1704C50.4714 19.0217 49.8595 19.7064 49.0993 20.2061C48.3392 20.7243 47.4863 20.9649 46.5036 20.9649C45.6322 20.9649 44.8905 20.8169 44.2231 20.5022C43.5741 20.2061 43.0364 19.7805 42.6285 19.2623C42.2021 18.7441 41.8869 18.1333 41.683 17.4486C41.479 16.7453 41.3678 16.0235 41.3678 15.2462C41.3678 14.543 41.479 13.8767 41.7015 13.192C41.924 12.5257 42.2577 11.915 42.6842 11.3783C43.0921 10.8601 43.6112 10.4529 44.2231 10.1383C44.8349 9.82369 45.5209 9.65711 46.2811 9.65711C47.0413 9.65711 47.7273 9.76817 48.3021 10.0273C48.8583 10.2679 49.3218 10.601 49.6556 11.0451C49.9893 11.4523 50.2489 11.9335 50.3972 12.4702C50.5641 13.0254 50.6382 13.6176 50.6382 14.2654V14.9871H43.5371C43.5371 15.6904 43.6112 16.3196 43.741 16.8934C43.8708 17.4671 44.0933 17.9668 44.3714 18.411C44.6495 18.8366 45.0203 19.1512 45.4839 19.4103C45.9288 19.6509 46.4851 19.7805 47.1155 19.7805C47.7459 19.7805 48.3206 19.6324 48.7841 19.3363C49.2477 19.0402 49.6927 18.485 50.1376 17.7077L50.8978 18.1704H50.9164ZM35.3234 9.19443C35.3234 8.26908 35.0639 7.52881 34.5262 6.97359C33.9885 6.41838 33.2283 6.15928 32.2456 6.15928H30.3915V12.7663H31.8192C32.8204 12.7663 33.6547 12.4517 34.3222 11.8039C34.9897 11.1562 35.3234 10.2863 35.3234 9.19443ZM41.0526 20.7058H36.8994C35.9724 19.2623 35.138 18.0223 34.3964 16.9674C33.6547 15.9125 32.8389 14.8391 31.9675 13.7102H30.3915V18.596C30.3915 18.8551 30.4286 19.0772 30.5213 19.2623C30.5955 19.4473 30.7809 19.5954 31.0405 19.7064C31.1702 19.762 31.3927 19.799 31.7265 19.8545C32.0602 19.8915 32.3383 19.9285 32.5608 19.9285V20.7058H26.0344V19.9285C26.2013 19.9285 26.4608 19.8915 26.7946 19.8545C27.1283 19.8175 27.3508 19.762 27.4806 19.7064C27.7031 19.6139 27.8514 19.4844 27.9441 19.2993C28.0368 19.1142 28.0925 18.8921 28.0925 18.596V7.45479C28.0925 7.1957 28.0554 6.97359 27.9812 6.77002C27.907 6.58495 27.7402 6.4184 27.4806 6.32586C27.2952 6.25184 27.0542 6.1963 26.7575 6.14078C26.4794 6.08526 26.2198 6.04825 26.0159 6.02975V5.25245H33.1541C33.8031 5.25245 34.4149 5.32648 34.9897 5.45603C35.5645 5.58558 36.0836 5.80765 36.5471 6.10376C36.9921 6.39987 37.3629 6.77002 37.6225 7.23269C37.8821 7.69537 38.0304 8.26909 38.0304 8.91684C38.0304 9.50906 37.9377 10.0273 37.7523 10.4899C37.5669 10.9341 37.3073 11.3413 36.955 11.6744C36.6213 11.989 36.2319 12.2481 35.787 12.4887C35.3234 12.7108 34.8228 12.9144 34.2666 13.0624C35.0268 14.0803 35.6572 14.9131 36.1578 15.6164C36.6584 16.3011 37.2888 17.134 38.0119 18.1148C38.3271 18.559 38.6237 18.8736 38.8833 19.0772C39.1429 19.2808 39.4024 19.4473 39.6435 19.5769C39.8289 19.6694 40.0699 19.7435 40.348 19.799C40.6261 19.8545 40.8672 19.873 41.0526 19.8915V20.6688V20.7058Z" fill="#231F20"/>
</svg>
